<ttFont>
    <TTGlyph name="A" xMin="-10" yMin="0" xMax="699" yMax="668">
      <contour>
        <pt x="699" y="0" on="1"/>
        <pt x="429" y="0" on="1"/>
        <pt x="429" y="21" on="1"/>
        <pt x="507" y="33" on="1"/>
        <pt x="419" y="263" on="1"/>
        <pt x="194" y="263" on="1"/>
        <pt x="110" y="50" on="1"/>
        <pt x="199" y="24" on="1"/>
        <pt x="199" y="0" on="1"/>
        <pt x="-10" y="0" on="1"/>
        <pt x="-10" y="24" on="1"/>
        <pt x="66" y="50" on="1"/>
        <pt x="312" y="668" on="1"/>
        <pt x="361" y="668" on="1"/>
        <pt x="622" y="33" on="1"/>
        <pt x="699" y="24" on="1"/>
      </contour>
      <contour>
        <pt x="404" y="300" on="1"/>
        <pt x="306" y="543" on="1"/>
        <pt x="208" y="300" on="1"/>
      </contour>
    </TTGlyph>
    <TTGlyph name="AE" xMin="-42" yMin="0" xMax="863" yMax="670">
      <contour>
        <pt x="340" y="0" on="1"/>
        <pt x="340" y="24" on="1"/>
        <pt x="427" y="33" on="1"/>
        <pt x="427" y="263" on="1"/>
        <pt x="233" y="263" on="1"/>
        <pt x="89" y="48" on="1"/>
        <pt x="171" y="22" on="1"/>
        <pt x="171" y="0" on="1"/>
        <pt x="-42" y="0" on="1"/>
        <pt x="-42" y="20" on="1"/>
        <pt x="41" y="47" on="1"/>
        <pt x="427" y="629" on="1"/>
        <pt x="427" y="635" on="1"/>
        <pt x="340" y="646" on="1"/>
        <pt x="340" y="670" on="1"/>
        <pt x="819" y="668" on="1"/>
        <pt x="819" y="526" on="1"/>
        <pt x="794" y="526" on="1"/>
        <pt x="760" y="632" on="1"/>
        <pt x="530" y="635" on="1"/>
        <pt x="530" y="366" on="1"/>
        <pt x="732" y="366" on="1"/>
        <pt x="763" y="440" on="1"/>
        <pt x="783" y="440" on="1"/>
        <pt x="783" y="254" on="1"/>
        <pt x="762" y="254" on="1"/>
        <pt x="732" y="330" on="1"/>
        <pt x="530" y="330" on="1"/>
        <pt x="530" y="32" on="1"/>
        <pt x="790" y="35" on="1"/>
        <pt x="837" y="149" on="1"/>
        <pt x="863" y="149" on="1"/>
        <pt x="851" y="0" on="1"/>
      </contour>
      <contour>
        <pt x="427" y="298" on="1"/>
        <pt x="427" y="566" on="1"/>
        <pt x="258" y="298" on="1"/>
      </contour>
    </TTGlyph>
    <TTGlyph name="Aacute" xMin="-10" yMin="0" xMax="699" yMax="904">
      <contour>
        <pt x="-10" y="0" on="1"/>
        <pt x="-10" y="24" on="1"/>
        <pt x="66" y="50" on="1"/>
        <pt x="312" y="668" on="1"/>
        <pt x="361" y="668" on="1"/>
        <pt x="622" y="33" on="1"/>
        <pt x="699" y="24" on="1"/>
        <pt x="699" y="0" on="1"/>
        <pt x="429" y="0" on="1"/>
        <pt x="429" y="21" on="1"/>
        <pt x="507" y="33" on="1"/>
        <pt x="419" y="263" on="1"/>
        <pt x="194" y="263" on="1"/>
        <pt x="110" y="50" on="1"/>
        <pt x="199" y="24" on="1"/>
        <pt x="199" y="0" on="1"/>
      </contour>
      <contour>
        <pt x="306" y="543" on="1"/>
        <pt x="208" y="300" on="1"/>
        <pt x="404" y="300" on="1"/>
      </contour>
      <contour>
        <pt x="419" y="904" on="1"/>
        <pt x="460" y="866" on="0"/>
        <pt x="460" y="841" on="1"/>
        <pt x="460" y="829" on="0"/>
        <pt x="442" y="815" on="1"/>
        <pt x="347" y="755" on="0"/>
        <pt x="275" y="718" on="1"/>
        <pt x="258" y="743" on="1"/>
        <pt x="376" y="863" on="0"/>
      </contour>
    </TTGlyph>
    <TTGlyph name="Acircumflex" xMin="-10" yMin="0" xMax="699" yMax="921">
      <contour>
        <pt x="-10" y="0" on="1"/>
        <pt x="-10" y="24" on="1"/>
        <pt x="66" y="50" on="1"/>
        <pt x="312" y="668" on="1"/>
        <pt x="361" y="668" on="1"/>
        <pt x="622" y="33" on="1"/>
        <pt x="699" y="24" on="1"/>
        <pt x="699" y="0" on="1"/>
        <pt x="429" y="0" on="1"/>
        <pt x="429" y="21" on="1"/>
        <pt x="507" y="33" on="1"/>
        <pt x="419" y="263" on="1"/>
        <pt x="194" y="263" on="1"/>
        <pt x="110" y="50" on="1"/>
        <pt x="199" y="24" on="1"/>
        <pt x="199" y="0" on="1"/>
      </contour>
      <contour>
        <pt x="306" y="543" on="1"/>
        <pt x="208" y="300" on="1"/>
        <pt x="404" y="300" on="1"/>
      </contour>
      <contour>
        <pt x="179" y="735" on="1"/>
        <pt x="316" y="921" on="1"/>
        <pt x="366" y="921" on="1"/>
        <pt x="502" y="735" on="1"/>
        <pt x="471" y="716" on="1"/>
        <pt x="341" y="842" on="1"/>
        <pt x="210" y="716" on="1"/>
      </contour>
    </TTGlyph>
    <TTGlyph name="Adieresis" xMin="-10" yMin="0" xMax="699" yMax="858">
      <contour>
        <pt x="-10" y="0" on="1"/>
        <pt x="-10" y="24" on="1"/>
        <pt x="66" y="50" on="1"/>
        <pt x="312" y="668" on="1"/>
        <pt x="361" y="668" on="1"/>
        <pt x="622" y="33" on="1"/>
        <pt x="699" y="24" on="1"/>
        <pt x="699" y="0" on="1"/>
        <pt x="429" y="0" on="1"/>
        <pt x="429" y="21" on="1"/>
        <pt x="507" y="33" on="1"/>
        <pt x="419" y="263" on="1"/>
        <pt x="194" y="263" on="1"/>
        <pt x="110" y="50" on="1"/>
        <pt x="199" y="24" on="1"/>
        <pt x="199" y="0" on="1"/>
      </contour>
      <contour>
        <pt x="306" y="543" on="1"/>
        <pt x="208" y="300" on="1"/>
        <pt x="404" y="300" on="1"/>
      </contour>
      <contour>
        <pt x="301" y="776" on="0"/>
        <pt x="268" y="742" on="0"/>
        <pt x="219" y="742" on="0"/>
        <pt x="186" y="775" on="0"/>
        <pt x="186" y="824" on="0"/>
        <pt x="219" y="858" on="0"/>
        <pt x="268" y="858" on="0"/>
        <pt x="301" y="824" on="0"/>
      </contour>
      <contour>
        <pt x="487" y="776" on="0"/>
        <pt x="454" y="742" on="0"/>
        <pt x="405" y="742" on="0"/>
        <pt x="372" y="775" on="0"/>
        <pt x="372" y="824" on="0"/>
        <pt x="405" y="858" on="0"/>
        <pt x="454" y="858" on="0"/>
        <pt x="487" y="824" on="0"/>
      </contour>
    </TTGlyph>
    <TTGlyph name="Agrave" xMin="-10" yMin="0" xMax="699" yMax="904">
      <contour>
        <pt x="-10" y="0" on="1"/>
        <pt x="-10" y="24" on="1"/>
        <pt x="66" y="50" on="1"/>
        <pt x="312" y="668" on="1"/>
        <pt x="361" y="668" on="1"/>
        <pt x="622" y="33" on="1"/>
        <pt x="699" y="24" on="1"/>
        <pt x="699" y="0" on="1"/>
        <pt x="429" y="0" on="1"/>
        <pt x="429" y="21" on="1"/>
        <pt x="507" y="33" on="1"/>
        <pt x="419" y="263" on="1"/>
        <pt x="194" y="263" on="1"/>
        <pt x="110" y="50" on="1"/>
        <pt x="199" y="24" on="1"/>
        <pt x="199" y="0" on="1"/>
      </contour>
      <contour>
        <pt x="306" y="543" on="1"/>
        <pt x="208" y="300" on="1"/>
        <pt x="404" y="300" on="1"/>
      </contour>
      <contour>
        <pt x="235" y="815" on="1"/>
        <pt x="217" y="829" on="0"/>
        <pt x="217" y="839" on="1"/>
        <pt x="217" y="866" on="0"/>
        <pt x="258" y="904" on="1"/>
        <pt x="301" y="863" on="0"/>
        <pt x="419" y="743" on="1"/>
        <pt x="402" y="718" on="1"/>
        <pt x="330" y="755" on="0"/>
      </contour>
    </TTGlyph>
    <TTGlyph name="Aring" xMin="-10" yMin="0" xMax="699" yMax="922">
      <contour>
        <pt x="-10" y="0" on="1"/>
        <pt x="-10" y="24" on="1"/>
        <pt x="66" y="50" on="1"/>
        <pt x="312" y="668" on="1"/>
        <pt x="361" y="668" on="1"/>
        <pt x="622" y="33" on="1"/>
        <pt x="699" y="24" on="1"/>
        <pt x="699" y="0" on="1"/>
        <pt x="429" y="0" on="1"/>
        <pt x="429" y="21" on="1"/>
        <pt x="507" y="33" on="1"/>
        <pt x="419" y="263" on="1"/>
        <pt x="194" y="263" on="1"/>
        <pt x="110" y="50" on="1"/>
        <pt x="199" y="24" on="1"/>
        <pt x="199" y="0" on="1"/>
      </contour>
      <contour>
        <pt x="306" y="543" on="1"/>
        <pt x="208" y="300" on="1"/>
        <pt x="404" y="300" on="1"/>
      </contour>
      <contour>
        <pt x="383" y="922" on="0"/>
        <pt x="443" y="864" on="0"/>
        <pt x="443" y="776" on="0"/>
        <pt x="380" y="715" on="0"/>
        <pt x="292" y="715" on="0"/>
        <pt x="231" y="773" on="0"/>
        <pt x="231" y="861" on="0"/>
        <pt x="294" y="922" on="0"/>
      </contour>
      <contour>
        <pt x="361" y="756" on="0"/>
        <pt x="394" y="790" on="0"/>
        <pt x="394" y="842" on="0"/>
        <pt x="360" y="878" on="0"/>
        <pt x="313" y="878" on="0"/>
        <pt x="280" y="844" on="0"/>
        <pt x="280" y="790" on="0"/>
        <pt x="313" y="756" on="0"/>
      </contour>
    </TTGlyph>
    <TTGlyph name="Atilde" xMin="-10" yMin="0" xMax="699" yMax="859">
      <contour>
        <pt x="-10" y="0" on="1"/>
        <pt x="-10" y="24" on="1"/>
        <pt x="66" y="50" on="1"/>
        <pt x="312" y="668" on="1"/>
        <pt x="361" y="668" on="1"/>
        <pt x="622" y="33" on="1"/>
        <pt x="699" y="24" on="1"/>
        <pt x="699" y="0" on="1"/>
        <pt x="429" y="0" on="1"/>
        <pt x="429" y="21" on="1"/>
        <pt x="507" y="33" on="1"/>
        <pt x="419" y="263" on="1"/>
        <pt x="194" y="263" on="1"/>
        <pt x="110" y="50" on="1"/>
        <pt x="199" y="24" on="1"/>
        <pt x="199" y="0" on="1"/>
      </contour>
      <contour>
        <pt x="306" y="543" on="1"/>
        <pt x="208" y="300" on="1"/>
        <pt x="404" y="300" on="1"/>
      </contour>
      <contour>
        <pt x="505" y="800" on="0"/>
        <pt x="448" y="740" on="0"/>
        <pt x="373" y="740" on="0"/>
        <pt x="325" y="769" on="1"/>
        <pt x="280" y="801" on="0"/>
        <pt x="233" y="801" on="0"/>
        <pt x="200" y="773" on="0"/>
        <pt x="195" y="755" on="1"/>
        <pt x="168" y="755" on="1"/>
        <pt x="174" y="800" on="0"/>
        <pt x="231" y="859" on="0"/>
        <pt x="311" y="859" on="0"/>
        <pt x="358" y="829" on="1"/>
        <pt x="403" y="798" on="0"/>
        <pt x="447" y="798" on="0"/>
        <pt x="479" y="827" on="0"/>
        <pt x="484" y="845" on="1"/>
        <pt x="511" y="845" on="1"/>
      </contour>
    </TTGlyph>
    <TTGlyph name="B" xMin="36" yMin="0" xMax="583" yMax="668">
      <contour>
        <pt x="319" y="668" on="1"/>
        <pt x="440" y="668" on="0"/>
        <pt x="549" y="590" on="0"/>
        <pt x="549" y="446" on="0"/>
        <pt x="472" y="361" on="0"/>
        <pt x="398" y="353" on="1"/>
        <pt x="495" y="336" on="0"/>
        <pt x="583" y="255" on="0"/>
        <pt x="583" y="181" on="1"/>
        <pt x="583" y="89" on="0"/>
        <pt x="431" y="0" on="0"/>
        <pt x="310" y="0" on="1"/>
        <pt x="48" y="0" on="1"/>
        <pt x="48" y="24" on="1"/>
        <pt x="123" y="33" on="1"/>
        <pt x="123" y="635" on="1"/>
        <pt x="36" y="644" on="1"/>
        <pt x="36" y="668" on="1"/>
      </contour>
      <contour>
        <pt x="361" y="324" on="1"/>
        <pt x="323" y="332" on="0"/>
        <pt x="251" y="332" on="0"/>
        <pt x="228" y="331" on="1"/>
        <pt x="228" y="28" on="1"/>
        <pt x="253" y="21" on="0"/>
        <pt x="294" y="21" on="0"/>
        <pt x="351" y="27" on="0"/>
        <pt x="426" y="54" on="0"/>
        <pt x="476" y="132" on="0"/>
        <pt x="476" y="189" on="1"/>
        <pt x="476" y="300" on="0"/>
      </contour>
      <contour>
        <pt x="228" y="641" on="1"/>
        <pt x="228" y="361" on="1"/>
        <pt x="270" y="361" on="1"/>
        <pt x="439" y="361" on="0"/>
        <pt x="439" y="515" on="1"/>
        <pt x="439" y="582" on="0"/>
        <pt x="370" y="641" on="0"/>
        <pt x="293" y="641" on="1"/>
      </contour>
    </TTGlyph>
    <TTGlyph name="C" xMin="51" yMin="-6" xMax="660" yMax="675">
      <contour>
        <pt x="436" y="675" on="1"/>
        <pt x="436" y="675" on="0"/>
        <pt x="642" y="666" on="1"/>
        <pt x="648" y="484" on="1"/>
        <pt x="616" y="484" on="1"/>
        <pt x="582" y="615" on="1"/>
        <pt x="528" y="638" on="0"/>
        <pt x="454" y="638" on="1"/>
        <pt x="333" y="638" on="0"/>
        <pt x="174" y="479" on="0"/>
        <pt x="174" y="175" on="0"/>
        <pt x="329" y="30" on="0"/>
        <pt x="450" y="30" on="1"/>
        <pt x="531" y="30" on="0"/>
        <pt x="595" y="54" on="1"/>
        <pt x="632" y="169" on="1"/>
        <pt x="660" y="168" on="1"/>
        <pt x="654" y="18" on="1"/>
        <pt x="539" y="-6" on="0"/>
        <pt x="374" y="-6" on="0"/>
        <pt x="267" y="12" on="0"/>
        <pt x="165" y="58" on="0"/>
        <pt x="94" y="130" on="0"/>
        <pt x="51" y="245" on="0"/>
        <pt x="51" y="411" on="0"/>
        <pt x="116" y="552" on="0"/>
        <pt x="172" y="593" on="1"/>
        <pt x="283" y="675" on="0"/>
      </contour>
    </TTGlyph>
    <TTGlyph name="Ccedilla" xMin="51" yMin="-217" xMax="660" yMax="675">
      <contour>
        <pt x="436" y="675" on="1"/>
        <pt x="436" y="675" on="0"/>
        <pt x="642" y="666" on="1"/>
        <pt x="648" y="484" on="1"/>
        <pt x="616" y="484" on="1"/>
        <pt x="582" y="615" on="1"/>
        <pt x="528" y="638" on="0"/>
        <pt x="454" y="638" on="1"/>
        <pt x="333" y="638" on="0"/>
        <pt x="174" y="479" on="0"/>
        <pt x="174" y="175" on="0"/>
        <pt x="329" y="30" on="0"/>
        <pt x="450" y="30" on="1"/>
        <pt x="531" y="30" on="0"/>
        <pt x="595" y="54" on="1"/>
        <pt x="632" y="169" on="1"/>
        <pt x="660" y="168" on="1"/>
        <pt x="654" y="18" on="1"/>
        <pt x="539" y="-6" on="0"/>
        <pt x="374" y="-6" on="0"/>
        <pt x="267" y="12" on="0"/>
        <pt x="165" y="58" on="0"/>
        <pt x="94" y="130" on="0"/>
        <pt x="51" y="245" on="0"/>
        <pt x="51" y="411" on="0"/>
        <pt x="116" y="552" on="0"/>
        <pt x="172" y="593" on="1"/>
        <pt x="283" y="675" on="0"/>
      </contour>
      <contour>
        <pt x="360" y="-68" on="1"/>
        <pt x="382" y="-56" on="0"/>
        <pt x="452" y="-56" on="0"/>
        <pt x="503" y="-96" on="0"/>
        <pt x="503" y="-128" on="1"/>
        <pt x="503" y="-175" on="0"/>
        <pt x="430" y="-217" on="0"/>
        <pt x="340" y="-217" on="0"/>
        <pt x="277" y="-192" on="1"/>
        <pt x="285" y="-175" on="1"/>
        <pt x="323" y="-189" on="0"/>
        <pt x="356" y="-189" on="1"/>
        <pt x="423" y="-189" on="0"/>
        <pt x="423" y="-131" on="1"/>
        <pt x="423" y="-84" on="0"/>
        <pt x="384" y="-84" on="1"/>
        <pt x="363" y="-84" on="0"/>
        <pt x="342" y="-91" on="1"/>
        <pt x="321" y="-82" on="1"/>
        <pt x="372" y="8" on="1"/>
        <pt x="400" y="8" on="1"/>
        <pt x="358" y="-65" on="1"/>
      </contour>
    </TTGlyph>
    <TTGlyph name="D" xMin="39" yMin="0" xMax="749" yMax="672">
      <contour>
        <pt x="458" y="630" on="0"/>
        <pt x="418" y="634" on="0"/>
        <pt x="361" y="637" on="0"/>
        <pt x="284" y="637" on="0"/>
        <pt x="231" y="632" on="1"/>
        <pt x="231" y="35" on="1"/>
        <pt x="341" y="32" on="1"/>
        <pt x="444" y="36" on="0"/>
        <pt x="493" y="58" on="1"/>
        <pt x="626" y="119" on="0"/>
        <pt x="627" y="334" on="1"/>
        <pt x="627" y="418" on="0"/>
        <pt x="589" y="538" on="0"/>
        <pt x="546" y="596" on="0"/>
      </contour>
      <contour>
        <pt x="162" y="667" on="1"/>
        <pt x="356" y="672" on="1"/>
        <pt x="445" y="672" on="0"/>
        <pt x="579" y="642" on="0"/>
        <pt x="635" y="606" on="1"/>
        <pt x="749" y="533" on="0"/>
        <pt x="749" y="335" on="1"/>
        <pt x="749" y="0" on="0"/>
        <pt x="341" y="0" on="1"/>
        <pt x="39" y="0" on="1"/>
        <pt x="39" y="26" on="1"/>
        <pt x="126" y="34" on="1"/>
        <pt x="126" y="633" on="1"/>
        <pt x="39" y="644" on="1"/>
        <pt x="39" y="670" on="1"/>
        <pt x="100" y="667" on="0"/>
      </contour>
    </TTGlyph>
    <TTGlyph name="E" xMin="39" yMin="0" xMax="562" yMax="668">
      <contour>
        <pt x="39" y="0" on="1"/>
        <pt x="39" y="24" on="1"/>
        <pt x="126" y="33" on="1"/>
        <pt x="126" y="635" on="1"/>
        <pt x="39" y="646" on="1"/>
        <pt x="39" y="668" on="1"/>
        <pt x="518" y="668" on="1"/>
        <pt x="519" y="526" on="1"/>
        <pt x="493" y="526" on="1"/>
        <pt x="459" y="632" on="1"/>
        <pt x="229" y="635" on="1"/>
        <pt x="229" y="366" on="1"/>
        <pt x="431" y="366" on="1"/>
        <pt x="462" y="440" on="1"/>
        <pt x="482" y="440" on="1"/>
        <pt x="482" y="254" on="1"/>
        <pt x="461" y="254" on="1"/>
        <pt x="431" y="330" on="1"/>
        <pt x="229" y="330" on="1"/>
        <pt x="229" y="32" on="1"/>
        <pt x="489" y="35" on="1"/>
        <pt x="536" y="149" on="1"/>
        <pt x="562" y="149" on="1"/>
        <pt x="550" y="0" on="1"/>
      </contour>
    </TTGlyph>
    <TTGlyph name="Eacute" xMin="39" yMin="0" xMax="562" yMax="904">
      <contour>
        <pt x="39" y="0" on="1"/>
        <pt x="39" y="24" on="1"/>
        <pt x="126" y="33" on="1"/>
        <pt x="126" y="635" on="1"/>
        <pt x="39" y="646" on="1"/>
        <pt x="39" y="668" on="1"/>
        <pt x="518" y="668" on="1"/>
        <pt x="519" y="526" on="1"/>
        <pt x="493" y="526" on="1"/>
        <pt x="459" y="632" on="1"/>
        <pt x="229" y="635" on="1"/>
        <pt x="229" y="366" on="1"/>
        <pt x="431" y="366" on="1"/>
        <pt x="462" y="440" on="1"/>
        <pt x="482" y="440" on="1"/>
        <pt x="482" y="254" on="1"/>
        <pt x="461" y="254" on="1"/>
        <pt x="431" y="330" on="1"/>
        <pt x="229" y="330" on="1"/>
        <pt x="229" y="32" on="1"/>
        <pt x="489" y="35" on="1"/>
        <pt x="536" y="149" on="1"/>
        <pt x="562" y="149" on="1"/>
        <pt x="550" y="0" on="1"/>
      </contour>
      <contour>
        <pt x="390" y="904" on="1"/>
        <pt x="431" y="866" on="0"/>
        <pt x="431" y="841" on="1"/>
        <pt x="431" y="829" on="0"/>
        <pt x="413" y="815" on="1"/>
        <pt x="318" y="755" on="0"/>
        <pt x="246" y="718" on="1"/>
        <pt x="229" y="743" on="1"/>
        <pt x="347" y="863" on="0"/>
      </contour>
    </TTGlyph>
    <TTGlyph name="Ecircumflex" xMin="39" yMin="0" xMax="562" yMax="921">
      <contour>
        <pt x="39" y="0" on="1"/>
        <pt x="39" y="24" on="1"/>
        <pt x="126" y="33" on="1"/>
        <pt x="126" y="635" on="1"/>
        <pt x="39" y="646" on="1"/>
        <pt x="39" y="668" on="1"/>
        <pt x="518" y="668" on="1"/>
        <pt x="519" y="526" on="1"/>
        <pt x="493" y="526" on="1"/>
        <pt x="459" y="632" on="1"/>
        <pt x="229" y="635" on="1"/>
        <pt x="229" y="366" on="1"/>
        <pt x="431" y="366" on="1"/>
        <pt x="462" y="440" on="1"/>
        <pt x="482" y="440" on="1"/>
        <pt x="482" y="254" on="1"/>
        <pt x="461" y="254" on="1"/>
        <pt x="431" y="330" on="1"/>
        <pt x="229" y="330" on="1"/>
        <pt x="229" y="32" on="1"/>
        <pt x="489" y="35" on="1"/>
        <pt x="536" y="149" on="1"/>
        <pt x="562" y="149" on="1"/>
        <pt x="550" y="0" on="1"/>
      </contour>
      <contour>
        <pt x="147" y="735" on="1"/>
        <pt x="284" y="921" on="1"/>
        <pt x="334" y="921" on="1"/>
        <pt x="470" y="735" on="1"/>
        <pt x="439" y="716" on="1"/>
        <pt x="309" y="842" on="1"/>
        <pt x="178" y="716" on="1"/>
      </contour>
    </TTGlyph>
    <TTGlyph name="Edieresis" xMin="39" yMin="0" xMax="562" yMax="858">
      <contour>
        <pt x="39" y="0" on="1"/>
        <pt x="39" y="24" on="1"/>
        <pt x="126" y="33" on="1"/>
        <pt x="126" y="635" on="1"/>
        <pt x="39" y="646" on="1"/>
        <pt x="39" y="668" on="1"/>
        <pt x="518" y="668" on="1"/>
        <pt x="519" y="526" on="1"/>
        <pt x="493" y="526" on="1"/>
        <pt x="459" y="632" on="1"/>
        <pt x="229" y="635" on="1"/>
        <pt x="229" y="366" on="1"/>
        <pt x="431" y="366" on="1"/>
        <pt x="462" y="440" on="1"/>
        <pt x="482" y="440" on="1"/>
        <pt x="482" y="254" on="1"/>
        <pt x="461" y="254" on="1"/>
        <pt x="431" y="330" on="1"/>
        <pt x="229" y="330" on="1"/>
        <pt x="229" y="32" on="1"/>
        <pt x="489" y="35" on="1"/>
        <pt x="536" y="149" on="1"/>
        <pt x="562" y="149" on="1"/>
        <pt x="550" y="0" on="1"/>
      </contour>
      <contour>
        <pt x="273" y="776" on="0"/>
        <pt x="240" y="742" on="0"/>
        <pt x="191" y="742" on="0"/>
        <pt x="158" y="775" on="0"/>
        <pt x="158" y="824" on="0"/>
        <pt x="191" y="858" on="0"/>
        <pt x="240" y="858" on="0"/>
        <pt x="273" y="824" on="0"/>
      </contour>
      <contour>
        <pt x="459" y="776" on="0"/>
        <pt x="426" y="742" on="0"/>
        <pt x="377" y="742" on="0"/>
        <pt x="344" y="775" on="0"/>
        <pt x="344" y="824" on="0"/>
        <pt x="377" y="858" on="0"/>
        <pt x="426" y="858" on="0"/>
        <pt x="459" y="824" on="0"/>
      </contour>
    </TTGlyph>
    <TTGlyph name="Egrave" xMin="39" yMin="0" xMax="562" yMax="904">
      <contour>
        <pt x="39" y="0" on="1"/>
        <pt x="39" y="24" on="1"/>
        <pt x="126" y="33" on="1"/>
        <pt x="126" y="635" on="1"/>
        <pt x="39" y="646" on="1"/>
        <pt x="39" y="668" on="1"/>
        <pt x="518" y="668" on="1"/>
        <pt x="519" y="526" on="1"/>
        <pt x="493" y="526" on="1"/>
        <pt x="459" y="632" on="1"/>
        <pt x="229" y="635" on="1"/>
        <pt x="229" y="366" on="1"/>
        <pt x="431" y="366" on="1"/>
        <pt x="462" y="440" on="1"/>
        <pt x="482" y="440" on="1"/>
        <pt x="482" y="254" on="1"/>
        <pt x="461" y="254" on="1"/>
        <pt x="431" y="330" on="1"/>
        <pt x="229" y="330" on="1"/>
        <pt x="229" y="32" on="1"/>
        <pt x="489" y="35" on="1"/>
        <pt x="536" y="149" on="1"/>
        <pt x="562" y="149" on="1"/>
        <pt x="550" y="0" on="1"/>
      </contour>
      <contour>
        <pt x="195" y="815" on="1"/>
        <pt x="177" y="829" on="0"/>
        <pt x="177" y="839" on="1"/>
        <pt x="177" y="866" on="0"/>
        <pt x="218" y="904" on="1"/>
        <pt x="261" y="863" on="0"/>
        <pt x="379" y="743" on="1"/>
        <pt x="362" y="718" on="1"/>
        <pt x="290" y="755" on="0"/>
      </contour>
    </TTGlyph>
    <TTGlyph name="Eth" xMin="66" yMin="0" xMax="779" yMax="672">
      <contour>
        <pt x="779" y="335" on="1"/>
        <pt x="779" y="0" on="0"/>
        <pt x="371" y="0" on="1"/>
        <pt x="69" y="0" on="1"/>
        <pt x="69" y="26" on="1"/>
        <pt x="156" y="34" on="1"/>
        <pt x="156" y="316" on="1"/>
        <pt x="66" y="316" on="1"/>
        <pt x="66" y="360" on="1"/>
        <pt x="156" y="360" on="1"/>
        <pt x="156" y="633" on="1"/>
        <pt x="69" y="644" on="1"/>
        <pt x="69" y="670" on="1"/>
        <pt x="106" y="668" on="0"/>
        <pt x="175" y="668" on="1"/>
        <pt x="260" y="668" on="1"/>
        <pt x="386" y="672" on="1"/>
        <pt x="475" y="672" on="0"/>
        <pt x="609" y="642" on="0"/>
        <pt x="665" y="606" on="1"/>
        <pt x="779" y="533" on="0"/>
      </contour>
      <contour>
        <pt x="414" y="360" on="1"/>
        <pt x="414" y="316" on="1"/>
        <pt x="261" y="316" on="1"/>
        <pt x="261" y="35" on="1"/>
        <pt x="371" y="32" on="1"/>
        <pt x="474" y="36" on="0"/>
        <pt x="523" y="58" on="1"/>
        <pt x="656" y="119" on="0"/>
        <pt x="657" y="334" on="1"/>
        <pt x="657" y="418" on="0"/>
        <pt x="619" y="538" on="0"/>
        <pt x="576" y="596" on="0"/>
        <pt x="488" y="630" on="0"/>
        <pt x="468" y="632" on="1"/>
        <pt x="418" y="637" on="0"/>
        <pt x="314" y="637" on="0"/>
        <pt x="261" y="632" on="1"/>
        <pt x="261" y="360" on="1"/>
      </contour>
    </TTGlyph>
    <TTGlyph name="Euro" xMin="42" yMin="-11" xMax="645" yMax="682">
      <contour>
        <pt x="223" y="354" on="1"/>
        <pt x="223" y="329" on="1"/>
        <pt x="223" y="293" on="0"/>
        <pt x="224" y="276" on="1"/>
        <pt x="472" y="276" on="1"/>
        <pt x="463" y="239" on="1"/>
        <pt x="227" y="239" on="1"/>
        <pt x="238" y="129" on="0"/>
        <pt x="327" y="23" on="0"/>
        <pt x="417" y="23" on="1"/>
        <pt x="537" y="23" on="0"/>
        <pt x="612" y="145" on="1"/>
        <pt x="613" y="144" on="0"/>
        <pt x="619" y="142" on="0"/>
        <pt x="623" y="140" on="0"/>
        <pt x="628" y="137" on="0"/>
        <pt x="631" y="135" on="0"/>
        <pt x="635" y="131" on="0"/>
        <pt x="636" y="130" on="1"/>
        <pt x="639" y="125" on="0"/>
        <pt x="639" y="120" on="1"/>
        <pt x="639" y="83" on="0"/>
        <pt x="508" y="-11" on="0"/>
        <pt x="283" y="-11" on="0"/>
        <pt x="130" y="122" on="0"/>
        <pt x="107" y="239" on="1"/>
        <pt x="42" y="239" on="1"/>
        <pt x="42" y="276" on="1"/>
        <pt x="102" y="276" on="1"/>
        <pt x="99" y="302" on="0"/>
        <pt x="99" y="329" on="1"/>
        <pt x="99" y="354" on="1"/>
        <pt x="42" y="354" on="1"/>
        <pt x="42" y="390" on="1"/>
        <pt x="103" y="390" on="1"/>
        <pt x="120" y="524" on="0"/>
        <pt x="290" y="682" on="0"/>
        <pt x="423" y="682" on="1"/>
        <pt x="496" y="682" on="0"/>
        <pt x="564" y="650" on="1"/>
        <pt x="600" y="633" on="0"/>
        <pt x="645" y="564" on="0"/>
        <pt x="645" y="474" on="0"/>
        <pt x="606" y="454" on="1"/>
        <pt x="587" y="444" on="0"/>
        <pt x="550" y="444" on="0"/>
        <pt x="533" y="456" on="1"/>
        <pt x="539" y="486" on="0"/>
        <pt x="539" y="512" on="1"/>
        <pt x="539" y="565" on="0"/>
        <pt x="515" y="600" on="1"/>
        <pt x="480" y="652" on="0"/>
        <pt x="416" y="652" on="1"/>
        <pt x="241" y="652" on="0"/>
        <pt x="224" y="390" on="1"/>
        <pt x="502" y="390" on="1"/>
        <pt x="493" y="354" on="1"/>
      </contour>
    </TTGlyph>
    <TTGlyph name="F" xMin="39" yMin="0" xMax="525" yMax="668">
      <contour>
        <pt x="229" y="313" on="1"/>
        <pt x="229" y="33" on="1"/>
        <pt x="316" y="24" on="1"/>
        <pt x="316" y="0" on="1"/>
        <pt x="39" y="0" on="1"/>
        <pt x="39" y="24" on="1"/>
        <pt x="126" y="33" on="1"/>
        <pt x="126" y="634" on="1"/>
        <pt x="39" y="646" on="1"/>
        <pt x="39" y="668" on="1"/>
        <pt x="524" y="668" on="1"/>
        <pt x="525" y="526" on="1"/>
        <pt x="499" y="526" on="1"/>
        <pt x="465" y="632" on="1"/>
        <pt x="229" y="635" on="1"/>
        <pt x="229" y="349" on="1"/>
        <pt x="437" y="349" on="1"/>
        <pt x="468" y="423" on="1"/>
        <pt x="488" y="423" on="1"/>
        <pt x="488" y="237" on="1"/>
        <pt x="467" y="237" on="1"/>
        <pt x="437" y="313" on="1"/>
      </contour>
    </TTGlyph>
    <TTGlyph name="G" xMin="51" yMin="-6" xMax="716" yMax="675">
      <contour>
        <pt x="656" y="18" on="1"/>
        <pt x="560" y="-6" on="0"/>
        <pt x="436" y="-6" on="1"/>
        <pt x="228" y="-6" on="0"/>
        <pt x="130" y="94" on="1"/>
        <pt x="94" y="130" on="0"/>
        <pt x="51" y="245" on="0"/>
        <pt x="51" y="411" on="0"/>
        <pt x="116" y="552" on="0"/>
        <pt x="172" y="593" on="1"/>
        <pt x="283" y="675" on="0"/>
        <pt x="436" y="675" on="1"/>
        <pt x="642" y="666" on="1"/>
        <pt x="648" y="484" on="1"/>
        <pt x="616" y="484" on="1"/>
        <pt x="582" y="615" on="1"/>
        <pt x="528" y="638" on="0"/>
        <pt x="454" y="638" on="1"/>
        <pt x="333" y="638" on="0"/>
        <pt x="174" y="479" on="0"/>
        <pt x="174" y="175" on="0"/>
        <pt x="329" y="30" on="0"/>
        <pt x="450" y="30" on="1"/>
        <pt x="509" y="30" on="0"/>
        <pt x="558" y="42" on="1"/>
        <pt x="558" y="255" on="1"/>
        <pt x="475" y="264" on="1"/>
        <pt x="475" y="288" on="1"/>
        <pt x="716" y="288" on="1"/>
        <pt x="716" y="264" on="1"/>
        <pt x="656" y="255" on="1"/>
      </contour>
    </TTGlyph>
    <TTGlyph name="H" xMin="39" yMin="0" xMax="774" yMax="668">
      <contour>
        <pt x="774" y="0" on="1"/>
        <pt x="497" y="0" on="1"/>
        <pt x="497" y="24" on="1"/>
        <pt x="584" y="33" on="1"/>
        <pt x="584" y="330" on="1"/>
        <pt x="229" y="330" on="1"/>
        <pt x="229" y="33" on="1"/>
        <pt x="316" y="24" on="1"/>
        <pt x="316" y="0" on="1"/>
        <pt x="39" y="0" on="1"/>
        <pt x="39" y="24" on="1"/>
        <pt x="126" y="33" on="1"/>
        <pt x="126" y="635" on="1"/>
        <pt x="39" y="644" on="1"/>
        <pt x="39" y="668" on="1"/>
        <pt x="316" y="668" on="1"/>
        <pt x="316" y="644" on="1"/>
        <pt x="229" y="635" on="1"/>
        <pt x="229" y="366" on="1"/>
        <pt x="584" y="366" on="1"/>
        <pt x="584" y="635" on="1"/>
        <pt x="497" y="644" on="1"/>
        <pt x="497" y="668" on="1"/>
        <pt x="774" y="668" on="1"/>
        <pt x="774" y="644" on="1"/>
        <pt x="687" y="635" on="1"/>
        <pt x="687" y="33" on="1"/>
        <pt x="774" y="24" on="1"/>
      </contour>
    </TTGlyph>
    <TTGlyph name="I" xMin="39" yMin="0" xMax="316" yMax="668">
      <contour>
        <pt x="316" y="0" on="1"/>
        <pt x="39" y="0" on="1"/>
        <pt x="39" y="24" on="1"/>
        <pt x="126" y="33" on="1"/>
        <pt x="126" y="635" on="1"/>
        <pt x="39" y="644" on="1"/>
        <pt x="39" y="668" on="1"/>
        <pt x="316" y="668" on="1"/>
        <pt x="316" y="644" on="1"/>
        <pt x="229" y="635" on="1"/>
        <pt x="229" y="33" on="1"/>
        <pt x="316" y="24" on="1"/>
      </contour>
    </TTGlyph>
    <TTGlyph name="Iacute" xMin="39" yMin="0" xMax="316" yMax="904">
      <contour>
        <pt x="316" y="668" on="1"/>
        <pt x="316" y="644" on="1"/>
        <pt x="229" y="635" on="1"/>
        <pt x="229" y="33" on="1"/>
        <pt x="316" y="24" on="1"/>
        <pt x="316" y="0" on="1"/>
        <pt x="39" y="0" on="1"/>
        <pt x="39" y="24" on="1"/>
        <pt x="126" y="33" on="1"/>
        <pt x="126" y="635" on="1"/>
        <pt x="39" y="644" on="1"/>
        <pt x="39" y="668" on="1"/>
      </contour>
      <contour>
        <pt x="250" y="904" on="1"/>
        <pt x="291" y="866" on="0"/>
        <pt x="291" y="841" on="1"/>
        <pt x="291" y="829" on="0"/>
        <pt x="273" y="815" on="1"/>
        <pt x="178" y="755" on="0"/>
        <pt x="106" y="718" on="1"/>
        <pt x="89" y="743" on="1"/>
        <pt x="207" y="863" on="0"/>
      </contour>
    </TTGlyph>
    <TTGlyph name="Icircumflex" xMin="17" yMin="0" xMax="340" yMax="921">
      <contour>
        <pt x="316" y="668" on="1"/>
        <pt x="316" y="644" on="1"/>
        <pt x="229" y="635" on="1"/>
        <pt x="229" y="33" on="1"/>
        <pt x="316" y="24" on="1"/>
        <pt x="316" y="0" on="1"/>
        <pt x="39" y="0" on="1"/>
        <pt x="39" y="24" on="1"/>
        <pt x="126" y="33" on="1"/>
        <pt x="126" y="635" on="1"/>
        <pt x="39" y="644" on="1"/>
        <pt x="39" y="668" on="1"/>
      </contour>
      <contour>
        <pt x="17" y="735" on="1"/>
        <pt x="154" y="921" on="1"/>
        <pt x="204" y="921" on="1"/>
        <pt x="340" y="735" on="1"/>
        <pt x="309" y="716" on="1"/>
        <pt x="179" y="842" on="1"/>
        <pt x="48" y="716" on="1"/>
      </contour>
    </TTGlyph>
    <TTGlyph name="Idieresis" xMin="28" yMin="0" xMax="329" yMax="858">
      <contour>
        <pt x="316" y="668" on="1"/>
        <pt x="316" y="644" on="1"/>
        <pt x="229" y="635" on="1"/>
        <pt x="229" y="33" on="1"/>
        <pt x="316" y="24" on="1"/>
        <pt x="316" y="0" on="1"/>
        <pt x="39" y="0" on="1"/>
        <pt x="39" y="24" on="1"/>
        <pt x="126" y="33" on="1"/>
        <pt x="126" y="635" on="1"/>
        <pt x="39" y="644" on="1"/>
        <pt x="39" y="668" on="1"/>
      </contour>
      <contour>
        <pt x="143" y="776" on="0"/>
        <pt x="110" y="742" on="0"/>
        <pt x="61" y="742" on="0"/>
        <pt x="28" y="775" on="0"/>
        <pt x="28" y="824" on="0"/>
        <pt x="61" y="858" on="0"/>
        <pt x="110" y="858" on="0"/>
        <pt x="143" y="824" on="0"/>
      </contour>
      <contour>
        <pt x="329" y="776" on="0"/>
        <pt x="296" y="742" on="0"/>
        <pt x="247" y="742" on="0"/>
        <pt x="214" y="775" on="0"/>
        <pt x="214" y="824" on="0"/>
        <pt x="247" y="858" on="0"/>
        <pt x="296" y="858" on="0"/>
        <pt x="329" y="824" on="0"/>
      </contour>
    </TTGlyph>
    <TTGlyph name="Igrave" xMin="39" yMin="0" xMax="316" yMax="904">
      <contour>
        <pt x="316" y="668" on="1"/>
        <pt x="316" y="644" on="1"/>
        <pt x="229" y="635" on="1"/>
        <pt x="229" y="33" on="1"/>
        <pt x="316" y="24" on="1"/>
        <pt x="316" y="0" on="1"/>
        <pt x="39" y="0" on="1"/>
        <pt x="39" y="24" on="1"/>
        <pt x="126" y="33" on="1"/>
        <pt x="126" y="635" on="1"/>
        <pt x="39" y="644" on="1"/>
        <pt x="39" y="668" on="1"/>
      </contour>
      <contour>
        <pt x="86" y="815" on="1"/>
        <pt x="68" y="829" on="0"/>
        <pt x="68" y="839" on="1"/>
        <pt x="68" y="866" on="0"/>
        <pt x="109" y="904" on="1"/>
        <pt x="152" y="863" on="0"/>
        <pt x="270" y="743" on="1"/>
        <pt x="253" y="718" on="1"/>
        <pt x="181" y="755" on="0"/>
      </contour>
    </TTGlyph>
    <TTGlyph name="J" xMin="-148" yMin="-246" xMax="309" yMax="668">
      <contour>
        <pt x="119" y="-3" on="1"/>
        <pt x="119" y="635" on="1"/>
        <pt x="32" y="644" on="1"/>
        <pt x="32" y="668" on="1"/>
        <pt x="309" y="668" on="1"/>
        <pt x="309" y="644" on="1"/>
        <pt x="222" y="635" on="1"/>
        <pt x="222" y="53" on="1"/>
        <pt x="222" y="-166" on="0"/>
        <pt x="101" y="-224" on="1"/>
        <pt x="54" y="-246" on="0"/>
        <pt x="-68" y="-246" on="0"/>
        <pt x="-148" y="-204" on="0"/>
        <pt x="-148" y="-154" on="1"/>
        <pt x="-148" y="-133" on="0"/>
        <pt x="-111" y="-102" on="0"/>
        <pt x="-69" y="-102" on="0"/>
        <pt x="-56" y="-106" on="1"/>
        <pt x="-62" y="-127" on="0"/>
        <pt x="-62" y="-145" on="1"/>
        <pt x="-62" y="-212" on="0"/>
        <pt x="2" y="-212" on="1"/>
        <pt x="119" y="-212" on="0"/>
      </contour>
    </TTGlyph>
    <TTGlyph name="K" xMin="39" yMin="0" xMax="717" yMax="668">
      <contour>
        <pt x="447" y="668" on="1"/>
        <pt x="650" y="668" on="1"/>
        <pt x="650" y="645" on="1"/>
        <pt x="568" y="618" on="1"/>
        <pt x="309" y="372" on="1"/>
        <pt x="637" y="35" on="1"/>
        <pt x="717" y="28" on="1"/>
        <pt x="717" y="0" on="1"/>
        <pt x="427" y="0" on="1"/>
        <pt x="427" y="28" on="1"/>
        <pt x="498" y="34" on="1"/>
        <pt x="229" y="320" on="1"/>
        <pt x="229" y="33" on="1"/>
        <pt x="316" y="24" on="1"/>
        <pt x="316" y="0" on="1"/>
        <pt x="39" y="0" on="1"/>
        <pt x="39" y="24" on="1"/>
        <pt x="126" y="33" on="1"/>
        <pt x="126" y="635" on="1"/>
        <pt x="39" y="644" on="1"/>
        <pt x="39" y="668" on="1"/>
        <pt x="316" y="668" on="1"/>
        <pt x="316" y="644" on="1"/>
        <pt x="229" y="635" on="1"/>
        <pt x="229" y="349" on="1"/>
        <pt x="518" y="622" on="1"/>
        <pt x="447" y="644" on="1"/>
      </contour>
    </TTGlyph>
    <TTGlyph name="L" xMin="39" yMin="0" xMax="554" yMax="668">
      <contour>
        <pt x="39" y="668" on="1"/>
        <pt x="316" y="668" on="1"/>
        <pt x="316" y="644" on="1"/>
        <pt x="229" y="635" on="1"/>
        <pt x="229" y="32" on="1"/>
        <pt x="481" y="35" on="1"/>
        <pt x="528" y="149" on="1"/>
        <pt x="554" y="149" on="1"/>
        <pt x="542" y="0" on="1"/>
        <pt x="39" y="0" on="1"/>
        <pt x="39" y="24" on="1"/>
        <pt x="126" y="33" on="1"/>
        <pt x="126" y="635" on="1"/>
        <pt x="39" y="644" on="1"/>
      </contour>
    </TTGlyph>
    <TTGlyph name="M" xMin="34" yMin="0" xMax="872" yMax="668">
      <contour>
        <pt x="858" y="668" on="1"/>
        <pt x="858" y="645" on="1"/>
        <pt x="773" y="635" on="1"/>
        <pt x="795" y="30" on="1"/>
        <pt x="872" y="24" on="1"/>
        <pt x="872" y="0" on="1"/>
        <pt x="618" y="0" on="1"/>
        <pt x="618" y="21" on="1"/>
        <pt x="694" y="30" on="1"/>
        <pt x="668" y="546" on="1"/>
        <pt x="467" y="0" on="1"/>
        <pt x="414" y="0" on="1"/>
        <pt x="174" y="541" on="1"/>
        <pt x="155" y="49" on="1"/>
        <pt x="239" y="24" on="1"/>
        <pt x="239" y="0" on="1"/>
        <pt x="34" y="0" on="1"/>
        <pt x="34" y="24" on="1"/>
        <pt x="117" y="53" on="1"/>
        <pt x="137" y="635" on="1"/>
        <pt x="52" y="645" on="1"/>
        <pt x="52" y="668" on="1"/>
        <pt x="229" y="668" on="1"/>
        <pt x="467" y="111" on="1"/>
        <pt x="672" y="668" on="1"/>
      </contour>
    </TTGlyph>
    <TTGlyph name="N" xMin="38" yMin="0" xMax="751" yMax="668">
      <contour>
        <pt x="549" y="668" on="1"/>
        <pt x="751" y="668" on="1"/>
        <pt x="751" y="644" on="1"/>
        <pt x="681" y="621" on="1"/>
        <pt x="681" y="0" on="1"/>
        <pt x="626" y="0" on="1"/>
        <pt x="168" y="549" on="1"/>
        <pt x="168" y="49" on="1"/>
        <pt x="251" y="24" on="1"/>
        <pt x="251" y="0" on="1"/>
        <pt x="45" y="0" on="1"/>
        <pt x="45" y="24" on="1"/>
        <pt x="125" y="49" on="1"/>
        <pt x="125" y="635" on="1"/>
        <pt x="38" y="645" on="1"/>
        <pt x="38" y="668" on="1"/>
        <pt x="202" y="668" on="1"/>
        <pt x="626" y="155" on="1"/>
        <pt x="626" y="621" on="1"/>
        <pt x="549" y="644" on="1"/>
      </contour>
    </TTGlyph>
    <TTGlyph name="Ntilde" xMin="38" yMin="0" xMax="751" yMax="859">
      <contour>
        <pt x="549" y="668" on="1"/>
        <pt x="751" y="668" on="1"/>
        <pt x="751" y="644" on="1"/>
        <pt x="681" y="621" on="1"/>
        <pt x="681" y="0" on="1"/>
        <pt x="626" y="0" on="1"/>
        <pt x="168" y="549" on="1"/>
        <pt x="168" y="49" on="1"/>
        <pt x="251" y="24" on="1"/>
        <pt x="251" y="0" on="1"/>
        <pt x="45" y="0" on="1"/>
        <pt x="45" y="24" on="1"/>
        <pt x="125" y="49" on="1"/>
        <pt x="125" y="635" on="1"/>
        <pt x="38" y="645" on="1"/>
        <pt x="38" y="668" on="1"/>
        <pt x="202" y="668" on="1"/>
        <pt x="626" y="155" on="1"/>
        <pt x="626" y="621" on="1"/>
        <pt x="549" y="644" on="1"/>
      </contour>
      <contour>
        <pt x="578" y="800" on="0"/>
        <pt x="518" y="740" on="0"/>
        <pt x="439" y="740" on="0"/>
        <pt x="389" y="769" on="1"/>
        <pt x="340" y="801" on="0"/>
        <pt x="292" y="801" on="0"/>
        <pt x="257" y="772" on="0"/>
        <pt x="252" y="755" on="1"/>
        <pt x="224" y="755" on="1"/>
        <pt x="230" y="800" on="0"/>
        <pt x="290" y="859" on="0"/>
        <pt x="374" y="859" on="0"/>
        <pt x="423" y="829" on="1"/>
        <pt x="470" y="798" on="0"/>
        <pt x="516" y="798" on="0"/>
        <pt x="550" y="827" on="0"/>
        <pt x="556" y="845" on="1"/>
        <pt x="584" y="845" on="1"/>
      </contour>
    </TTGlyph>
    <TTGlyph name="O" xMin="50" yMin="-11" xMax="721" yMax="683">
      <contour>
        <pt x="721" y="186" on="0"/>
        <pt x="539" y="-11" on="0"/>
        <pt x="233" y="-11" on="0"/>
        <pt x="50" y="186" on="0"/>
        <pt x="50" y="486" on="0"/>
        <pt x="233" y="683" on="0"/>
        <pt x="539" y="683" on="0"/>
        <pt x="721" y="486" on="0"/>
      </contour>
      <contour>
        <pt x="387" y="20" on="1"/>
        <pt x="599" y="20" on="0"/>
        <pt x="599" y="336" on="1"/>
        <pt x="599" y="488" on="0"/>
        <pt x="502" y="652" on="0"/>
        <pt x="270" y="652" on="0"/>
        <pt x="172" y="489" on="0"/>
        <pt x="172" y="336" on="1"/>
        <pt x="172" y="20" on="0"/>
      </contour>
    </TTGlyph>
    <TTGlyph name="OE" xMin="51" yMin="-6" xMax="994" yMax="675">
      <contour>
        <pt x="542" y="0" on="1"/>
        <pt x="490" y="-6" on="0"/>
        <pt x="374" y="-6" on="0"/>
        <pt x="267" y="12" on="0"/>
        <pt x="165" y="58" on="0"/>
        <pt x="94" y="130" on="0"/>
        <pt x="51" y="245" on="0"/>
        <pt x="51" y="411" on="0"/>
        <pt x="116" y="552" on="0"/>
        <pt x="172" y="593" on="1"/>
        <pt x="283" y="675" on="0"/>
        <pt x="436" y="675" on="1"/>
        <pt x="478" y="675" on="0"/>
        <pt x="556" y="669" on="1"/>
        <pt x="950" y="668" on="1"/>
        <pt x="951" y="526" on="1"/>
        <pt x="925" y="526" on="1"/>
        <pt x="891" y="632" on="1"/>
        <pt x="661" y="635" on="1"/>
        <pt x="661" y="366" on="1"/>
        <pt x="863" y="366" on="1"/>
        <pt x="894" y="440" on="1"/>
        <pt x="914" y="440" on="1"/>
        <pt x="914" y="254" on="1"/>
        <pt x="893" y="254" on="1"/>
        <pt x="863" y="330" on="1"/>
        <pt x="661" y="330" on="1"/>
        <pt x="661" y="32" on="1"/>
        <pt x="921" y="35" on="1"/>
        <pt x="968" y="149" on="1"/>
        <pt x="994" y="149" on="1"/>
        <pt x="982" y="0" on="1"/>
      </contour>
      <contour>
        <pt x="450" y="30" on="1"/>
        <pt x="509" y="30" on="0"/>
        <pt x="558" y="42" on="1"/>
        <pt x="558" y="624" on="1"/>
        <pt x="513" y="638" on="0"/>
        <pt x="454" y="638" on="1"/>
        <pt x="333" y="638" on="0"/>
        <pt x="174" y="479" on="0"/>
        <pt x="174" y="175" on="0"/>
        <pt x="329" y="30" on="0"/>
      </contour>
    </TTGlyph>
    <TTGlyph name="Oacute" xMin="50" yMin="-11" xMax="721" yMax="904">
      <contour>
        <pt x="721" y="186" on="0"/>
        <pt x="539" y="-11" on="0"/>
        <pt x="233" y="-11" on="0"/>
        <pt x="50" y="186" on="0"/>
        <pt x="50" y="486" on="0"/>
        <pt x="233" y="683" on="0"/>
        <pt x="539" y="683" on="0"/>
        <pt x="721" y="486" on="0"/>
      </contour>
      <contour>
        <pt x="387" y="20" on="1"/>
        <pt x="599" y="20" on="0"/>
        <pt x="599" y="336" on="1"/>
        <pt x="599" y="488" on="0"/>
        <pt x="502" y="652" on="0"/>
        <pt x="270" y="652" on="0"/>
        <pt x="172" y="489" on="0"/>
        <pt x="172" y="336" on="1"/>
        <pt x="172" y="20" on="0"/>
      </contour>
      <contour>
        <pt x="459" y="904" on="1"/>
        <pt x="500" y="866" on="0"/>
        <pt x="500" y="841" on="1"/>
        <pt x="500" y="829" on="0"/>
        <pt x="482" y="815" on="1"/>
        <pt x="387" y="755" on="0"/>
        <pt x="315" y="718" on="1"/>
        <pt x="298" y="743" on="1"/>
        <pt x="416" y="863" on="0"/>
      </contour>
    </TTGlyph>
    <TTGlyph name="Ocircumflex" xMin="50" yMin="-11" xMax="721" yMax="921">
      <contour>
        <pt x="721" y="186" on="0"/>
        <pt x="539" y="-11" on="0"/>
        <pt x="233" y="-11" on="0"/>
        <pt x="50" y="186" on="0"/>
        <pt x="50" y="486" on="0"/>
        <pt x="233" y="683" on="0"/>
        <pt x="539" y="683" on="0"/>
        <pt x="721" y="486" on="0"/>
      </contour>
      <contour>
        <pt x="387" y="20" on="1"/>
        <pt x="599" y="20" on="0"/>
        <pt x="599" y="336" on="1"/>
        <pt x="599" y="488" on="0"/>
        <pt x="502" y="652" on="0"/>
        <pt x="270" y="652" on="0"/>
        <pt x="172" y="489" on="0"/>
        <pt x="172" y="336" on="1"/>
        <pt x="172" y="20" on="0"/>
      </contour>
      <contour>
        <pt x="227" y="735" on="1"/>
        <pt x="364" y="921" on="1"/>
        <pt x="414" y="921" on="1"/>
        <pt x="550" y="735" on="1"/>
        <pt x="519" y="716" on="1"/>
        <pt x="389" y="842" on="1"/>
        <pt x="258" y="716" on="1"/>
      </contour>
    </TTGlyph>
    <TTGlyph name="Odieresis" xMin="50" yMin="-11" xMax="721" yMax="858">
      <contour>
        <pt x="721" y="186" on="0"/>
        <pt x="539" y="-11" on="0"/>
        <pt x="233" y="-11" on="0"/>
        <pt x="50" y="186" on="0"/>
        <pt x="50" y="486" on="0"/>
        <pt x="233" y="683" on="0"/>
        <pt x="539" y="683" on="0"/>
        <pt x="721" y="486" on="0"/>
      </contour>
      <contour>
        <pt x="387" y="20" on="1"/>
        <pt x="599" y="20" on="0"/>
        <pt x="599" y="336" on="1"/>
        <pt x="599" y="488" on="0"/>
        <pt x="502" y="652" on="0"/>
        <pt x="270" y="652" on="0"/>
        <pt x="172" y="489" on="0"/>
        <pt x="172" y="336" on="1"/>
        <pt x="172" y="20" on="0"/>
      </contour>
      <contour>
        <pt x="346" y="776" on="0"/>
        <pt x="313" y="742" on="0"/>
        <pt x="264" y="742" on="0"/>
        <pt x="231" y="775" on="0"/>
        <pt x="231" y="824" on="0"/>
        <pt x="264" y="858" on="0"/>
        <pt x="313" y="858" on="0"/>
        <pt x="346" y="824" on="0"/>
      </contour>
      <contour>
        <pt x="532" y="776" on="0"/>
        <pt x="499" y="742" on="0"/>
        <pt x="450" y="742" on="0"/>
        <pt x="417" y="775" on="0"/>
        <pt x="417" y="824" on="0"/>
        <pt x="450" y="858" on="0"/>
        <pt x="499" y="858" on="0"/>
        <pt x="532" y="824" on="0"/>
      </contour>
    </TTGlyph>
    <TTGlyph name="Ograve" xMin="50" yMin="-11" xMax="721" yMax="904">
      <contour>
        <pt x="721" y="186" on="0"/>
        <pt x="539" y="-11" on="0"/>
        <pt x="233" y="-11" on="0"/>
        <pt x="50" y="186" on="0"/>
        <pt x="50" y="486" on="0"/>
        <pt x="233" y="683" on="0"/>
        <pt x="539" y="683" on="0"/>
        <pt x="721" y="486" on="0"/>
      </contour>
      <contour>
        <pt x="387" y="20" on="1"/>
        <pt x="599" y="20" on="0"/>
        <pt x="599" y="336" on="1"/>
        <pt x="599" y="488" on="0"/>
        <pt x="502" y="652" on="0"/>
        <pt x="270" y="652" on="0"/>
        <pt x="172" y="489" on="0"/>
        <pt x="172" y="336" on="1"/>
        <pt x="172" y="20" on="0"/>
      </contour>
      <contour>
        <pt x="308" y="815" on="1"/>
        <pt x="290" y="829" on="0"/>
        <pt x="290" y="839" on="1"/>
        <pt x="290" y="866" on="0"/>
        <pt x="331" y="904" on="1"/>
        <pt x="374" y="863" on="0"/>
        <pt x="492" y="743" on="1"/>
        <pt x="475" y="718" on="1"/>
        <pt x="403" y="755" on="0"/>
      </contour>
    </TTGlyph>
    <TTGlyph name="Oslash" xMin="41" yMin="-11" xMax="735" yMax="683">
      <contour>
        <pt x="735" y="647" on="1"/>
        <pt x="109" y="0" on="1"/>
        <pt x="41" y="0" on="1"/>
        <pt x="699" y="682" on="1"/>
      </contour>
      <contour>
        <pt x="721" y="186" on="0"/>
        <pt x="539" y="-11" on="0"/>
        <pt x="233" y="-11" on="0"/>
        <pt x="50" y="186" on="0"/>
        <pt x="50" y="486" on="0"/>
        <pt x="233" y="683" on="0"/>
        <pt x="539" y="683" on="0"/>
        <pt x="721" y="486" on="0"/>
      </contour>
      <contour>
        <pt x="387" y="20" on="1"/>
        <pt x="599" y="20" on="0"/>
        <pt x="599" y="336" on="1"/>
        <pt x="599" y="488" on="0"/>
        <pt x="502" y="652" on="0"/>
        <pt x="270" y="652" on="0"/>
        <pt x="172" y="489" on="0"/>
        <pt x="172" y="336" on="1"/>
        <pt x="172" y="20" on="0"/>
      </contour>
    </TTGlyph>
    <TTGlyph name="Otilde" xMin="50" yMin="-11" xMax="721" yMax="859">
      <contour>
        <pt x="721" y="186" on="0"/>
        <pt x="539" y="-11" on="0"/>
        <pt x="233" y="-11" on="0"/>
        <pt x="50" y="186" on="0"/>
        <pt x="50" y="486" on="0"/>
        <pt x="233" y="683" on="0"/>
        <pt x="539" y="683" on="0"/>
        <pt x="721" y="486" on="0"/>
      </contour>
      <contour>
        <pt x="387" y="20" on="1"/>
        <pt x="599" y="20" on="0"/>
        <pt x="599" y="336" on="1"/>
        <pt x="599" y="488" on="0"/>
        <pt x="502" y="652" on="0"/>
        <pt x="270" y="652" on="0"/>
        <pt x="172" y="489" on="0"/>
        <pt x="172" y="336" on="1"/>
        <pt x="172" y="20" on="0"/>
      </contour>
      <contour>
        <pt x="565" y="800" on="0"/>
        <pt x="505" y="740" on="0"/>
        <pt x="427" y="740" on="0"/>
        <pt x="377" y="769" on="1"/>
        <pt x="328" y="801" on="0"/>
        <pt x="280" y="801" on="0"/>
        <pt x="245" y="772" on="0"/>
        <pt x="240" y="755" on="1"/>
        <pt x="212" y="755" on="1"/>
        <pt x="218" y="800" on="0"/>
        <pt x="278" y="859" on="0"/>
        <pt x="362" y="859" on="0"/>
        <pt x="411" y="829" on="1"/>
        <pt x="458" y="798" on="0"/>
        <pt x="504" y="798" on="0"/>
        <pt x="538" y="827" on="0"/>
        <pt x="543" y="845" on="1"/>
        <pt x="572" y="845" on="1"/>
      </contour>
    </TTGlyph>
    <TTGlyph name="P" xMin="36" yMin="0" xMax="569" yMax="673">
      <contour>
        <pt x="569" y="501" on="1"/>
        <pt x="569" y="445" on="0"/>
        <pt x="521" y="365" on="0"/>
        <pt x="480" y="344" on="1"/>
        <pt x="403" y="306" on="0"/>
        <pt x="296" y="306" on="1"/>
        <pt x="270" y="306" on="0"/>
        <pt x="226" y="310" on="1"/>
        <pt x="226" y="29" on="1"/>
        <pt x="303" y="24" on="1"/>
        <pt x="303" y="0" on="1"/>
        <pt x="48" y="0" on="1"/>
        <pt x="48" y="24" on="1"/>
        <pt x="123" y="29" on="1"/>
        <pt x="123" y="635" on="1"/>
        <pt x="36" y="646" on="1"/>
        <pt x="36" y="670" on="1"/>
        <pt x="223" y="670" on="1"/>
        <pt x="342" y="673" on="1"/>
        <pt x="569" y="673" on="0"/>
      </contour>
      <contour>
        <pt x="270" y="337" on="1"/>
        <pt x="361" y="337" on="0"/>
        <pt x="459" y="425" on="0"/>
        <pt x="459" y="574" on="0"/>
        <pt x="389" y="643" on="0"/>
        <pt x="312" y="643" on="1"/>
        <pt x="278" y="643" on="0"/>
        <pt x="226" y="639" on="1"/>
        <pt x="226" y="339" on="1"/>
        <pt x="241" y="337" on="0"/>
      </contour>
    </TTGlyph>
    <TTGlyph name="Q" xMin="51" yMin="-229" xMax="764" yMax="683">
      <contour>
        <pt x="286" y="-90" on="1"/>
        <pt x="318" y="-77" on="0"/>
        <pt x="423" y="-77" on="0"/>
        <pt x="628" y="-156" on="0"/>
        <pt x="662" y="-156" on="1"/>
        <pt x="711" y="-156" on="0"/>
        <pt x="741" y="-98" on="1"/>
        <pt x="764" y="-108" on="1"/>
        <pt x="720" y="-229" on="0"/>
        <pt x="603" y="-229" on="1"/>
        <pt x="537" y="-229" on="0"/>
        <pt x="224" y="-120" on="0"/>
        <pt x="154" y="-120" on="1"/>
        <pt x="157" y="-105" on="1"/>
        <pt x="267" y="-76" on="0"/>
        <pt x="370" y="-14" on="1"/>
        <pt x="223" y="-8" on="0"/>
        <pt x="51" y="187" on="0"/>
        <pt x="51" y="486" on="0"/>
        <pt x="233" y="683" on="0"/>
        <pt x="541" y="683" on="0"/>
        <pt x="722" y="485" on="0"/>
        <pt x="722" y="193" on="0"/>
        <pt x="563" y="0" on="0"/>
        <pt x="427" y="-13" on="1"/>
        <pt x="333" y="-68" on="0"/>
        <pt x="285" y="-88" on="1"/>
      </contour>
      <contour>
        <pt x="388" y="16" on="1"/>
        <pt x="600" y="16" on="0"/>
        <pt x="600" y="334" on="1"/>
        <pt x="600" y="488" on="0"/>
        <pt x="503" y="652" on="0"/>
        <pt x="271" y="652" on="0"/>
        <pt x="173" y="488" on="0"/>
        <pt x="173" y="334" on="1"/>
        <pt x="173" y="16" on="0"/>
      </contour>
    </TTGlyph>
    <TTGlyph name="R" xMin="36" yMin="-23" xMax="662" yMax="673">
      <contour>
        <pt x="226" y="352" on="1"/>
        <pt x="276" y="352" on="1"/>
        <pt x="455" y="352" on="0"/>
        <pt x="455" y="502" on="1"/>
        <pt x="455" y="576" on="0"/>
        <pt x="385" y="643" on="0"/>
        <pt x="308" y="643" on="1"/>
        <pt x="278" y="643" on="0"/>
        <pt x="226" y="639" on="1"/>
      </contour>
      <contour>
        <pt x="224" y="670" on="1"/>
        <pt x="338" y="673" on="1"/>
        <pt x="565" y="673" on="0"/>
        <pt x="565" y="502" on="1"/>
        <pt x="565" y="428" on="0"/>
        <pt x="464" y="333" on="0"/>
        <pt x="384" y="333" on="1"/>
        <pt x="377" y="333" on="0"/>
        <pt x="359" y="335" on="1"/>
        <pt x="359" y="333" on="1"/>
        <pt x="466" y="318" on="0"/>
        <pt x="547" y="209" on="0"/>
        <pt x="547" y="97" on="1"/>
        <pt x="547" y="27" on="0"/>
        <pt x="573" y="16" on="1"/>
        <pt x="585" y="8" on="0"/>
        <pt x="628" y="8" on="0"/>
        <pt x="662" y="21" on="1"/>
        <pt x="662" y="-4" on="1"/>
        <pt x="609" y="-23" on="0"/>
        <pt x="565" y="-23" on="1"/>
        <pt x="467" y="-23" on="0"/>
        <pt x="444" y="61" on="1"/>
        <pt x="438" y="83" on="0"/>
        <pt x="437" y="163" on="0"/>
        <pt x="431" y="225" on="0"/>
        <pt x="420" y="256" on="1"/>
        <pt x="395" y="323" on="0"/>
        <pt x="282" y="323" on="1"/>
        <pt x="226" y="323" on="1"/>
        <pt x="226" y="29" on="1"/>
        <pt x="303" y="22" on="1"/>
        <pt x="303" y="0" on="1"/>
        <pt x="48" y="0" on="1"/>
        <pt x="48" y="21" on="1"/>
        <pt x="123" y="29" on="1"/>
        <pt x="123" y="637" on="1"/>
        <pt x="36" y="647" on="1"/>
        <pt x="36" y="673" on="1"/>
        <pt x="100" y="670" on="0"/>
        <pt x="173" y="670" on="1"/>
      </contour>
    </TTGlyph>
    <TTGlyph name="S" xMin="39" yMin="-12" xMax="526" yMax="684">
      <contour>
        <pt x="421" y="635" on="1"/>
        <pt x="367" y="654" on="0"/>
        <pt x="253" y="654" on="0"/>
        <pt x="167" y="589" on="0"/>
        <pt x="167" y="525" on="1"/>
        <pt x="167" y="463" on="0"/>
        <pt x="220" y="430" on="1"/>
        <pt x="249" y="412" on="0"/>
        <pt x="286" y="396" on="0"/>
        <pt x="357" y="370" on="0"/>
        <pt x="383" y="359" on="0"/>
        <pt x="434" y="336" on="0"/>
        <pt x="459" y="318" on="0"/>
        <pt x="495" y="286" on="0"/>
        <pt x="504" y="270" on="1"/>
        <pt x="526" y="229" on="0"/>
        <pt x="526" y="181" on="1"/>
        <pt x="526" y="96" on="0"/>
        <pt x="388" y="-12" on="0"/>
        <pt x="278" y="-12" on="1"/>
        <pt x="194" y="-12" on="0"/>
        <pt x="121" y="16" on="1"/>
        <pt x="85" y="29" on="0"/>
        <pt x="39" y="75" on="0"/>
        <pt x="39" y="105" on="1"/>
        <pt x="39" y="154" on="0"/>
        <pt x="110" y="172" on="1"/>
        <pt x="121" y="112" on="0"/>
        <pt x="183" y="38" on="0"/>
        <pt x="250" y="14" on="0"/>
        <pt x="347" y="14" on="0"/>
        <pt x="433" y="77" on="0"/>
        <pt x="433" y="149" on="1"/>
        <pt x="433" y="204" on="0"/>
        <pt x="383" y="239" on="1"/>
        <pt x="343" y="266" on="0"/>
        <pt x="226" y="314" on="0"/>
        <pt x="186" y="331" on="0"/>
        <pt x="123" y="368" on="0"/>
        <pt x="108" y="386" on="1"/>
        <pt x="69" y="433" on="0"/>
        <pt x="69" y="494" on="1"/>
        <pt x="69" y="588" on="0"/>
        <pt x="203" y="684" on="0"/>
        <pt x="321" y="684" on="1"/>
        <pt x="392" y="684" on="0"/>
        <pt x="486" y="668" on="1"/>
        <pt x="486" y="521" on="1"/>
        <pt x="455" y="521" on="1"/>
      </contour>
    </TTGlyph>
    <TTGlyph name="Scaron" xMin="39" yMin="-12" xMax="526" yMax="929">
      <contour>
        <pt x="486" y="521" on="1"/>
        <pt x="455" y="521" on="1"/>
        <pt x="421" y="635" on="1"/>
        <pt x="367" y="654" on="0"/>
        <pt x="253" y="654" on="0"/>
        <pt x="167" y="589" on="0"/>
        <pt x="167" y="463" on="0"/>
        <pt x="220" y="430" on="1"/>
        <pt x="249" y="412" on="0"/>
        <pt x="286" y="396" on="0"/>
        <pt x="365" y="367" on="0"/>
        <pt x="408" y="348" on="1"/>
        <pt x="434" y="336" on="0"/>
        <pt x="459" y="318" on="0"/>
        <pt x="477" y="302" on="1"/>
        <pt x="526" y="258" on="0"/>
        <pt x="526" y="181" on="1"/>
        <pt x="526" y="96" on="0"/>
        <pt x="388" y="-12" on="0"/>
        <pt x="278" y="-12" on="1"/>
        <pt x="194" y="-12" on="0"/>
        <pt x="121" y="16" on="1"/>
        <pt x="85" y="29" on="0"/>
        <pt x="39" y="75" on="0"/>
        <pt x="39" y="105" on="1"/>
        <pt x="39" y="154" on="0"/>
        <pt x="110" y="172" on="1"/>
        <pt x="121" y="112" on="0"/>
        <pt x="183" y="38" on="0"/>
        <pt x="250" y="14" on="0"/>
        <pt x="347" y="14" on="0"/>
        <pt x="433" y="77" on="0"/>
        <pt x="433" y="149" on="1"/>
        <pt x="433" y="204" on="0"/>
        <pt x="383" y="239" on="1"/>
        <pt x="357" y="257" on="0"/>
        <pt x="307" y="281" on="0"/>
        <pt x="226" y="314" on="0"/>
        <pt x="186" y="331" on="0"/>
        <pt x="154" y="350" on="1"/>
        <pt x="69" y="400" on="0"/>
        <pt x="69" y="494" on="1"/>
        <pt x="69" y="588" on="0"/>
        <pt x="203" y="684" on="0"/>
        <pt x="321" y="684" on="1"/>
        <pt x="392" y="684" on="0"/>
        <pt x="486" y="668" on="1"/>
      </contour>
      <contour>
        <pt x="452" y="910" on="1"/>
        <pt x="315" y="724" on="1"/>
        <pt x="265" y="724" on="1"/>
        <pt x="129" y="910" on="1"/>
        <pt x="160" y="929" on="1"/>
        <pt x="290" y="803" on="1"/>
        <pt x="421" y="929" on="1"/>
      </contour>
    </TTGlyph>
    <TTGlyph name="T" xMin="21" yMin="0" xMax="605" yMax="669">
      <contour>
        <pt x="605" y="516" on="1"/>
        <pt x="575" y="516" on="1"/>
        <pt x="541" y="631" on="1"/>
        <pt x="364" y="633" on="1"/>
        <pt x="364" y="33" on="1"/>
        <pt x="457" y="24" on="1"/>
        <pt x="457" y="0" on="1"/>
        <pt x="168" y="0" on="1"/>
        <pt x="168" y="24" on="1"/>
        <pt x="261" y="33" on="1"/>
        <pt x="261" y="633" on="1"/>
        <pt x="84" y="631" on="1"/>
        <pt x="50" y="516" on="1"/>
        <pt x="21" y="516" on="1"/>
        <pt x="21" y="667" on="1"/>
        <pt x="313" y="669" on="1"/>
        <pt x="605" y="667" on="1"/>
      </contour>
    </TTGlyph>
    <TTGlyph name="Thorn" xMin="39" yMin="0" xMax="529" yMax="668">
      <contour>
        <pt x="316" y="0" on="1"/>
        <pt x="39" y="0" on="1"/>
        <pt x="39" y="24" on="1"/>
        <pt x="126" y="33" on="1"/>
        <pt x="126" y="635" on="1"/>
        <pt x="39" y="644" on="1"/>
        <pt x="39" y="668" on="1"/>
        <pt x="316" y="668" on="1"/>
        <pt x="316" y="644" on="1"/>
        <pt x="229" y="635" on="1"/>
        <pt x="229" y="525" on="1"/>
        <pt x="304" y="525" on="1"/>
        <pt x="407" y="525" on="0"/>
        <pt x="529" y="437" on="0"/>
        <pt x="529" y="264" on="0"/>
        <pt x="399" y="161" on="0"/>
        <pt x="284" y="161" on="1"/>
        <pt x="229" y="164" on="1"/>
        <pt x="229" y="33" on="1"/>
        <pt x="316" y="24" on="1"/>
      </contour>
      <contour>
        <pt x="229" y="487" on="1"/>
        <pt x="229" y="201" on="1"/>
        <pt x="252" y="199" on="0"/>
        <pt x="273" y="199" on="1"/>
        <pt x="342" y="199" on="0"/>
        <pt x="422" y="276" on="0"/>
        <pt x="422" y="416" on="0"/>
        <pt x="340" y="487" on="0"/>
        <pt x="276" y="487" on="1"/>
      </contour>
    </TTGlyph>
    <TTGlyph name="U" xMin="27" yMin="-12" xMax="698" yMax="668">
      <contour>
        <pt x="208" y="240" on="1"/>
        <pt x="208" y="128" on="0"/>
        <pt x="295" y="23" on="0"/>
        <pt x="483" y="23" on="0"/>
        <pt x="574" y="123" on="0"/>
        <pt x="574" y="243" on="1"/>
        <pt x="574" y="629" on="1"/>
        <pt x="500" y="639" on="1"/>
        <pt x="500" y="668" on="1"/>
        <pt x="698" y="668" on="1"/>
        <pt x="698" y="637" on="1"/>
        <pt x="617" y="629" on="1"/>
        <pt x="617" y="234" on="1"/>
        <pt x="617" y="159" on="0"/>
        <pt x="576" y="68" on="0"/>
        <pt x="526" y="20" on="0"/>
        <pt x="438" y="-12" on="0"/>
        <pt x="379" y="-12" on="1"/>
        <pt x="241" y="-12" on="0"/>
        <pt x="106" y="99" on="0"/>
        <pt x="106" y="220" on="1"/>
        <pt x="106" y="635" on="1"/>
        <pt x="27" y="642" on="1"/>
        <pt x="27" y="668" on="1"/>
        <pt x="298" y="668" on="1"/>
        <pt x="298" y="642" on="1"/>
        <pt x="208" y="635" on="1"/>
      </contour>
    </TTGlyph>
    <TTGlyph name="Uacute" xMin="27" yMin="-12" xMax="698" yMax="904">
      <contour>
        <pt x="208" y="240" on="1"/>
        <pt x="208" y="128" on="0"/>
        <pt x="295" y="23" on="0"/>
        <pt x="483" y="23" on="0"/>
        <pt x="574" y="123" on="0"/>
        <pt x="574" y="243" on="1"/>
        <pt x="574" y="629" on="1"/>
        <pt x="500" y="639" on="1"/>
        <pt x="500" y="668" on="1"/>
        <pt x="698" y="668" on="1"/>
        <pt x="698" y="637" on="1"/>
        <pt x="617" y="629" on="1"/>
        <pt x="617" y="234" on="1"/>
        <pt x="617" y="159" on="0"/>
        <pt x="576" y="68" on="0"/>
        <pt x="526" y="20" on="0"/>
        <pt x="438" y="-12" on="0"/>
        <pt x="379" y="-12" on="1"/>
        <pt x="241" y="-12" on="0"/>
        <pt x="106" y="99" on="0"/>
        <pt x="106" y="220" on="1"/>
        <pt x="106" y="635" on="1"/>
        <pt x="27" y="642" on="1"/>
        <pt x="27" y="668" on="1"/>
        <pt x="298" y="668" on="1"/>
        <pt x="298" y="642" on="1"/>
        <pt x="208" y="635" on="1"/>
      </contour>
      <contour>
        <pt x="458" y="904" on="1"/>
        <pt x="499" y="866" on="0"/>
        <pt x="499" y="841" on="1"/>
        <pt x="499" y="829" on="0"/>
        <pt x="481" y="815" on="1"/>
        <pt x="386" y="755" on="0"/>
        <pt x="314" y="718" on="1"/>
        <pt x="297" y="743" on="1"/>
        <pt x="415" y="863" on="0"/>
      </contour>
    </TTGlyph>
    <TTGlyph name="Ucircumflex" xMin="27" yMin="-12" xMax="698" yMax="921">
      <contour>
        <pt x="208" y="240" on="1"/>
        <pt x="208" y="128" on="0"/>
        <pt x="295" y="23" on="0"/>
        <pt x="483" y="23" on="0"/>
        <pt x="574" y="123" on="0"/>
        <pt x="574" y="243" on="1"/>
        <pt x="574" y="629" on="1"/>
        <pt x="500" y="639" on="1"/>
        <pt x="500" y="668" on="1"/>
        <pt x="698" y="668" on="1"/>
        <pt x="698" y="637" on="1"/>
        <pt x="617" y="629" on="1"/>
        <pt x="617" y="234" on="1"/>
        <pt x="617" y="159" on="0"/>
        <pt x="576" y="68" on="0"/>
        <pt x="526" y="20" on="0"/>
        <pt x="438" y="-12" on="0"/>
        <pt x="379" y="-12" on="1"/>
        <pt x="241" y="-12" on="0"/>
        <pt x="106" y="99" on="0"/>
        <pt x="106" y="220" on="1"/>
        <pt x="106" y="635" on="1"/>
        <pt x="27" y="642" on="1"/>
        <pt x="27" y="668" on="1"/>
        <pt x="298" y="668" on="1"/>
        <pt x="298" y="642" on="1"/>
        <pt x="208" y="635" on="1"/>
      </contour>
      <contour>
        <pt x="214" y="735" on="1"/>
        <pt x="351" y="921" on="1"/>
        <pt x="401" y="921" on="1"/>
        <pt x="537" y="735" on="1"/>
        <pt x="506" y="716" on="1"/>
        <pt x="376" y="842" on="1"/>
        <pt x="245" y="716" on="1"/>
      </contour>
    </TTGlyph>
    <TTGlyph name="Udieresis" xMin="27" yMin="-12" xMax="698" yMax="858">
      <contour>
        <pt x="208" y="240" on="1"/>
        <pt x="208" y="128" on="0"/>
        <pt x="295" y="23" on="0"/>
        <pt x="483" y="23" on="0"/>
        <pt x="574" y="123" on="0"/>
        <pt x="574" y="243" on="1"/>
        <pt x="574" y="629" on="1"/>
        <pt x="500" y="639" on="1"/>
        <pt x="500" y="668" on="1"/>
        <pt x="698" y="668" on="1"/>
        <pt x="698" y="637" on="1"/>
        <pt x="617" y="629" on="1"/>
        <pt x="617" y="234" on="1"/>
        <pt x="617" y="159" on="0"/>
        <pt x="576" y="68" on="0"/>
        <pt x="526" y="20" on="0"/>
        <pt x="438" y="-12" on="0"/>
        <pt x="379" y="-12" on="1"/>
        <pt x="241" y="-12" on="0"/>
        <pt x="106" y="99" on="0"/>
        <pt x="106" y="220" on="1"/>
        <pt x="106" y="635" on="1"/>
        <pt x="27" y="642" on="1"/>
        <pt x="27" y="668" on="1"/>
        <pt x="298" y="668" on="1"/>
        <pt x="298" y="642" on="1"/>
        <pt x="208" y="635" on="1"/>
      </contour>
      <contour>
        <pt x="350" y="776" on="0"/>
        <pt x="317" y="742" on="0"/>
        <pt x="268" y="742" on="0"/>
        <pt x="235" y="775" on="0"/>
        <pt x="235" y="824" on="0"/>
        <pt x="268" y="858" on="0"/>
        <pt x="317" y="858" on="0"/>
        <pt x="350" y="824" on="0"/>
      </contour>
      <contour>
        <pt x="536" y="776" on="0"/>
        <pt x="503" y="742" on="0"/>
        <pt x="454" y="742" on="0"/>
        <pt x="421" y="775" on="0"/>
        <pt x="421" y="824" on="0"/>
        <pt x="454" y="858" on="0"/>
        <pt x="503" y="858" on="0"/>
        <pt x="536" y="824" on="0"/>
      </contour>
    </TTGlyph>
    <TTGlyph name="Ugrave" xMin="27" yMin="-12" xMax="698" yMax="904">
      <contour>
        <pt x="208" y="240" on="1"/>
        <pt x="208" y="128" on="0"/>
        <pt x="295" y="23" on="0"/>
        <pt x="483" y="23" on="0"/>
        <pt x="574" y="123" on="0"/>
        <pt x="574" y="243" on="1"/>
        <pt x="574" y="629" on="1"/>
        <pt x="500" y="639" on="1"/>
        <pt x="500" y="668" on="1"/>
        <pt x="698" y="668" on="1"/>
        <pt x="698" y="637" on="1"/>
        <pt x="617" y="629" on="1"/>
        <pt x="617" y="234" on="1"/>
        <pt x="617" y="159" on="0"/>
        <pt x="576" y="68" on="0"/>
        <pt x="526" y="20" on="0"/>
        <pt x="438" y="-12" on="0"/>
        <pt x="379" y="-12" on="1"/>
        <pt x="241" y="-12" on="0"/>
        <pt x="106" y="99" on="0"/>
        <pt x="106" y="220" on="1"/>
        <pt x="106" y="635" on="1"/>
        <pt x="27" y="642" on="1"/>
        <pt x="27" y="668" on="1"/>
        <pt x="298" y="668" on="1"/>
        <pt x="298" y="642" on="1"/>
        <pt x="208" y="635" on="1"/>
      </contour>
      <contour>
        <pt x="272" y="815" on="1"/>
        <pt x="254" y="829" on="0"/>
        <pt x="254" y="839" on="1"/>
        <pt x="254" y="866" on="0"/>
        <pt x="295" y="904" on="1"/>
        <pt x="338" y="863" on="0"/>
        <pt x="456" y="743" on="1"/>
        <pt x="439" y="718" on="1"/>
        <pt x="367" y="755" on="0"/>
      </contour>
    </TTGlyph>
    <TTGlyph name="V" xMin="-25" yMin="-6" xMax="684" yMax="668">
      <contour>
        <pt x="-25" y="668" on="1"/>
        <pt x="245" y="668" on="1"/>
        <pt x="245" y="647" on="1"/>
        <pt x="165" y="636" on="1"/>
        <pt x="368" y="125" on="1"/>
        <pt x="563" y="618" on="1"/>
        <pt x="475" y="644" on="1"/>
        <pt x="475" y="668" on="1"/>
        <pt x="684" y="668" on="1"/>
        <pt x="684" y="644" on="1"/>
        <pt x="608" y="617" on="1"/>
        <pt x="360" y="-6" on="1"/>
        <pt x="315" y="-6" on="1"/>
        <pt x="52" y="636" on="1"/>
        <pt x="-25" y="647" on="1"/>
      </contour>
    </TTGlyph>
    <TTGlyph name="W" xMin="-20" yMin="-6" xMax="1048" yMax="668">
      <contour>
        <pt x="-20" y="668" on="1"/>
        <pt x="250" y="668" on="1"/>
        <pt x="250" y="647" on="1"/>
        <pt x="170" y="638" on="1"/>
        <pt x="353" y="125" on="1"/>
        <pt x="497" y="489" on="1"/>
        <pt x="441" y="638" on="1"/>
        <pt x="364" y="647" on="1"/>
        <pt x="364" y="668" on="1"/>
        <pt x="634" y="668" on="1"/>
        <pt x="634" y="647" on="1"/>
        <pt x="554" y="638" on="1"/>
        <pt x="737" y="125" on="1"/>
        <pt x="927" y="618" on="1"/>
        <pt x="839" y="644" on="1"/>
        <pt x="839" y="668" on="1"/>
        <pt x="1048" y="668" on="1"/>
        <pt x="1048" y="644" on="1"/>
        <pt x="972" y="617" on="1"/>
        <pt x="729" y="-6" on="1"/>
        <pt x="684" y="-6" on="1"/>
        <pt x="518" y="432" on="1"/>
        <pt x="345" y="-6" on="1"/>
        <pt x="300" y="-6" on="1"/>
        <pt x="57" y="638" on="1"/>
        <pt x="-20" y="647" on="1"/>
      </contour>
    </TTGlyph>
    <TTGlyph name="X" xMin="-3" yMin="0" xMax="717" yMax="668">
      <contour>
        <pt x="469" y="668" on="1"/>
        <pt x="691" y="668" on="1"/>
        <pt x="691" y="638" on="1"/>
        <pt x="612" y="616" on="1"/>
        <pt x="402" y="358" on="1"/>
        <pt x="636" y="33" on="1"/>
        <pt x="717" y="24" on="1"/>
        <pt x="717" y="0" on="1"/>
        <pt x="426" y="0" on="1"/>
        <pt x="426" y="24" on="1"/>
        <pt x="507" y="33" on="1"/>
        <pt x="339" y="276" on="1"/>
        <pt x="161" y="51" on="1"/>
        <pt x="247" y="30" on="1"/>
        <pt x="247" y="0" on="1"/>
        <pt x="22" y="0" on="1"/>
        <pt x="22" y="30" on="1"/>
        <pt x="97" y="50" on="1"/>
        <pt x="314" y="316" on="1"/>
        <pt x="69" y="637" on="1"/>
        <pt x="-3" y="644" on="1"/>
        <pt x="-3" y="668" on="1"/>
        <pt x="261" y="668" on="1"/>
        <pt x="261" y="647" on="1"/>
        <pt x="191" y="638" on="1"/>
        <pt x="375" y="395" on="1"/>
        <pt x="553" y="616" on="1"/>
        <pt x="469" y="638" on="1"/>
      </contour>
    </TTGlyph>
    <TTGlyph name="Y" xMin="-32" yMin="0" xMax="658" yMax="668">
      <contour>
        <pt x="470" y="0" on="1"/>
        <pt x="193" y="0" on="1"/>
        <pt x="193" y="24" on="1"/>
        <pt x="280" y="33" on="1"/>
        <pt x="280" y="287" on="1"/>
        <pt x="44" y="635" on="1"/>
        <pt x="-32" y="646" on="1"/>
        <pt x="-32" y="668" on="1"/>
        <pt x="238" y="668" on="1"/>
        <pt x="238" y="647" on="1"/>
        <pt x="161" y="636" on="1"/>
        <pt x="359" y="339" on="1"/>
        <pt x="530" y="621" on="1"/>
        <pt x="455" y="644" on="1"/>
        <pt x="455" y="668" on="1"/>
        <pt x="658" y="668" on="1"/>
        <pt x="658" y="644" on="1"/>
        <pt x="582" y="620" on="1"/>
        <pt x="383" y="295" on="1"/>
        <pt x="383" y="33" on="1"/>
        <pt x="470" y="24" on="1"/>
      </contour>
    </TTGlyph>
    <TTGlyph name="Yacute" xMin="-32" yMin="0" xMax="658" yMax="939">
      <contour>
        <pt x="658" y="668" on="1"/>
        <pt x="658" y="644" on="1"/>
        <pt x="582" y="620" on="1"/>
        <pt x="383" y="295" on="1"/>
        <pt x="383" y="33" on="1"/>
        <pt x="470" y="24" on="1"/>
        <pt x="470" y="0" on="1"/>
        <pt x="193" y="0" on="1"/>
        <pt x="193" y="24" on="1"/>
        <pt x="280" y="33" on="1"/>
        <pt x="280" y="287" on="1"/>
        <pt x="44" y="635" on="1"/>
        <pt x="-32" y="646" on="1"/>
        <pt x="-32" y="668" on="1"/>
        <pt x="238" y="668" on="1"/>
        <pt x="238" y="647" on="1"/>
        <pt x="161" y="636" on="1"/>
        <pt x="359" y="339" on="1"/>
        <pt x="530" y="621" on="1"/>
        <pt x="455" y="644" on="1"/>
        <pt x="455" y="668" on="1"/>
      </contour>
      <contour>
        <pt x="401" y="939" on="1"/>
        <pt x="454" y="905" on="0"/>
        <pt x="454" y="881" on="1"/>
        <pt x="454" y="870" on="0"/>
        <pt x="440" y="855" on="1"/>
        <pt x="361" y="782" on="0"/>
        <pt x="294" y="730" on="1"/>
        <pt x="276" y="746" on="0"/>
        <pt x="272" y="751" on="1"/>
        <pt x="389" y="922" on="0"/>
      </contour>
    </TTGlyph>
    <TTGlyph name="Ydieresis" xMin="-32" yMin="0" xMax="658" yMax="858">
      <contour>
        <pt x="658" y="668" on="1"/>
        <pt x="658" y="644" on="1"/>
        <pt x="582" y="620" on="1"/>
        <pt x="383" y="295" on="1"/>
        <pt x="383" y="33" on="1"/>
        <pt x="470" y="24" on="1"/>
        <pt x="470" y="0" on="1"/>
        <pt x="193" y="0" on="1"/>
        <pt x="193" y="24" on="1"/>
        <pt x="280" y="33" on="1"/>
        <pt x="280" y="287" on="1"/>
        <pt x="44" y="635" on="1"/>
        <pt x="-32" y="646" on="1"/>
        <pt x="-32" y="668" on="1"/>
        <pt x="238" y="668" on="1"/>
        <pt x="238" y="647" on="1"/>
        <pt x="161" y="636" on="1"/>
        <pt x="359" y="339" on="1"/>
        <pt x="530" y="621" on="1"/>
        <pt x="455" y="644" on="1"/>
        <pt x="455" y="668" on="1"/>
      </contour>
      <contour>
        <pt x="302" y="776" on="0"/>
        <pt x="269" y="742" on="0"/>
        <pt x="220" y="742" on="0"/>
        <pt x="187" y="775" on="0"/>
        <pt x="187" y="824" on="0"/>
        <pt x="220" y="858" on="0"/>
        <pt x="269" y="858" on="0"/>
        <pt x="302" y="824" on="0"/>
      </contour>
      <contour>
        <pt x="488" y="776" on="0"/>
        <pt x="455" y="742" on="0"/>
        <pt x="406" y="742" on="0"/>
        <pt x="373" y="775" on="0"/>
        <pt x="373" y="824" on="0"/>
        <pt x="406" y="858" on="0"/>
        <pt x="455" y="858" on="0"/>
        <pt x="488" y="824" on="0"/>
      </contour>
    </TTGlyph>
    <TTGlyph name="Z" xMin="43" yMin="11" xMax="609" yMax="670">
      <contour>
        <pt x="54" y="521" on="1"/>
        <pt x="54" y="668" on="1"/>
        <pt x="609" y="670" on="1"/>
        <pt x="609" y="639" on="1"/>
        <pt x="177" y="51" on="1"/>
        <pt x="546" y="49" on="1"/>
        <pt x="580" y="159" on="1"/>
        <pt x="606" y="159" on="1"/>
        <pt x="606" y="13" on="1"/>
        <pt x="43" y="11" on="1"/>
        <pt x="43" y="39" on="1"/>
        <pt x="479" y="630" on="1"/>
        <pt x="114" y="632" on="1"/>
        <pt x="80" y="521" on="1"/>
      </contour>
    </TTGlyph>
    <TTGlyph name="Zcaron" xMin="43" yMin="11" xMax="609" yMax="929">
      <contour>
        <pt x="606" y="159" on="1"/>
        <pt x="606" y="13" on="1"/>
        <pt x="43" y="11" on="1"/>
        <pt x="43" y="39" on="1"/>
        <pt x="479" y="630" on="1"/>
        <pt x="114" y="632" on="1"/>
        <pt x="80" y="521" on="1"/>
        <pt x="54" y="521" on="1"/>
        <pt x="54" y="668" on="1"/>
        <pt x="609" y="670" on="1"/>
        <pt x="609" y="639" on="1"/>
        <pt x="177" y="51" on="1"/>
        <pt x="546" y="49" on="1"/>
        <pt x="580" y="159" on="1"/>
      </contour>
      <contour>
        <pt x="492" y="910" on="1"/>
        <pt x="355" y="724" on="1"/>
        <pt x="305" y="724" on="1"/>
        <pt x="169" y="910" on="1"/>
        <pt x="200" y="929" on="1"/>
        <pt x="330" y="803" on="1"/>
        <pt x="461" y="929" on="1"/>
      </contour>
    </TTGlyph>
    <TTGlyph name="a" xMin="40" yMin="-12" xMax="511" yMax="499">
      <contour>
        <pt x="138" y="108" on="1"/>
        <pt x="138" y="43" on="0"/>
        <pt x="191" y="31" on="1"/>
        <pt x="203" y="28" on="0"/>
        <pt x="214" y="28" on="1"/>
        <pt x="252" y="28" on="0"/>
        <pt x="334" y="93" on="0"/>
        <pt x="336" y="148" on="1"/>
        <pt x="336" y="234" on="1"/>
        <pt x="138" y="232" on="0"/>
      </contour>
      <contour>
        <pt x="178" y="-12" on="1"/>
        <pt x="121" y="-12" on="0"/>
        <pt x="40" y="51" on="0"/>
        <pt x="40" y="108" on="1"/>
        <pt x="41" y="185" on="0"/>
        <pt x="194" y="261" on="0"/>
        <pt x="336" y="261" on="1"/>
        <pt x="336" y="347" on="1"/>
        <pt x="336" y="474" on="0"/>
        <pt x="244" y="474" on="1"/>
        <pt x="197" y="474" on="0"/>
        <pt x="168" y="435" on="1"/>
        <pt x="148" y="408" on="0"/>
        <pt x="148" y="368" on="1"/>
        <pt x="148" y="351" on="0"/>
        <pt x="152" y="332" on="1"/>
        <pt x="138" y="322" on="0"/>
        <pt x="109" y="322" on="0"/>
        <pt x="95" y="328" on="1"/>
        <pt x="63" y="340" on="0"/>
        <pt x="63" y="374" on="1"/>
        <pt x="63" y="420" on="0"/>
        <pt x="96" y="450" on="1"/>
        <pt x="150" y="499" on="0"/>
        <pt x="340" y="499" on="0"/>
        <pt x="426" y="418" on="0"/>
        <pt x="426" y="331" on="1"/>
        <pt x="426" y="28" on="1"/>
        <pt x="510" y="24" on="1"/>
        <pt x="511" y="1" on="1"/>
        <pt x="344" y="-11" on="1"/>
        <pt x="335" y="78" on="1"/>
        <pt x="289" y="-12" on="0"/>
      </contour>
    </TTGlyph>
    <TTGlyph name="aacute" xMin="40" yMin="-12" xMax="511" yMax="759">
      <contour>
        <pt x="138" y="108" on="1"/>
        <pt x="138" y="43" on="0"/>
        <pt x="191" y="31" on="1"/>
        <pt x="203" y="28" on="0"/>
        <pt x="214" y="28" on="1"/>
        <pt x="252" y="28" on="0"/>
        <pt x="334" y="93" on="0"/>
        <pt x="336" y="148" on="1"/>
        <pt x="336" y="234" on="1"/>
        <pt x="138" y="232" on="0"/>
      </contour>
      <contour>
        <pt x="178" y="-12" on="1"/>
        <pt x="121" y="-12" on="0"/>
        <pt x="40" y="51" on="0"/>
        <pt x="40" y="108" on="1"/>
        <pt x="41" y="185" on="0"/>
        <pt x="194" y="261" on="0"/>
        <pt x="336" y="261" on="1"/>
        <pt x="336" y="347" on="1"/>
        <pt x="336" y="474" on="0"/>
        <pt x="244" y="474" on="1"/>
        <pt x="197" y="474" on="0"/>
        <pt x="168" y="435" on="1"/>
        <pt x="148" y="408" on="0"/>
        <pt x="148" y="368" on="1"/>
        <pt x="148" y="351" on="0"/>
        <pt x="152" y="332" on="1"/>
        <pt x="138" y="322" on="0"/>
        <pt x="109" y="322" on="0"/>
        <pt x="95" y="328" on="1"/>
        <pt x="63" y="340" on="0"/>
        <pt x="63" y="374" on="1"/>
        <pt x="63" y="420" on="0"/>
        <pt x="96" y="450" on="1"/>
        <pt x="150" y="499" on="0"/>
        <pt x="340" y="499" on="0"/>
        <pt x="426" y="418" on="0"/>
        <pt x="426" y="331" on="1"/>
        <pt x="426" y="28" on="1"/>
        <pt x="510" y="24" on="1"/>
        <pt x="511" y="1" on="1"/>
        <pt x="344" y="-11" on="1"/>
        <pt x="335" y="78" on="1"/>
        <pt x="289" y="-12" on="0"/>
      </contour>
      <contour>
        <pt x="294" y="759" on="1"/>
        <pt x="347" y="725" on="0"/>
        <pt x="347" y="701" on="1"/>
        <pt x="347" y="690" on="0"/>
        <pt x="333" y="675" on="1"/>
        <pt x="254" y="602" on="0"/>
        <pt x="187" y="550" on="1"/>
        <pt x="169" y="566" on="0"/>
        <pt x="165" y="571" on="1"/>
        <pt x="282" y="742" on="0"/>
      </contour>
    </TTGlyph>
    <TTGlyph name="acircumflex" xMin="40" yMin="-12" xMax="511" yMax="741">
      <contour>
        <pt x="138" y="108" on="1"/>
        <pt x="138" y="43" on="0"/>
        <pt x="191" y="31" on="1"/>
        <pt x="203" y="28" on="0"/>
        <pt x="214" y="28" on="1"/>
        <pt x="252" y="28" on="0"/>
        <pt x="334" y="93" on="0"/>
        <pt x="336" y="148" on="1"/>
        <pt x="336" y="234" on="1"/>
        <pt x="138" y="232" on="0"/>
      </contour>
      <contour>
        <pt x="178" y="-12" on="1"/>
        <pt x="121" y="-12" on="0"/>
        <pt x="40" y="51" on="0"/>
        <pt x="40" y="108" on="1"/>
        <pt x="41" y="185" on="0"/>
        <pt x="194" y="261" on="0"/>
        <pt x="336" y="261" on="1"/>
        <pt x="336" y="347" on="1"/>
        <pt x="336" y="474" on="0"/>
        <pt x="244" y="474" on="1"/>
        <pt x="197" y="474" on="0"/>
        <pt x="168" y="435" on="1"/>
        <pt x="148" y="408" on="0"/>
        <pt x="148" y="368" on="1"/>
        <pt x="148" y="351" on="0"/>
        <pt x="152" y="332" on="1"/>
        <pt x="138" y="322" on="0"/>
        <pt x="109" y="322" on="0"/>
        <pt x="95" y="328" on="1"/>
        <pt x="63" y="340" on="0"/>
        <pt x="63" y="374" on="1"/>
        <pt x="63" y="420" on="0"/>
        <pt x="96" y="450" on="1"/>
        <pt x="150" y="499" on="0"/>
        <pt x="340" y="499" on="0"/>
        <pt x="426" y="418" on="0"/>
        <pt x="426" y="331" on="1"/>
        <pt x="426" y="28" on="1"/>
        <pt x="510" y="24" on="1"/>
        <pt x="511" y="1" on="1"/>
        <pt x="344" y="-11" on="1"/>
        <pt x="335" y="78" on="1"/>
        <pt x="289" y="-12" on="0"/>
      </contour>
      <contour>
        <pt x="86" y="555" on="1"/>
        <pt x="223" y="741" on="1"/>
        <pt x="273" y="741" on="1"/>
        <pt x="409" y="555" on="1"/>
        <pt x="378" y="536" on="1"/>
        <pt x="248" y="662" on="1"/>
        <pt x="117" y="536" on="1"/>
      </contour>
    </TTGlyph>
    <TTGlyph name="acute" xMin="112" yMin="550" xMax="294" yMax="759">
      <contour>
        <pt x="241" y="759" on="1"/>
        <pt x="294" y="725" on="0"/>
        <pt x="294" y="701" on="1"/>
        <pt x="294" y="690" on="0"/>
        <pt x="280" y="675" on="1"/>
        <pt x="201" y="602" on="0"/>
        <pt x="134" y="550" on="1"/>
        <pt x="116" y="566" on="0"/>
        <pt x="112" y="571" on="1"/>
        <pt x="229" y="742" on="0"/>
      </contour>
    </TTGlyph>
    <TTGlyph name="acutemayuscula" xMin="89" yMin="718" xMax="292" yMax="904">
      <contour>
        <pt x="250" y="904" on="1"/>
        <pt x="291" y="866" on="0"/>
        <pt x="291" y="841" on="1"/>
        <pt x="291" y="829" on="0"/>
        <pt x="273" y="815" on="1"/>
        <pt x="178" y="755" on="0"/>
        <pt x="106" y="718" on="1"/>
        <pt x="89" y="743" on="1"/>
        <pt x="207" y="863" on="0"/>
      </contour>
    </TTGlyph>
    <TTGlyph name="adieresis" xMin="40" yMin="-12" xMax="511" yMax="678">
      <contour>
        <pt x="138" y="108" on="1"/>
        <pt x="138" y="43" on="0"/>
        <pt x="191" y="31" on="1"/>
        <pt x="203" y="28" on="0"/>
        <pt x="214" y="28" on="1"/>
        <pt x="252" y="28" on="0"/>
        <pt x="334" y="93" on="0"/>
        <pt x="336" y="148" on="1"/>
        <pt x="336" y="234" on="1"/>
        <pt x="138" y="232" on="0"/>
      </contour>
      <contour>
        <pt x="178" y="-12" on="1"/>
        <pt x="121" y="-12" on="0"/>
        <pt x="40" y="51" on="0"/>
        <pt x="40" y="108" on="1"/>
        <pt x="41" y="185" on="0"/>
        <pt x="194" y="261" on="0"/>
        <pt x="336" y="261" on="1"/>
        <pt x="336" y="347" on="1"/>
        <pt x="336" y="474" on="0"/>
        <pt x="244" y="474" on="1"/>
        <pt x="197" y="474" on="0"/>
        <pt x="168" y="435" on="1"/>
        <pt x="148" y="408" on="0"/>
        <pt x="148" y="368" on="1"/>
        <pt x="148" y="351" on="0"/>
        <pt x="152" y="332" on="1"/>
        <pt x="138" y="322" on="0"/>
        <pt x="109" y="322" on="0"/>
        <pt x="95" y="328" on="1"/>
        <pt x="63" y="340" on="0"/>
        <pt x="63" y="374" on="1"/>
        <pt x="63" y="420" on="0"/>
        <pt x="96" y="450" on="1"/>
        <pt x="150" y="499" on="0"/>
        <pt x="340" y="499" on="0"/>
        <pt x="426" y="418" on="0"/>
        <pt x="426" y="331" on="1"/>
        <pt x="426" y="28" on="1"/>
        <pt x="510" y="24" on="1"/>
        <pt x="511" y="1" on="1"/>
        <pt x="344" y="-11" on="1"/>
        <pt x="335" y="78" on="1"/>
        <pt x="289" y="-12" on="0"/>
      </contour>
      <contour>
        <pt x="209" y="596" on="0"/>
        <pt x="176" y="562" on="0"/>
        <pt x="127" y="562" on="0"/>
        <pt x="94" y="595" on="0"/>
        <pt x="94" y="644" on="0"/>
        <pt x="127" y="678" on="0"/>
        <pt x="176" y="678" on="0"/>
        <pt x="209" y="644" on="0"/>
      </contour>
      <contour>
        <pt x="395" y="596" on="0"/>
        <pt x="362" y="562" on="0"/>
        <pt x="313" y="562" on="0"/>
        <pt x="280" y="595" on="0"/>
        <pt x="280" y="644" on="0"/>
        <pt x="313" y="678" on="0"/>
        <pt x="362" y="678" on="0"/>
        <pt x="395" y="644" on="0"/>
      </contour>
    </TTGlyph>
    <TTGlyph name="ae" xMin="43" yMin="-12" xMax="737" yMax="499">
      <contour>
        <pt x="320" y="412" on="0"/>
        <pt x="280" y="474" on="0"/>
        <pt x="188" y="474" on="0"/>
        <pt x="161" y="434" on="1"/>
        <pt x="142" y="407" on="0"/>
        <pt x="142" y="351" on="0"/>
        <pt x="146" y="332" on="1"/>
        <pt x="132" y="322" on="0"/>
        <pt x="103" y="322" on="0"/>
        <pt x="89" y="328" on="1"/>
        <pt x="57" y="340" on="0"/>
        <pt x="57" y="374" on="1"/>
        <pt x="57" y="420" on="0"/>
        <pt x="90" y="450" on="1"/>
        <pt x="144" y="499" on="0"/>
        <pt x="233" y="499" on="1"/>
        <pt x="358" y="499" on="0"/>
        <pt x="389" y="431" on="1"/>
        <pt x="439" y="499" on="0"/>
        <pt x="550" y="499" on="1"/>
        <pt x="640" y="499" on="0"/>
        <pt x="737" y="408" on="0"/>
        <pt x="737" y="327" on="1"/>
        <pt x="737" y="303" on="0"/>
        <pt x="733" y="279" on="1"/>
        <pt x="420" y="279" on="1"/>
        <pt x="420" y="244" on="1"/>
        <pt x="420" y="132" on="0"/>
        <pt x="484" y="17" on="0"/>
        <pt x="557" y="17" on="1"/>
        <pt x="650" y="17" on="0"/>
        <pt x="706" y="107" on="1"/>
        <pt x="728" y="100" on="0"/>
        <pt x="728" y="71" on="0"/>
        <pt x="691" y="28" on="0"/>
        <pt x="600" y="-11" on="0"/>
        <pt x="541" y="-11" on="1"/>
        <pt x="416" y="-11" on="0"/>
        <pt x="354" y="100" on="1"/>
        <pt x="303" y="-12" on="0"/>
        <pt x="181" y="-12" on="1"/>
        <pt x="124" y="-12" on="0"/>
        <pt x="43" y="51" on="0"/>
        <pt x="43" y="108" on="1"/>
        <pt x="44" y="182" on="0"/>
        <pt x="188" y="259" on="0"/>
        <pt x="321" y="261" on="1"/>
        <pt x="321" y="350" on="1"/>
      </contour>
      <contour>
        <pt x="642" y="350" on="1"/>
        <pt x="642" y="394" on="0"/>
        <pt x="625" y="426" on="1"/>
        <pt x="601" y="471" on="0"/>
        <pt x="549" y="471" on="1"/>
        <pt x="441" y="471" on="0"/>
        <pt x="423" y="315" on="1"/>
        <pt x="640" y="315" on="1"/>
        <pt x="642" y="333" on="0"/>
      </contour>
      <contour>
        <pt x="141" y="108" on="1"/>
        <pt x="141" y="43" on="0"/>
        <pt x="194" y="31" on="1"/>
        <pt x="206" y="28" on="0"/>
        <pt x="217" y="28" on="1"/>
        <pt x="254" y="28" on="0"/>
        <pt x="332" y="89" on="0"/>
        <pt x="338" y="137" on="1"/>
        <pt x="323" y="178" on="0"/>
        <pt x="321" y="233" on="1"/>
        <pt x="141" y="226" on="0"/>
      </contour>
    </TTGlyph>
    <TTGlyph name="agrave" xMin="40" yMin="-12" xMax="511" yMax="759">
      <contour>
        <pt x="138" y="108" on="1"/>
        <pt x="138" y="43" on="0"/>
        <pt x="191" y="31" on="1"/>
        <pt x="203" y="28" on="0"/>
        <pt x="214" y="28" on="1"/>
        <pt x="252" y="28" on="0"/>
        <pt x="334" y="93" on="0"/>
        <pt x="336" y="148" on="1"/>
        <pt x="336" y="234" on="1"/>
        <pt x="138" y="232" on="0"/>
      </contour>
      <contour>
        <pt x="178" y="-12" on="1"/>
        <pt x="121" y="-12" on="0"/>
        <pt x="40" y="51" on="0"/>
        <pt x="40" y="108" on="1"/>
        <pt x="41" y="185" on="0"/>
        <pt x="194" y="261" on="0"/>
        <pt x="336" y="261" on="1"/>
        <pt x="336" y="347" on="1"/>
        <pt x="336" y="474" on="0"/>
        <pt x="244" y="474" on="1"/>
        <pt x="197" y="474" on="0"/>
        <pt x="168" y="435" on="1"/>
        <pt x="148" y="408" on="0"/>
        <pt x="148" y="368" on="1"/>
        <pt x="148" y="351" on="0"/>
        <pt x="152" y="332" on="1"/>
        <pt x="138" y="322" on="0"/>
        <pt x="109" y="322" on="0"/>
        <pt x="95" y="328" on="1"/>
        <pt x="63" y="340" on="0"/>
        <pt x="63" y="374" on="1"/>
        <pt x="63" y="420" on="0"/>
        <pt x="96" y="450" on="1"/>
        <pt x="150" y="499" on="0"/>
        <pt x="340" y="499" on="0"/>
        <pt x="426" y="418" on="0"/>
        <pt x="426" y="331" on="1"/>
        <pt x="426" y="28" on="1"/>
        <pt x="510" y="24" on="1"/>
        <pt x="511" y="1" on="1"/>
        <pt x="344" y="-11" on="1"/>
        <pt x="335" y="78" on="1"/>
        <pt x="289" y="-12" on="0"/>
      </contour>
      <contour>
        <pt x="146" y="675" on="1"/>
        <pt x="132" y="690" on="0"/>
        <pt x="132" y="700" on="1"/>
        <pt x="132" y="725" on="0"/>
        <pt x="185" y="759" on="1"/>
        <pt x="197" y="742" on="0"/>
        <pt x="314" y="571" on="1"/>
        <pt x="310" y="566" on="0"/>
        <pt x="292" y="550" on="1"/>
        <pt x="225" y="602" on="0"/>
      </contour>
    </TTGlyph>
    <TTGlyph name="ampersand" xMin="51" yMin="-12" xMax="780" yMax="674">
      <contour>
        <pt x="743" y="36" on="1"/>
        <pt x="760" y="36" on="0"/>
        <pt x="780" y="39" on="1"/>
        <pt x="780" y="26" on="0"/>
        <pt x="764" y="12" on="1"/>
        <pt x="735" y="-12" on="0"/>
        <pt x="671" y="-12" on="1"/>
        <pt x="573" y="-12" on="0"/>
        <pt x="487" y="64" on="1"/>
        <pt x="410" y="-11" on="0"/>
        <pt x="280" y="-11" on="1"/>
        <pt x="185" y="-11" on="0"/>
        <pt x="52" y="79" on="0"/>
        <pt x="51" y="163" on="1"/>
        <pt x="51" y="225" on="0"/>
        <pt x="141" y="323" on="0"/>
        <pt x="216" y="345" on="1"/>
        <pt x="133" y="418" on="0"/>
        <pt x="133" y="509" on="1"/>
        <pt x="133" y="579" on="0"/>
        <pt x="229" y="674" on="0"/>
        <pt x="388" y="674" on="0"/>
        <pt x="485" y="593" on="0"/>
        <pt x="485" y="530" on="1"/>
        <pt x="485" y="521" on="0"/>
        <pt x="484" y="512" on="1"/>
        <pt x="477" y="447" on="0"/>
        <pt x="374" y="362" on="0"/>
        <pt x="326" y="360" on="1"/>
        <pt x="320" y="364" on="1"/>
        <pt x="372" y="309" on="0"/>
        <pt x="514" y="167" on="1"/>
        <pt x="537" y="224" on="0"/>
        <pt x="537" y="337" on="0"/>
        <pt x="530" y="376" on="1"/>
        <pt x="543" y="383" on="0"/>
        <pt x="553" y="383" on="1"/>
        <pt x="578" y="383" on="0"/>
        <pt x="578" y="327" on="1"/>
        <pt x="578" y="220" on="0"/>
        <pt x="541" y="141" on="1"/>
        <pt x="544" y="138" on="1"/>
        <pt x="651" y="36" on="0"/>
      </contour>
      <contour>
        <pt x="159" y="169" on="1"/>
        <pt x="159" y="108" on="0"/>
        <pt x="242" y="29" on="0"/>
        <pt x="301" y="29" on="1"/>
        <pt x="399" y="29" on="0"/>
        <pt x="461" y="88" on="1"/>
        <pt x="427" y="126" on="0"/>
        <pt x="279" y="276" on="0"/>
        <pt x="244" y="317" on="1"/>
        <pt x="240" y="321" on="1"/>
        <pt x="159" y="264" on="0"/>
      </contour>
      <contour>
        <pt x="303" y="382" on="1"/>
        <pt x="393" y="423" on="0"/>
        <pt x="393" y="544" on="1"/>
        <pt x="393" y="587" on="0"/>
        <pt x="347" y="647" on="0"/>
        <pt x="265" y="647" on="0"/>
        <pt x="216" y="586" on="0"/>
        <pt x="216" y="531" on="1"/>
        <pt x="216" y="503" on="0"/>
        <pt x="243" y="448" on="0"/>
        <pt x="266" y="422" on="0"/>
      </contour>
    </TTGlyph>
    <TTGlyph name="aring" xMin="40" yMin="-12" xMax="511" yMax="762">
      <contour>
        <pt x="138" y="108" on="1"/>
        <pt x="138" y="43" on="0"/>
        <pt x="191" y="31" on="1"/>
        <pt x="203" y="28" on="0"/>
        <pt x="214" y="28" on="1"/>
        <pt x="252" y="28" on="0"/>
        <pt x="334" y="93" on="0"/>
        <pt x="336" y="148" on="1"/>
        <pt x="336" y="234" on="1"/>
        <pt x="138" y="232" on="0"/>
      </contour>
      <contour>
        <pt x="178" y="-12" on="1"/>
        <pt x="121" y="-12" on="0"/>
        <pt x="40" y="51" on="0"/>
        <pt x="40" y="108" on="1"/>
        <pt x="41" y="185" on="0"/>
        <pt x="194" y="261" on="0"/>
        <pt x="336" y="261" on="1"/>
        <pt x="336" y="347" on="1"/>
        <pt x="336" y="474" on="0"/>
        <pt x="244" y="474" on="1"/>
        <pt x="197" y="474" on="0"/>
        <pt x="168" y="435" on="1"/>
        <pt x="148" y="408" on="0"/>
        <pt x="148" y="368" on="1"/>
        <pt x="148" y="351" on="0"/>
        <pt x="152" y="332" on="1"/>
        <pt x="138" y="322" on="0"/>
        <pt x="109" y="322" on="0"/>
        <pt x="95" y="328" on="1"/>
        <pt x="63" y="340" on="0"/>
        <pt x="63" y="374" on="1"/>
        <pt x="63" y="420" on="0"/>
        <pt x="96" y="450" on="1"/>
        <pt x="150" y="499" on="0"/>
        <pt x="340" y="499" on="0"/>
        <pt x="426" y="418" on="0"/>
        <pt x="426" y="331" on="1"/>
        <pt x="426" y="28" on="1"/>
        <pt x="510" y="24" on="1"/>
        <pt x="511" y="1" on="1"/>
        <pt x="344" y="-11" on="1"/>
        <pt x="335" y="78" on="1"/>
        <pt x="289" y="-12" on="0"/>
      </contour>
      <contour>
        <pt x="298" y="762" on="0"/>
        <pt x="358" y="704" on="0"/>
        <pt x="358" y="616" on="0"/>
        <pt x="295" y="555" on="0"/>
        <pt x="207" y="555" on="0"/>
        <pt x="146" y="613" on="0"/>
        <pt x="146" y="701" on="0"/>
        <pt x="209" y="762" on="0"/>
      </contour>
      <contour>
        <pt x="276" y="596" on="0"/>
        <pt x="309" y="630" on="0"/>
        <pt x="309" y="682" on="0"/>
        <pt x="275" y="718" on="0"/>
        <pt x="228" y="718" on="0"/>
        <pt x="195" y="684" on="0"/>
        <pt x="195" y="630" on="0"/>
        <pt x="228" y="596" on="0"/>
      </contour>
    </TTGlyph>
    <TTGlyph name="asciicircum" xMin="52" yMin="536" xMax="375" yMax="741">
      <contour>
        <pt x="52" y="555" on="1"/>
        <pt x="189" y="741" on="1"/>
        <pt x="239" y="741" on="1"/>
        <pt x="375" y="555" on="1"/>
        <pt x="344" y="536" on="1"/>
        <pt x="214" y="662" on="1"/>
        <pt x="83" y="536" on="1"/>
      </contour>
    </TTGlyph>
    <TTGlyph name="asciitilde" xMin="56" yMin="163" xMax="531" yMax="295">
      <contour>
        <pt x="483" y="201" on="0"/>
        <pt x="433" y="172" on="0"/>
        <pt x="393" y="172" on="0"/>
        <pt x="356" y="181" on="0"/>
        <pt x="343" y="186" on="1"/>
        <pt x="293" y="203" on="0"/>
        <pt x="209" y="233" on="0"/>
        <pt x="158" y="233" on="0"/>
        <pt x="118" y="197" on="0"/>
        <pt x="96" y="163" on="1"/>
        <pt x="56" y="198" on="1"/>
        <pt x="86" y="244" on="0"/>
        <pt x="146" y="293" on="0"/>
        <pt x="232" y="293" on="0"/>
        <pt x="377" y="232" on="0"/>
        <pt x="403" y="232" on="1"/>
        <pt x="449" y="232" on="0"/>
        <pt x="490" y="295" on="1"/>
        <pt x="531" y="262" on="1"/>
        <pt x="511" y="233" on="0"/>
      </contour>
    </TTGlyph>
    <TTGlyph name="asterisk" xMin="62" yMin="346" xMax="386" yMax="682">
      <contour>
        <pt x="386" y="596" on="1"/>
        <pt x="258" y="515" on="1"/>
        <pt x="385" y="432" on="1"/>
        <pt x="353" y="388" on="1"/>
        <pt x="249" y="484" on="1"/>
        <pt x="254" y="346" on="1"/>
        <pt x="198" y="346" on="1"/>
        <pt x="202" y="484" on="1"/>
        <pt x="97" y="385" on="1"/>
        <pt x="65" y="429" on="1"/>
        <pt x="198" y="515" on="1"/>
        <pt x="62" y="596" on="1"/>
        <pt x="95" y="643" on="1"/>
        <pt x="202" y="541" on="1"/>
        <pt x="196" y="682" on="1"/>
        <pt x="254" y="682" on="1"/>
        <pt x="249" y="541" on="1"/>
        <pt x="353" y="640" on="1"/>
      </contour>
    </TTGlyph>
    <TTGlyph name="at" xMin="56" yMin="-12" xMax="766" yMax="681">
      <contour>
        <pt x="352" y="141" on="1"/>
        <pt x="311" y="141" on="0"/>
        <pt x="254" y="188" on="0"/>
        <pt x="255" y="229" on="1"/>
        <pt x="262" y="341" on="0"/>
        <pt x="478" y="341" on="1"/>
        <pt x="481" y="405" on="1"/>
        <pt x="481" y="409" on="0"/>
        <pt x="481" y="413" on="1"/>
        <pt x="481" y="497" on="0"/>
        <pt x="416" y="497" on="1"/>
        <pt x="381" y="497" on="0"/>
        <pt x="343" y="449" on="0"/>
        <pt x="343" y="416" on="1"/>
        <pt x="343" y="406" on="0"/>
        <pt x="345" y="394" on="1"/>
        <pt x="334" y="388" on="0"/>
        <pt x="304" y="388" on="0"/>
        <pt x="280" y="407" on="0"/>
        <pt x="280" y="424" on="1"/>
        <pt x="283" y="473" on="0"/>
        <pt x="369" y="517" on="0"/>
        <pt x="414" y="517" on="1"/>
        <pt x="487" y="517" on="0"/>
        <pt x="543" y="460" on="0"/>
        <pt x="543" y="402" on="1"/>
        <pt x="543" y="398" on="0"/>
        <pt x="543" y="394" on="1"/>
        <pt x="536" y="227" on="1"/>
        <pt x="534" y="182" on="0"/>
        <pt x="576" y="182" on="1"/>
        <pt x="620" y="182" on="0"/>
        <pt x="685" y="297" on="0"/>
        <pt x="685" y="397" on="1"/>
        <pt x="685" y="520" on="0"/>
        <pt x="555" y="649" on="0"/>
        <pt x="439" y="649" on="1"/>
        <pt x="362" y="649" on="0"/>
        <pt x="242" y="594" on="0"/>
        <pt x="207" y="548" on="1"/>
        <pt x="137" y="456" on="0"/>
        <pt x="137" y="190" on="0"/>
        <pt x="275" y="24" on="0"/>
        <pt x="411" y="24" on="1"/>
        <pt x="484" y="24" on="0"/>
        <pt x="616" y="64" on="0"/>
        <pt x="646" y="84" on="1"/>
        <pt x="675" y="104" on="1"/>
        <pt x="689" y="80" on="1"/>
        <pt x="680" y="71" on="0"/>
        <pt x="613" y="32" on="0"/>
        <pt x="583" y="20" on="1"/>
        <pt x="503" y="-12" on="0"/>
        <pt x="411" y="-12" on="1"/>
        <pt x="254" y="-12" on="0"/>
        <pt x="56" y="178" on="0"/>
        <pt x="56" y="324" on="1"/>
        <pt x="56" y="466" on="0"/>
        <pt x="152" y="570" on="1"/>
        <pt x="199" y="621" on="0"/>
        <pt x="352" y="681" on="0"/>
        <pt x="449" y="681" on="1"/>
        <pt x="586" y="681" on="0"/>
        <pt x="766" y="536" on="0"/>
        <pt x="766" y="404" on="1"/>
        <pt x="766" y="343" on="0"/>
        <pt x="725" y="242" on="0"/>
        <pt x="692" y="212" on="1"/>
        <pt x="625" y="150" on="0"/>
        <pt x="554" y="150" on="1"/>
        <pt x="498" y="150" on="0"/>
        <pt x="478" y="186" on="1"/>
        <pt x="474" y="195" on="0"/>
        <pt x="472" y="207" on="1"/>
        <pt x="435" y="141" on="0"/>
      </contour>
      <contour>
        <pt x="328" y="225" on="1"/>
        <pt x="328" y="200" on="0"/>
        <pt x="356" y="172" on="0"/>
        <pt x="412" y="172" on="0"/>
        <pt x="471" y="222" on="0"/>
        <pt x="474" y="260" on="1"/>
        <pt x="477" y="322" on="1"/>
        <pt x="328" y="322" on="0"/>
      </contour>
    </TTGlyph>
    <TTGlyph name="atilde" xMin="40" yMin="-12" xMax="511" yMax="679">
      <contour>
        <pt x="138" y="108" on="1"/>
        <pt x="138" y="43" on="0"/>
        <pt x="191" y="31" on="1"/>
        <pt x="203" y="28" on="0"/>
        <pt x="214" y="28" on="1"/>
        <pt x="252" y="28" on="0"/>
        <pt x="334" y="93" on="0"/>
        <pt x="336" y="148" on="1"/>
        <pt x="336" y="234" on="1"/>
        <pt x="138" y="232" on="0"/>
      </contour>
      <contour>
        <pt x="178" y="-12" on="1"/>
        <pt x="121" y="-12" on="0"/>
        <pt x="40" y="51" on="0"/>
        <pt x="40" y="108" on="1"/>
        <pt x="41" y="185" on="0"/>
        <pt x="194" y="261" on="0"/>
        <pt x="336" y="261" on="1"/>
        <pt x="336" y="347" on="1"/>
        <pt x="336" y="474" on="0"/>
        <pt x="244" y="474" on="1"/>
        <pt x="197" y="474" on="0"/>
        <pt x="168" y="435" on="1"/>
        <pt x="148" y="408" on="0"/>
        <pt x="148" y="368" on="1"/>
        <pt x="148" y="351" on="0"/>
        <pt x="152" y="332" on="1"/>
        <pt x="138" y="322" on="0"/>
        <pt x="109" y="322" on="0"/>
        <pt x="95" y="328" on="1"/>
        <pt x="63" y="340" on="0"/>
        <pt x="63" y="374" on="1"/>
        <pt x="63" y="420" on="0"/>
        <pt x="96" y="450" on="1"/>
        <pt x="150" y="499" on="0"/>
        <pt x="340" y="499" on="0"/>
        <pt x="426" y="418" on="0"/>
        <pt x="426" y="331" on="1"/>
        <pt x="426" y="28" on="1"/>
        <pt x="510" y="24" on="1"/>
        <pt x="511" y="1" on="1"/>
        <pt x="344" y="-11" on="1"/>
        <pt x="335" y="78" on="1"/>
        <pt x="289" y="-12" on="0"/>
      </contour>
      <contour>
        <pt x="413" y="620" on="0"/>
        <pt x="356" y="560" on="0"/>
        <pt x="281" y="560" on="0"/>
        <pt x="233" y="589" on="1"/>
        <pt x="188" y="621" on="0"/>
        <pt x="141" y="621" on="0"/>
        <pt x="108" y="593" on="0"/>
        <pt x="103" y="575" on="1"/>
        <pt x="76" y="575" on="1"/>
        <pt x="82" y="620" on="0"/>
        <pt x="139" y="679" on="0"/>
        <pt x="219" y="679" on="0"/>
        <pt x="266" y="649" on="1"/>
        <pt x="311" y="618" on="0"/>
        <pt x="355" y="618" on="0"/>
        <pt x="387" y="647" on="0"/>
        <pt x="392" y="665" on="1"/>
        <pt x="419" y="665" on="1"/>
      </contour>
    </TTGlyph>
    <TTGlyph name="b" xMin="-8" yMin="-12" xMax="555" yMax="766">
      <contour>
        <pt x="299" y="18" on="1"/>
        <pt x="337" y="18" on="0"/>
        <pt x="392" y="50" on="0"/>
        <pt x="423" y="98" on="0"/>
        <pt x="432" y="135" on="1"/>
        <pt x="445" y="194" on="0"/>
        <pt x="445" y="374" on="0"/>
        <pt x="383" y="468" on="0"/>
        <pt x="271" y="468" on="0"/>
        <pt x="178" y="373" on="0"/>
        <pt x="178" y="333" on="1"/>
        <pt x="180" y="55" on="1"/>
        <pt x="228" y="18" on="0"/>
      </contour>
      <contour>
        <pt x="179" y="766" on="1"/>
        <pt x="178" y="552" on="1"/>
        <pt x="178" y="450" on="0"/>
        <pt x="173" y="407" on="1"/>
        <pt x="182" y="407" on="1"/>
        <pt x="209" y="451" on="0"/>
        <pt x="305" y="499" on="0"/>
        <pt x="360" y="499" on="1"/>
        <pt x="443" y="499" on="0"/>
        <pt x="555" y="384" on="0"/>
        <pt x="555" y="135" on="0"/>
        <pt x="421" y="-12" on="0"/>
        <pt x="297" y="-12" on="1"/>
        <pt x="269" y="-12" on="0"/>
        <pt x="196" y="6" on="0"/>
        <pt x="173" y="21" on="1"/>
        <pt x="81" y="-11" on="1"/>
        <pt x="81" y="718" on="1"/>
        <pt x="-7" y="722" on="1"/>
        <pt x="-8" y="745" on="1"/>
      </contour>
    </TTGlyph>
    <TTGlyph name="backslash" xMin="46" yMin="0" xMax="311" yMax="668">
      <contour>
        <pt x="311" y="0" on="1"/>
        <pt x="247" y="0" on="1"/>
        <pt x="46" y="668" on="1"/>
        <pt x="110" y="668" on="1"/>
      </contour>
    </TTGlyph>
    <TTGlyph name="bar" xMin="90" yMin="-290" xMax="151" yMax="800">
      <contour>
        <pt x="90" y="800" on="1"/>
        <pt x="151" y="800" on="1"/>
        <pt x="151" y="-290" on="1"/>
        <pt x="90" y="-290" on="1"/>
      </contour>
    </TTGlyph>
    <TTGlyph name="braceleft" xMin="22" yMin="-274" xMax="268" yMax="783">
      <contour>
        <pt x="22" y="268" on="1"/>
        <pt x="108" y="268" on="0"/>
        <pt x="108" y="370" on="1"/>
        <pt x="108" y="407" on="0"/>
        <pt x="80" y="573" on="0"/>
        <pt x="80" y="612" on="1"/>
        <pt x="80" y="783" on="0"/>
        <pt x="268" y="783" on="1"/>
        <pt x="268" y="746" on="1"/>
        <pt x="208" y="746" on="0"/>
        <pt x="159" y="688" on="0"/>
        <pt x="159" y="599" on="0"/>
        <pt x="191" y="424" on="0"/>
        <pt x="191" y="341" on="0"/>
        <pt x="148" y="266" on="0"/>
        <pt x="110" y="254" on="1"/>
        <pt x="149" y="243" on="0"/>
        <pt x="191" y="169" on="0"/>
        <pt x="191" y="85" on="0"/>
        <pt x="159" y="-90" on="0"/>
        <pt x="159" y="-128" on="1"/>
        <pt x="159" y="-238" on="0"/>
        <pt x="268" y="-238" on="1"/>
        <pt x="268" y="-274" on="1"/>
        <pt x="80" y="-274" on="0"/>
        <pt x="80" y="-103" on="1"/>
        <pt x="80" y="-65" on="0"/>
        <pt x="108" y="102" on="0"/>
        <pt x="108" y="139" on="1"/>
        <pt x="108" y="241" on="0"/>
        <pt x="22" y="241" on="1"/>
      </contour>
    </TTGlyph>
    <TTGlyph name="braceright" xMin="25" yMin="-274" xMax="271" yMax="783">
      <contour>
        <pt x="271" y="268" on="1"/>
        <pt x="271" y="241" on="1"/>
        <pt x="185" y="241" on="0"/>
        <pt x="185" y="139" on="1"/>
        <pt x="185" y="102" on="0"/>
        <pt x="213" y="-65" on="0"/>
        <pt x="213" y="-103" on="1"/>
        <pt x="213" y="-274" on="0"/>
        <pt x="25" y="-274" on="1"/>
        <pt x="25" y="-238" on="1"/>
        <pt x="134" y="-238" on="0"/>
        <pt x="134" y="-128" on="1"/>
        <pt x="134" y="-90" on="0"/>
        <pt x="102" y="85" on="0"/>
        <pt x="102" y="169" on="0"/>
        <pt x="144" y="243" on="0"/>
        <pt x="183" y="254" on="1"/>
        <pt x="145" y="266" on="0"/>
        <pt x="102" y="341" on="0"/>
        <pt x="102" y="424" on="0"/>
        <pt x="134" y="599" on="0"/>
        <pt x="134" y="688" on="0"/>
        <pt x="85" y="746" on="0"/>
        <pt x="25" y="746" on="1"/>
        <pt x="25" y="783" on="1"/>
        <pt x="213" y="783" on="0"/>
        <pt x="213" y="612" on="1"/>
        <pt x="213" y="573" on="0"/>
        <pt x="185" y="407" on="0"/>
        <pt x="185" y="370" on="1"/>
        <pt x="185" y="268" on="0"/>
      </contour>
    </TTGlyph>
    <TTGlyph name="bracketleft" xMin="90" yMin="-290" xMax="320" yMax="801">
      <contour>
        <pt x="90" y="801" on="1"/>
        <pt x="320" y="801" on="1"/>
        <pt x="320" y="742" on="1"/>
        <pt x="163" y="742" on="1"/>
        <pt x="163" y="-231" on="1"/>
        <pt x="320" y="-231" on="1"/>
        <pt x="320" y="-290" on="1"/>
        <pt x="90" y="-290" on="1"/>
      </contour>
    </TTGlyph>
    <TTGlyph name="bracketright" xMin="14" yMin="-290" xMax="244" yMax="801">
      <contour>
        <pt x="244" y="801" on="1"/>
        <pt x="244" y="-290" on="1"/>
        <pt x="14" y="-290" on="1"/>
        <pt x="14" y="-231" on="1"/>
        <pt x="171" y="-231" on="1"/>
        <pt x="171" y="742" on="1"/>
        <pt x="14" y="742" on="1"/>
        <pt x="14" y="801" on="1"/>
      </contour>
    </TTGlyph>
    <TTGlyph name="breve" xMin="60" yMin="520" xMax="331" yMax="669">
      <contour>
        <pt x="60" y="669" on="1"/>
        <pt x="77" y="669" on="1"/>
        <pt x="106" y="583" on="0"/>
        <pt x="285" y="583" on="0"/>
        <pt x="314" y="669" on="1"/>
        <pt x="331" y="669" on="1"/>
        <pt x="331" y="600" on="0"/>
        <pt x="258" y="520" on="0"/>
        <pt x="134" y="520" on="0"/>
        <pt x="60" y="600" on="0"/>
      </contour>
    </TTGlyph>
    <TTGlyph name="brokenbar" xMin="94" yMin="-221" xMax="165" yMax="690">
      <contour>
        <pt x="94" y="690" on="1"/>
        <pt x="165" y="690" on="1"/>
        <pt x="165" y="333" on="1"/>
        <pt x="94" y="333" on="1"/>
      </contour>
      <contour>
        <pt x="94" y="136" on="1"/>
        <pt x="165" y="136" on="1"/>
        <pt x="165" y="-221" on="1"/>
        <pt x="94" y="-221" on="1"/>
      </contour>
    </TTGlyph>
    <TTGlyph name="bullet" xMin="79" yMin="177" xMax="370" yMax="487">
      <contour>
        <pt x="370" y="394" on="0"/>
        <pt x="370" y="268" on="0"/>
        <pt x="285" y="177" on="0"/>
        <pt x="163" y="177" on="0"/>
        <pt x="79" y="268" on="0"/>
        <pt x="79" y="395" on="0"/>
        <pt x="162" y="487" on="0"/>
        <pt x="286" y="487" on="0"/>
      </contour>
    </TTGlyph>
    <TTGlyph name="c" xMin="46" yMin="-11" xMax="470" yMax="499">
      <contour>
        <pt x="298" y="499" on="1"/>
        <pt x="354" y="499" on="0"/>
        <pt x="406" y="475" on="1"/>
        <pt x="435" y="462" on="0"/>
        <pt x="470" y="408" on="0"/>
        <pt x="470" y="336" on="0"/>
        <pt x="438" y="323" on="1"/>
        <pt x="425" y="318" on="0"/>
        <pt x="396" y="318" on="0"/>
        <pt x="381" y="328" on="1"/>
        <pt x="385" y="349" on="0"/>
        <pt x="385" y="406" on="0"/>
        <pt x="367" y="432" on="1"/>
        <pt x="341" y="471" on="0"/>
        <pt x="293" y="471" on="1"/>
        <pt x="154" y="471" on="0"/>
        <pt x="154" y="242" on="1"/>
        <pt x="154" y="130" on="0"/>
        <pt x="219" y="17" on="0"/>
        <pt x="292" y="17" on="1"/>
        <pt x="385" y="17" on="0"/>
        <pt x="441" y="107" on="1"/>
        <pt x="463" y="100" on="0"/>
        <pt x="463" y="71" on="0"/>
        <pt x="426" y="28" on="0"/>
        <pt x="335" y="-11" on="0"/>
        <pt x="276" y="-11" on="1"/>
        <pt x="173" y="-11" on="0"/>
        <pt x="46" y="129" on="0"/>
        <pt x="46" y="359" on="0"/>
        <pt x="183" y="499" on="0"/>
      </contour>
    </TTGlyph>
    <TTGlyph name="caron" xMin="100" yMin="544" xMax="423" yMax="749">
      <contour>
        <pt x="423" y="730" on="1"/>
        <pt x="286" y="544" on="1"/>
        <pt x="236" y="544" on="1"/>
        <pt x="100" y="730" on="1"/>
        <pt x="131" y="749" on="1"/>
        <pt x="261" y="623" on="1"/>
        <pt x="392" y="749" on="1"/>
      </contour>
    </TTGlyph>
    <TTGlyph name="ccedilla" xMin="46" yMin="-217" xMax="470" yMax="499">
      <contour>
        <pt x="298" y="499" on="1"/>
        <pt x="354" y="499" on="0"/>
        <pt x="406" y="475" on="1"/>
        <pt x="435" y="462" on="0"/>
        <pt x="470" y="408" on="0"/>
        <pt x="470" y="336" on="0"/>
        <pt x="438" y="323" on="1"/>
        <pt x="425" y="318" on="0"/>
        <pt x="396" y="318" on="0"/>
        <pt x="381" y="328" on="1"/>
        <pt x="385" y="349" on="0"/>
        <pt x="385" y="406" on="0"/>
        <pt x="367" y="432" on="1"/>
        <pt x="341" y="471" on="0"/>
        <pt x="293" y="471" on="1"/>
        <pt x="154" y="471" on="0"/>
        <pt x="154" y="242" on="1"/>
        <pt x="154" y="130" on="0"/>
        <pt x="219" y="17" on="0"/>
        <pt x="292" y="17" on="1"/>
        <pt x="385" y="17" on="0"/>
        <pt x="441" y="107" on="1"/>
        <pt x="463" y="100" on="0"/>
        <pt x="463" y="71" on="0"/>
        <pt x="426" y="28" on="0"/>
        <pt x="335" y="-11" on="0"/>
        <pt x="276" y="-11" on="1"/>
        <pt x="173" y="-11" on="0"/>
        <pt x="46" y="129" on="0"/>
        <pt x="46" y="359" on="0"/>
        <pt x="183" y="499" on="0"/>
      </contour>
      <contour>
        <pt x="255" y="-68" on="1"/>
        <pt x="277" y="-56" on="0"/>
        <pt x="347" y="-56" on="0"/>
        <pt x="398" y="-96" on="0"/>
        <pt x="398" y="-128" on="1"/>
        <pt x="398" y="-175" on="0"/>
        <pt x="325" y="-217" on="0"/>
        <pt x="234" y="-217" on="0"/>
        <pt x="172" y="-192" on="1"/>
        <pt x="180" y="-175" on="1"/>
        <pt x="218" y="-189" on="0"/>
        <pt x="251" y="-189" on="1"/>
        <pt x="318" y="-189" on="0"/>
        <pt x="318" y="-131" on="1"/>
        <pt x="318" y="-84" on="0"/>
        <pt x="279" y="-84" on="1"/>
        <pt x="258" y="-84" on="0"/>
        <pt x="237" y="-91" on="1"/>
        <pt x="216" y="-82" on="1"/>
        <pt x="267" y="8" on="1"/>
        <pt x="295" y="8" on="1"/>
        <pt x="253" y="-65" on="1"/>
      </contour>
    </TTGlyph>
    <TTGlyph name="cedilla" xMin="63" yMin="-217" xMax="289" yMax="8">
      <contour>
        <pt x="146" y="-68" on="1"/>
        <pt x="168" y="-56" on="0"/>
        <pt x="238" y="-56" on="0"/>
        <pt x="289" y="-96" on="0"/>
        <pt x="289" y="-128" on="1"/>
        <pt x="289" y="-175" on="0"/>
        <pt x="216" y="-217" on="0"/>
        <pt x="126" y="-217" on="0"/>
        <pt x="63" y="-192" on="1"/>
        <pt x="71" y="-175" on="1"/>
        <pt x="109" y="-189" on="0"/>
        <pt x="142" y="-189" on="1"/>
        <pt x="209" y="-189" on="0"/>
        <pt x="209" y="-131" on="1"/>
        <pt x="209" y="-84" on="0"/>
        <pt x="170" y="-84" on="1"/>
        <pt x="149" y="-84" on="0"/>
        <pt x="128" y="-91" on="1"/>
        <pt x="107" y="-82" on="1"/>
        <pt x="158" y="8" on="1"/>
        <pt x="186" y="8" on="1"/>
        <pt x="144" y="-65" on="1"/>
      </contour>
    </TTGlyph>
    <TTGlyph name="cent" xMin="55" yMin="0" xMax="479" yMax="678">
      <contour>
        <pt x="269" y="0" on="1"/>
        <pt x="269" y="83" on="1"/>
        <pt x="172" y="89" on="0"/>
        <pt x="55" y="227" on="0"/>
        <pt x="55" y="443" on="0"/>
        <pt x="170" y="580" on="0"/>
        <pt x="270" y="591" on="1"/>
        <pt x="270" y="678" on="1"/>
        <pt x="315" y="678" on="1"/>
        <pt x="315" y="593" on="1"/>
        <pt x="368" y="591" on="0"/>
        <pt x="420" y="566" on="1"/>
        <pt x="447" y="553" on="0"/>
        <pt x="479" y="500" on="0"/>
        <pt x="479" y="430" on="0"/>
        <pt x="447" y="417" on="1"/>
        <pt x="434" y="412" on="0"/>
        <pt x="405" y="412" on="0"/>
        <pt x="390" y="422" on="1"/>
        <pt x="394" y="443" on="0"/>
        <pt x="394" y="500" on="0"/>
        <pt x="376" y="526" on="1"/>
        <pt x="350" y="565" on="0"/>
        <pt x="302" y="565" on="1"/>
        <pt x="163" y="565" on="0"/>
        <pt x="163" y="336" on="1"/>
        <pt x="163" y="224" on="0"/>
        <pt x="228" y="111" on="0"/>
        <pt x="301" y="111" on="1"/>
        <pt x="394" y="111" on="0"/>
        <pt x="450" y="201" on="1"/>
        <pt x="472" y="194" on="0"/>
        <pt x="472" y="180" on="1"/>
        <pt x="472" y="156" on="0"/>
        <pt x="387" y="90" on="0"/>
        <pt x="314" y="84" on="1"/>
        <pt x="314" y="0" on="1"/>
      </contour>
    </TTGlyph>
    <TTGlyph name="circumflex" xMin="49" yMin="536" xMax="372" yMax="741">
      <contour>
        <pt x="49" y="555" on="1"/>
        <pt x="186" y="741" on="1"/>
        <pt x="236" y="741" on="1"/>
        <pt x="372" y="555" on="1"/>
        <pt x="341" y="536" on="1"/>
        <pt x="211" y="662" on="1"/>
        <pt x="80" y="536" on="1"/>
      </contour>
    </TTGlyph>
    <TTGlyph name="colon" xMin="68" yMin="-12" xMax="187" yMax="444">
      <contour>
        <pt x="187" y="23" on="0"/>
        <pt x="153" y="-12" on="0"/>
        <pt x="102" y="-12" on="0"/>
        <pt x="68" y="22" on="0"/>
        <pt x="68" y="73" on="0"/>
        <pt x="102" y="108" on="0"/>
        <pt x="152" y="108" on="0"/>
        <pt x="187" y="72" on="0"/>
      </contour>
      <contour>
        <pt x="187" y="359" on="0"/>
        <pt x="153" y="324" on="0"/>
        <pt x="102" y="324" on="0"/>
        <pt x="68" y="358" on="0"/>
        <pt x="68" y="409" on="0"/>
        <pt x="102" y="444" on="0"/>
        <pt x="152" y="444" on="0"/>
        <pt x="187" y="408" on="0"/>
      </contour>
    </TTGlyph>
    <TTGlyph name="comma" xMin="52" yMin="-143" xMax="190" yMax="109">
      <contour>
        <pt x="190" y="28" on="1"/>
        <pt x="190" y="-29" on="0"/>
        <pt x="100" y="-129" on="0"/>
        <pt x="68" y="-143" on="1"/>
        <pt x="52" y="-121" on="1"/>
        <pt x="84" y="-104" on="0"/>
        <pt x="128" y="-40" on="0"/>
        <pt x="132" y="-5" on="1"/>
        <pt x="122" y="-11" on="0"/>
        <pt x="84" y="-11" on="0"/>
        <pt x="58" y="22" on="0"/>
        <pt x="58" y="77" on="0"/>
        <pt x="97" y="109" on="0"/>
        <pt x="155" y="109" on="0"/>
        <pt x="190" y="69" on="0"/>
      </contour>
    </TTGlyph>
    <TTGlyph name="copyright" xMin="56" yMin="-15" xMax="732" yMax="679">
      <contour>
        <pt x="540" y="679" on="0"/>
        <pt x="732" y="478" on="0"/>
        <pt x="732" y="182" on="0"/>
        <pt x="542" y="-15" on="0"/>
        <pt x="248" y="-15" on="0"/>
        <pt x="56" y="183" on="0"/>
        <pt x="56" y="479" on="0"/>
        <pt x="247" y="679" on="0"/>
      </contour>
      <contour>
        <pt x="527" y="24" on="0"/>
        <pt x="685" y="198" on="0"/>
        <pt x="685" y="460" on="0"/>
        <pt x="521" y="642" on="0"/>
        <pt x="263" y="642" on="0"/>
        <pt x="104" y="465" on="0"/>
        <pt x="104" y="204" on="0"/>
        <pt x="268" y="24" on="0"/>
      </contour>
      <contour>
        <pt x="413" y="540" on="1"/>
        <pt x="461" y="540" on="0"/>
        <pt x="504" y="520" on="1"/>
        <pt x="527" y="509" on="0"/>
        <pt x="556" y="464" on="0"/>
        <pt x="556" y="404" on="0"/>
        <pt x="530" y="394" on="1"/>
        <pt x="519" y="389" on="0"/>
        <pt x="494" y="389" on="0"/>
        <pt x="482" y="398" on="1"/>
        <pt x="486" y="416" on="0"/>
        <pt x="486" y="464" on="0"/>
        <pt x="471" y="485" on="1"/>
        <pt x="449" y="517" on="0"/>
        <pt x="409" y="517" on="1"/>
        <pt x="292" y="517" on="0"/>
        <pt x="292" y="326" on="1"/>
        <pt x="292" y="232" on="0"/>
        <pt x="346" y="138" on="0"/>
        <pt x="407" y="138" on="1"/>
        <pt x="486" y="138" on="0"/>
        <pt x="532" y="213" on="1"/>
        <pt x="551" y="207" on="0"/>
        <pt x="551" y="196" on="1"/>
        <pt x="551" y="183" on="0"/>
        <pt x="520" y="147" on="0"/>
        <pt x="443" y="114" on="0"/>
        <pt x="394" y="114" on="1"/>
        <pt x="308" y="114" on="0"/>
        <pt x="202" y="231" on="0"/>
        <pt x="202" y="424" on="0"/>
        <pt x="316" y="540" on="0"/>
      </contour>
    </TTGlyph>
    <TTGlyph name="currency" xMin="70" yMin="94" xMax="546" yMax="573">
      <contour>
        <pt x="434" y="163" on="1"/>
        <pt x="379" y="123" on="0"/>
        <pt x="236" y="123" on="0"/>
        <pt x="181" y="164" on="1"/>
        <pt x="118" y="96" on="1"/>
        <pt x="70" y="144" on="1"/>
        <pt x="138" y="210" on="1"/>
        <pt x="104" y="263" on="0"/>
        <pt x="104" y="404" on="0"/>
        <pt x="140" y="457" on="1"/>
        <pt x="70" y="525" on="1"/>
        <pt x="118" y="573" on="1"/>
        <pt x="183" y="503" on="1"/>
        <pt x="235" y="541" on="0"/>
        <pt x="377" y="541" on="0"/>
        <pt x="431" y="501" on="1"/>
        <pt x="496" y="571" on="1"/>
        <pt x="544" y="523" on="1"/>
        <pt x="475" y="456" on="1"/>
        <pt x="511" y="402" on="0"/>
        <pt x="511" y="262" on="0"/>
        <pt x="477" y="209" on="1"/>
        <pt x="546" y="142" on="1"/>
        <pt x="498" y="94" on="1"/>
      </contour>
      <contour>
        <pt x="370" y="178" on="0"/>
        <pt x="450" y="260" on="0"/>
        <pt x="450" y="395" on="0"/>
        <pt x="370" y="486" on="0"/>
        <pt x="241" y="486" on="0"/>
        <pt x="164" y="405" on="0"/>
        <pt x="164" y="266" on="0"/>
        <pt x="246" y="178" on="0"/>
      </contour>
    </TTGlyph>
    <TTGlyph name="d" xMin="46" yMin="-16" xMax="607" yMax="766">
      <contour>
        <pt x="425" y="153" on="1"/>
        <pt x="425" y="428" on="1"/>
        <pt x="377" y="465" on="0"/>
        <pt x="306" y="465" on="1"/>
        <pt x="217" y="465" on="0"/>
        <pt x="184" y="392" on="1"/>
        <pt x="157" y="330" on="0"/>
        <pt x="157" y="223" on="1"/>
        <pt x="157" y="16" on="0"/>
        <pt x="269" y="16" on="1"/>
        <pt x="332" y="16" on="0"/>
        <pt x="425" y="112" on="0"/>
      </contour>
      <contour>
        <pt x="250" y="-15" on="1"/>
        <pt x="164" y="-15" on="0"/>
        <pt x="46" y="108" on="0"/>
        <pt x="46" y="353" on="0"/>
        <pt x="189" y="495" on="0"/>
        <pt x="308" y="495" on="1"/>
        <pt x="370" y="495" on="0"/>
        <pt x="425" y="466" on="1"/>
        <pt x="425" y="718" on="1"/>
        <pt x="337" y="722" on="1"/>
        <pt x="336" y="745" on="1"/>
        <pt x="521" y="766" on="1"/>
        <pt x="521" y="23" on="1"/>
        <pt x="606" y="19" on="1"/>
        <pt x="607" y="-4" on="1"/>
        <pt x="430" y="-16" on="1"/>
        <pt x="432" y="80" on="1"/>
        <pt x="426" y="80" on="1"/>
        <pt x="402" y="35" on="0"/>
        <pt x="304" y="-15" on="0"/>
      </contour>
    </TTGlyph>
    <TTGlyph name="dagger" xMin="33" yMin="-270" xMax="421" yMax="676">
      <contour>
        <pt x="421" y="485" on="1"/>
        <pt x="421" y="412" on="1"/>
        <pt x="253" y="425" on="1"/>
        <pt x="275" y="-270" on="1"/>
        <pt x="179" y="-270" on="1"/>
        <pt x="201" y="425" on="1"/>
        <pt x="33" y="412" on="1"/>
        <pt x="33" y="485" on="1"/>
        <pt x="201" y="470" on="1"/>
        <pt x="183" y="676" on="1"/>
        <pt x="271" y="676" on="1"/>
        <pt x="253" y="470" on="1"/>
      </contour>
    </TTGlyph>
    <TTGlyph name="daggerdbl" xMin="54" yMin="-270" xMax="442" yMax="676">
      <contour>
        <pt x="222" y="-19" on="1"/>
        <pt x="222" y="425" on="1"/>
        <pt x="54" y="412" on="1"/>
        <pt x="54" y="485" on="1"/>
        <pt x="222" y="470" on="1"/>
        <pt x="204" y="676" on="1"/>
        <pt x="292" y="676" on="1"/>
        <pt x="274" y="470" on="1"/>
        <pt x="442" y="485" on="1"/>
        <pt x="442" y="412" on="1"/>
        <pt x="274" y="425" on="1"/>
        <pt x="274" y="-19" on="1"/>
        <pt x="442" y="-6" on="1"/>
        <pt x="442" y="-79" on="1"/>
        <pt x="274" y="-64" on="1"/>
        <pt x="292" y="-270" on="1"/>
        <pt x="204" y="-270" on="1"/>
        <pt x="222" y="-64" on="1"/>
        <pt x="54" y="-79" on="1"/>
        <pt x="54" y="-6" on="1"/>
      </contour>
    </TTGlyph>
    <TTGlyph name="degree" xMin="48" yMin="471" xMax="284" yMax="695">
      <contour>
        <pt x="219" y="695" on="0"/>
        <pt x="284" y="632" on="0"/>
        <pt x="284" y="535" on="0"/>
        <pt x="216" y="471" on="0"/>
        <pt x="109" y="471" on="0"/>
        <pt x="48" y="533" on="0"/>
        <pt x="48" y="629" on="0"/>
        <pt x="118" y="695" on="0"/>
      </contour>
      <contour>
        <pt x="199" y="509" on="0"/>
        <pt x="238" y="550" on="0"/>
        <pt x="238" y="615" on="0"/>
        <pt x="198" y="656" on="0"/>
        <pt x="134" y="656" on="0"/>
        <pt x="93" y="614" on="0"/>
        <pt x="93" y="549" on="0"/>
        <pt x="133" y="509" on="0"/>
      </contour>
    </TTGlyph>
    <TTGlyph name="dieresis" xMin="79" yMin="562" xMax="380" yMax="678">
      <contour>
        <pt x="194" y="596" on="0"/>
        <pt x="161" y="562" on="0"/>
        <pt x="112" y="562" on="0"/>
        <pt x="79" y="595" on="0"/>
        <pt x="79" y="644" on="0"/>
        <pt x="112" y="678" on="0"/>
        <pt x="161" y="678" on="0"/>
        <pt x="194" y="644" on="0"/>
      </contour>
      <contour>
        <pt x="380" y="596" on="0"/>
        <pt x="347" y="562" on="0"/>
        <pt x="298" y="562" on="0"/>
        <pt x="265" y="595" on="0"/>
        <pt x="265" y="644" on="0"/>
        <pt x="298" y="678" on="0"/>
        <pt x="347" y="678" on="0"/>
        <pt x="380" y="644" on="0"/>
      </contour>
    </TTGlyph>
    <TTGlyph name="divide" xMin="67" yMin="25" xMax="446" yMax="427">
      <contour>
        <pt x="310" y="395" on="0"/>
        <pt x="310" y="347" on="0"/>
        <pt x="277" y="315" on="0"/>
        <pt x="230" y="315" on="0"/>
        <pt x="199" y="348" on="0"/>
        <pt x="199" y="394" on="0"/>
        <pt x="232" y="427" on="0"/>
        <pt x="278" y="427" on="0"/>
      </contour>
      <contour>
        <pt x="446" y="198" on="1"/>
        <pt x="67" y="198" on="1"/>
        <pt x="67" y="253" on="1"/>
        <pt x="446" y="253" on="1"/>
      </contour>
      <contour>
        <pt x="310" y="105" on="0"/>
        <pt x="310" y="57" on="0"/>
        <pt x="277" y="25" on="0"/>
        <pt x="230" y="25" on="0"/>
        <pt x="199" y="58" on="0"/>
        <pt x="199" y="104" on="0"/>
        <pt x="232" y="137" on="0"/>
        <pt x="278" y="137" on="0"/>
      </contour>
    </TTGlyph>
    <TTGlyph name="dollar" xMin="36" yMin="-130" xMax="523" yMax="800">
      <contour>
        <pt x="273" y="800" on="1"/>
        <pt x="319" y="800" on="1"/>
        <pt x="319" y="683" on="1"/>
        <pt x="399" y="683" on="0"/>
        <pt x="512" y="613" on="0"/>
        <pt x="512" y="557" on="1"/>
        <pt x="512" y="527" on="0"/>
        <pt x="470" y="492" on="0"/>
        <pt x="428" y="492" on="0"/>
        <pt x="411" y="497" on="1"/>
        <pt x="415" y="518" on="0"/>
        <pt x="415" y="586" on="0"/>
        <pt x="368" y="651" on="0"/>
        <pt x="319" y="657" on="1"/>
        <pt x="319" y="382" on="1"/>
        <pt x="346" y="374" on="0"/>
        <pt x="431" y="336" on="0"/>
        <pt x="456" y="318" on="0"/>
        <pt x="492" y="286" on="0"/>
        <pt x="501" y="270" on="1"/>
        <pt x="523" y="229" on="0"/>
        <pt x="523" y="181" on="1"/>
        <pt x="523" y="105" on="0"/>
        <pt x="411" y="2" on="0"/>
        <pt x="319" y="-9" on="1"/>
        <pt x="319" y="-130" on="1"/>
        <pt x="273" y="-130" on="1"/>
        <pt x="273" y="-12" on="1"/>
        <pt x="145" y="-10" on="0"/>
        <pt x="76" y="38" on="1"/>
        <pt x="36" y="66" on="0"/>
        <pt x="36" y="105" on="1"/>
        <pt x="36" y="154" on="0"/>
        <pt x="107" y="172" on="1"/>
        <pt x="122" y="90" on="0"/>
        <pt x="214" y="18" on="0"/>
        <pt x="273" y="14" on="1"/>
        <pt x="273" y="293" on="1"/>
        <pt x="140" y="346" on="0"/>
        <pt x="106" y="386" on="1"/>
        <pt x="66" y="430" on="0"/>
        <pt x="66" y="565" on="0"/>
        <pt x="170" y="670" on="0"/>
        <pt x="273" y="681" on="1"/>
      </contour>
      <contour>
        <pt x="366" y="24" on="0"/>
        <pt x="430" y="88" on="0"/>
        <pt x="430" y="191" on="0"/>
        <pt x="373" y="249" on="0"/>
        <pt x="319" y="273" on="1"/>
        <pt x="319" y="16" on="1"/>
      </contour>
      <contour>
        <pt x="222" y="648" on="0"/>
        <pt x="164" y="576" on="0"/>
        <pt x="164" y="478" on="0"/>
        <pt x="221" y="422" on="0"/>
        <pt x="273" y="400" on="1"/>
        <pt x="273" y="656" on="1"/>
      </contour>
    </TTGlyph>
    <TTGlyph name="dotaccent" xMin="71" yMin="592" xMax="190" yMax="712">
      <contour>
        <pt x="190" y="627" on="0"/>
        <pt x="156" y="592" on="0"/>
        <pt x="105" y="592" on="0"/>
        <pt x="71" y="626" on="0"/>
        <pt x="71" y="677" on="0"/>
        <pt x="105" y="712" on="0"/>
        <pt x="155" y="712" on="0"/>
        <pt x="190" y="676" on="0"/>
      </contour>
    </TTGlyph>
    <TTGlyph name="dotlessi" xMin="18" yMin="0" xMax="270" yMax="493">
      <contour>
        <pt x="270" y="0" on="1"/>
        <pt x="40" y="0" on="1"/>
        <pt x="40" y="24" on="1"/>
        <pt x="106" y="29" on="1"/>
        <pt x="106" y="454" on="1"/>
        <pt x="18" y="457" on="1"/>
        <pt x="18" y="480" on="1"/>
        <pt x="204" y="493" on="1"/>
        <pt x="204" y="29" on="1"/>
        <pt x="270" y="24" on="1"/>
      </contour>
    </TTGlyph>
    <TTGlyph name="e" xMin="46" yMin="-11" xMax="481" yMax="499">
      <contour>
        <pt x="172" y="-11" on="0"/>
        <pt x="46" y="129" on="0"/>
        <pt x="46" y="359" on="0"/>
        <pt x="179" y="499" on="0"/>
        <pt x="381" y="499" on="0"/>
        <pt x="481" y="408" on="0"/>
        <pt x="481" y="327" on="1"/>
        <pt x="481" y="303" on="0"/>
        <pt x="477" y="279" on="1"/>
        <pt x="154" y="279" on="1"/>
        <pt x="154" y="244" on="1"/>
        <pt x="154" y="132" on="0"/>
        <pt x="218" y="17" on="0"/>
        <pt x="291" y="17" on="1"/>
        <pt x="394" y="17" on="0"/>
        <pt x="450" y="107" on="1"/>
        <pt x="472" y="100" on="0"/>
        <pt x="472" y="86" on="1"/>
        <pt x="472" y="61" on="0"/>
        <pt x="426" y="28" on="1"/>
        <pt x="404" y="12" on="0"/>
        <pt x="324" y="-11" on="0"/>
        <pt x="275" y="-11" on="1"/>
      </contour>
      <contour>
        <pt x="386" y="348" on="1"/>
        <pt x="386" y="394" on="0"/>
        <pt x="367" y="427" on="1"/>
        <pt x="341" y="471" on="0"/>
        <pt x="283" y="471" on="1"/>
        <pt x="175" y="471" on="0"/>
        <pt x="157" y="315" on="1"/>
        <pt x="384" y="315" on="1"/>
        <pt x="386" y="332" on="0"/>
      </contour>
    </TTGlyph>
    <TTGlyph name="eacute" xMin="46" yMin="-11" xMax="481" yMax="759">
      <contour>
        <pt x="46" y="359" on="0"/>
        <pt x="179" y="499" on="0"/>
        <pt x="381" y="499" on="0"/>
        <pt x="481" y="408" on="0"/>
        <pt x="481" y="327" on="1"/>
        <pt x="481" y="303" on="0"/>
        <pt x="477" y="279" on="1"/>
        <pt x="154" y="279" on="1"/>
        <pt x="154" y="244" on="1"/>
        <pt x="154" y="132" on="0"/>
        <pt x="218" y="17" on="0"/>
        <pt x="291" y="17" on="1"/>
        <pt x="394" y="17" on="0"/>
        <pt x="450" y="107" on="1"/>
        <pt x="472" y="100" on="0"/>
        <pt x="472" y="86" on="1"/>
        <pt x="472" y="61" on="0"/>
        <pt x="426" y="28" on="1"/>
        <pt x="404" y="12" on="0"/>
        <pt x="324" y="-11" on="0"/>
        <pt x="275" y="-11" on="1"/>
        <pt x="172" y="-11" on="0"/>
        <pt x="46" y="129" on="0"/>
      </contour>
      <contour>
        <pt x="283" y="471" on="1"/>
        <pt x="175" y="471" on="0"/>
        <pt x="157" y="315" on="1"/>
        <pt x="384" y="315" on="1"/>
        <pt x="386" y="332" on="0"/>
        <pt x="386" y="348" on="1"/>
        <pt x="386" y="394" on="0"/>
        <pt x="367" y="427" on="1"/>
        <pt x="341" y="471" on="0"/>
      </contour>
      <contour>
        <pt x="297" y="742" on="0"/>
        <pt x="309" y="759" on="1"/>
        <pt x="362" y="725" on="0"/>
        <pt x="362" y="701" on="1"/>
        <pt x="362" y="690" on="0"/>
        <pt x="348" y="675" on="1"/>
        <pt x="269" y="602" on="0"/>
        <pt x="202" y="550" on="1"/>
        <pt x="184" y="566" on="0"/>
        <pt x="180" y="571" on="1"/>
      </contour>
    </TTGlyph>
    <TTGlyph name="ecircumflex" xMin="46" yMin="-11" xMax="481" yMax="741">
      <contour>
        <pt x="46" y="359" on="0"/>
        <pt x="179" y="499" on="0"/>
        <pt x="381" y="499" on="0"/>
        <pt x="481" y="408" on="0"/>
        <pt x="481" y="327" on="1"/>
        <pt x="481" y="303" on="0"/>
        <pt x="477" y="279" on="1"/>
        <pt x="154" y="279" on="1"/>
        <pt x="154" y="244" on="1"/>
        <pt x="154" y="132" on="0"/>
        <pt x="218" y="17" on="0"/>
        <pt x="291" y="17" on="1"/>
        <pt x="394" y="17" on="0"/>
        <pt x="450" y="107" on="1"/>
        <pt x="472" y="100" on="0"/>
        <pt x="472" y="86" on="1"/>
        <pt x="472" y="61" on="0"/>
        <pt x="426" y="28" on="1"/>
        <pt x="404" y="12" on="0"/>
        <pt x="324" y="-11" on="0"/>
        <pt x="275" y="-11" on="1"/>
        <pt x="172" y="-11" on="0"/>
        <pt x="46" y="129" on="0"/>
      </contour>
      <contour>
        <pt x="283" y="471" on="1"/>
        <pt x="175" y="471" on="0"/>
        <pt x="157" y="315" on="1"/>
        <pt x="384" y="315" on="1"/>
        <pt x="386" y="332" on="0"/>
        <pt x="386" y="348" on="1"/>
        <pt x="386" y="394" on="0"/>
        <pt x="367" y="427" on="1"/>
        <pt x="341" y="471" on="0"/>
      </contour>
      <contour>
        <pt x="123" y="555" on="1"/>
        <pt x="260" y="741" on="1"/>
        <pt x="310" y="741" on="1"/>
        <pt x="446" y="555" on="1"/>
        <pt x="415" y="536" on="1"/>
        <pt x="285" y="662" on="1"/>
        <pt x="154" y="536" on="1"/>
      </contour>
    </TTGlyph>
    <TTGlyph name="edieresis" xMin="46" yMin="-11" xMax="481" yMax="678">
      <contour>
        <pt x="46" y="359" on="0"/>
        <pt x="179" y="499" on="0"/>
        <pt x="381" y="499" on="0"/>
        <pt x="481" y="408" on="0"/>
        <pt x="481" y="327" on="1"/>
        <pt x="481" y="303" on="0"/>
        <pt x="477" y="279" on="1"/>
        <pt x="154" y="279" on="1"/>
        <pt x="154" y="244" on="1"/>
        <pt x="154" y="132" on="0"/>
        <pt x="218" y="17" on="0"/>
        <pt x="291" y="17" on="1"/>
        <pt x="394" y="17" on="0"/>
        <pt x="450" y="107" on="1"/>
        <pt x="472" y="100" on="0"/>
        <pt x="472" y="86" on="1"/>
        <pt x="472" y="61" on="0"/>
        <pt x="426" y="28" on="1"/>
        <pt x="404" y="12" on="0"/>
        <pt x="324" y="-11" on="0"/>
        <pt x="275" y="-11" on="1"/>
        <pt x="172" y="-11" on="0"/>
        <pt x="46" y="129" on="0"/>
      </contour>
      <contour>
        <pt x="283" y="471" on="1"/>
        <pt x="175" y="471" on="0"/>
        <pt x="157" y="315" on="1"/>
        <pt x="384" y="315" on="1"/>
        <pt x="386" y="332" on="0"/>
        <pt x="386" y="348" on="1"/>
        <pt x="386" y="394" on="0"/>
        <pt x="367" y="427" on="1"/>
        <pt x="341" y="471" on="0"/>
      </contour>
      <contour>
        <pt x="244" y="596" on="0"/>
        <pt x="211" y="562" on="0"/>
        <pt x="162" y="562" on="0"/>
        <pt x="129" y="595" on="0"/>
        <pt x="129" y="644" on="0"/>
        <pt x="162" y="678" on="0"/>
        <pt x="211" y="678" on="0"/>
        <pt x="244" y="644" on="0"/>
      </contour>
      <contour>
        <pt x="430" y="596" on="0"/>
        <pt x="397" y="562" on="0"/>
        <pt x="348" y="562" on="0"/>
        <pt x="315" y="595" on="0"/>
        <pt x="315" y="644" on="0"/>
        <pt x="348" y="678" on="0"/>
        <pt x="397" y="678" on="0"/>
        <pt x="430" y="644" on="0"/>
      </contour>
    </TTGlyph>
    <TTGlyph name="egrave" xMin="46" yMin="-11" xMax="481" yMax="759">
      <contour>
        <pt x="46" y="359" on="0"/>
        <pt x="179" y="499" on="0"/>
        <pt x="381" y="499" on="0"/>
        <pt x="481" y="408" on="0"/>
        <pt x="481" y="327" on="1"/>
        <pt x="481" y="303" on="0"/>
        <pt x="477" y="279" on="1"/>
        <pt x="154" y="279" on="1"/>
        <pt x="154" y="244" on="1"/>
        <pt x="154" y="132" on="0"/>
        <pt x="218" y="17" on="0"/>
        <pt x="291" y="17" on="1"/>
        <pt x="394" y="17" on="0"/>
        <pt x="450" y="107" on="1"/>
        <pt x="472" y="100" on="0"/>
        <pt x="472" y="86" on="1"/>
        <pt x="472" y="61" on="0"/>
        <pt x="426" y="28" on="1"/>
        <pt x="404" y="12" on="0"/>
        <pt x="324" y="-11" on="0"/>
        <pt x="275" y="-11" on="1"/>
        <pt x="172" y="-11" on="0"/>
        <pt x="46" y="129" on="0"/>
      </contour>
      <contour>
        <pt x="283" y="471" on="1"/>
        <pt x="175" y="471" on="0"/>
        <pt x="157" y="315" on="1"/>
        <pt x="384" y="315" on="1"/>
        <pt x="386" y="332" on="0"/>
        <pt x="386" y="348" on="1"/>
        <pt x="386" y="394" on="0"/>
        <pt x="367" y="427" on="1"/>
        <pt x="341" y="471" on="0"/>
      </contour>
      <contour>
        <pt x="190" y="675" on="1"/>
        <pt x="176" y="690" on="0"/>
        <pt x="176" y="700" on="1"/>
        <pt x="176" y="725" on="0"/>
        <pt x="229" y="759" on="1"/>
        <pt x="241" y="742" on="0"/>
        <pt x="358" y="571" on="1"/>
        <pt x="354" y="566" on="0"/>
        <pt x="336" y="550" on="1"/>
        <pt x="269" y="602" on="0"/>
      </contour>
    </TTGlyph>
    <TTGlyph name="eight" xMin="57" yMin="-11" xMax="509" yMax="683">
      <contour>
        <pt x="509" y="102" on="0"/>
        <pt x="379" y="-11" on="0"/>
        <pt x="170" y="-11" on="0"/>
        <pt x="57" y="81" on="0"/>
        <pt x="57" y="220" on="0"/>
        <pt x="144" y="319" on="0"/>
        <pt x="218" y="340" on="1"/>
        <pt x="154" y="374" on="0"/>
        <pt x="88" y="451" on="0"/>
        <pt x="88" y="512" on="1"/>
        <pt x="88" y="591" on="0"/>
        <pt x="200" y="683" on="0"/>
        <pt x="388" y="683" on="0"/>
        <pt x="485" y="600" on="0"/>
        <pt x="485" y="470" on="0"/>
        <pt x="395" y="380" on="0"/>
        <pt x="346" y="375" on="1"/>
        <pt x="428" y="333" on="0"/>
        <pt x="509" y="253" on="0"/>
        <pt x="509" y="187" on="1"/>
      </contour>
      <contour>
        <pt x="336" y="20" on="0"/>
        <pt x="417" y="89" on="0"/>
        <pt x="417" y="209" on="0"/>
        <pt x="337" y="282" on="0"/>
        <pt x="258" y="322" on="1"/>
        <pt x="209" y="294" on="0"/>
        <pt x="157" y="203" on="0"/>
        <pt x="157" y="95" on="0"/>
        <pt x="230" y="20" on="0"/>
      </contour>
      <contour>
        <pt x="242" y="654" on="0"/>
        <pt x="173" y="589" on="0"/>
        <pt x="173" y="480" on="0"/>
        <pt x="242" y="418" on="0"/>
        <pt x="311" y="391" on="1"/>
        <pt x="394" y="432" on="0"/>
        <pt x="394" y="538" on="1"/>
        <pt x="394" y="594" on="0"/>
        <pt x="332" y="654" on="0"/>
      </contour>
    </TTGlyph>
    <TTGlyph name="ellipsis" xMin="57" yMin="-12" xMax="654" yMax="108">
      <contour>
        <pt x="176" y="23" on="0"/>
        <pt x="142" y="-12" on="0"/>
        <pt x="91" y="-12" on="0"/>
        <pt x="57" y="22" on="0"/>
        <pt x="57" y="73" on="0"/>
        <pt x="91" y="108" on="0"/>
        <pt x="141" y="108" on="0"/>
        <pt x="176" y="72" on="0"/>
      </contour>
      <contour>
        <pt x="415" y="23" on="0"/>
        <pt x="381" y="-12" on="0"/>
        <pt x="330" y="-12" on="0"/>
        <pt x="296" y="22" on="0"/>
        <pt x="296" y="73" on="0"/>
        <pt x="330" y="108" on="0"/>
        <pt x="380" y="108" on="0"/>
        <pt x="415" y="72" on="0"/>
      </contour>
      <contour>
        <pt x="654" y="23" on="0"/>
        <pt x="620" y="-12" on="0"/>
        <pt x="569" y="-12" on="0"/>
        <pt x="535" y="22" on="0"/>
        <pt x="535" y="73" on="0"/>
        <pt x="569" y="108" on="0"/>
        <pt x="619" y="108" on="0"/>
        <pt x="654" y="72" on="0"/>
      </contour>
    </TTGlyph>
    <TTGlyph name="emdash" xMin="71" yMin="237" xMax="1073" yMax="293">
      <contour>
        <pt x="1073" y="293" on="1"/>
        <pt x="1073" y="237" on="1"/>
        <pt x="71" y="237" on="1"/>
        <pt x="71" y="293" on="1"/>
      </contour>
    </TTGlyph>
    <TTGlyph name="endash" xMin="71" yMin="237" xMax="565" yMax="293">
      <contour>
        <pt x="565" y="293" on="1"/>
        <pt x="565" y="237" on="1"/>
        <pt x="71" y="237" on="1"/>
        <pt x="71" y="293" on="1"/>
      </contour>
    </TTGlyph>
    <TTGlyph name="equal" xMin="76" yMin="137" xMax="526" yMax="328">
      <contour>
        <pt x="526" y="328" on="1"/>
        <pt x="526" y="265" on="1"/>
        <pt x="76" y="265" on="1"/>
        <pt x="76" y="328" on="1"/>
      </contour>
      <contour>
        <pt x="526" y="200" on="1"/>
        <pt x="526" y="137" on="1"/>
        <pt x="76" y="137" on="1"/>
        <pt x="76" y="200" on="1"/>
      </contour>
    </TTGlyph>
    <TTGlyph name="eth" xMin="45" yMin="-11" xMax="544" yMax="794">
      <contour>
        <pt x="295" y="13" on="1"/>
        <pt x="370" y="13" on="0"/>
        <pt x="438" y="146" on="0"/>
        <pt x="438" y="332" on="0"/>
        <pt x="416" y="403" on="1"/>
        <pt x="394" y="434" on="0"/>
        <pt x="329" y="474" on="0"/>
        <pt x="295" y="474" on="1"/>
        <pt x="219" y="474" on="0"/>
        <pt x="154" y="356" on="0"/>
        <pt x="154" y="244" on="1"/>
        <pt x="154" y="13" on="0"/>
      </contour>
      <contour>
        <pt x="468" y="582" on="0"/>
        <pt x="544" y="388" on="0"/>
        <pt x="544" y="137" on="0"/>
        <pt x="411" y="-11" on="0"/>
        <pt x="179" y="-11" on="0"/>
        <pt x="45" y="133" on="0"/>
        <pt x="45" y="355" on="0"/>
        <pt x="179" y="499" on="0"/>
        <pt x="295" y="499" on="1"/>
        <pt x="328" y="499" on="0"/>
        <pt x="387" y="476" on="0"/>
        <pt x="400" y="464" on="1"/>
        <pt x="413" y="453" on="1"/>
        <pt x="403" y="490" on="0"/>
        <pt x="347" y="598" on="0"/>
        <pt x="327" y="622" on="1"/>
        <pt x="264" y="576" on="1"/>
        <pt x="243" y="604" on="1"/>
        <pt x="309" y="652" on="1"/>
        <pt x="250" y="720" on="0"/>
        <pt x="169" y="767" on="1"/>
        <pt x="187" y="794" on="1"/>
        <pt x="214" y="787" on="0"/>
        <pt x="339" y="713" on="0"/>
        <pt x="359" y="691" on="1"/>
        <pt x="427" y="740" on="1"/>
        <pt x="446" y="713" on="1"/>
        <pt x="385" y="668" on="1"/>
      </contour>
    </TTGlyph>
    <TTGlyph name="exclam" xMin="79" yMin="-12" xMax="195" yMax="673">
      <contour>
        <pt x="162" y="-12" on="0"/>
        <pt x="112" y="-12" on="0"/>
        <pt x="79" y="21" on="0"/>
        <pt x="79" y="70" on="0"/>
        <pt x="112" y="105" on="0"/>
        <pt x="161" y="105" on="0"/>
        <pt x="195" y="70" on="0"/>
        <pt x="195" y="22" on="0"/>
      </contour>
      <contour>
        <pt x="149" y="189" on="1"/>
        <pt x="136" y="188" on="1"/>
        <pt x="124" y="188" on="0"/>
        <pt x="110" y="203" on="0"/>
        <pt x="109" y="211" on="1"/>
        <pt x="102" y="254" on="0"/>
        <pt x="85" y="463" on="0"/>
        <pt x="85" y="641" on="0"/>
        <pt x="104" y="660" on="1"/>
        <pt x="116" y="673" on="0"/>
        <pt x="168" y="673" on="0"/>
        <pt x="194" y="669" on="1"/>
        <pt x="177" y="588" on="0"/>
        <pt x="163" y="429" on="1"/>
      </contour>
    </TTGlyph>
    <TTGlyph name="exclamdown" xMin="69" yMin="-260" xMax="185" yMax="425">
      <contour>
        <pt x="102" y="425" on="0"/>
        <pt x="152" y="425" on="0"/>
        <pt x="185" y="391" on="0"/>
        <pt x="185" y="343" on="0"/>
        <pt x="151" y="308" on="0"/>
        <pt x="102" y="308" on="0"/>
        <pt x="69" y="343" on="0"/>
        <pt x="69" y="392" on="0"/>
      </contour>
      <contour>
        <pt x="184" y="-256" on="1"/>
        <pt x="158" y="-260" on="0"/>
        <pt x="106" y="-260" on="0"/>
        <pt x="94" y="-248" on="1"/>
        <pt x="75" y="-228" on="0"/>
        <pt x="75" y="-50" on="0"/>
        <pt x="92" y="159" on="0"/>
        <pt x="99" y="202" on="1"/>
        <pt x="101" y="215" on="0"/>
        <pt x="119" y="225" on="0"/>
        <pt x="129" y="225" on="0"/>
        <pt x="139" y="224" on="1"/>
        <pt x="147" y="-53" on="0"/>
        <pt x="180" y="-232" on="1"/>
      </contour>
    </TTGlyph>
    <TTGlyph name="f" xMin="30" yMin="0" xMax="461" yMax="770">
      <contour>
        <pt x="100" y="462" on="1"/>
        <pt x="30" y="462" on="1"/>
        <pt x="30" y="488" on="1"/>
        <pt x="100" y="488" on="1"/>
        <pt x="100" y="503" on="1"/>
        <pt x="100" y="636" on="0"/>
        <pt x="212" y="770" on="0"/>
        <pt x="316" y="770" on="1"/>
        <pt x="378" y="770" on="0"/>
        <pt x="461" y="723" on="0"/>
        <pt x="461" y="644" on="0"/>
        <pt x="434" y="626" on="1"/>
        <pt x="418" y="615" on="0"/>
        <pt x="387" y="615" on="0"/>
        <pt x="373" y="621" on="1"/>
        <pt x="379" y="649" on="0"/>
        <pt x="379" y="701" on="0"/>
        <pt x="343" y="741" on="0"/>
        <pt x="279" y="741" on="0"/>
        <pt x="234" y="706" on="0"/>
        <pt x="212" y="659" on="0"/>
        <pt x="206" y="620" on="1"/>
        <pt x="198" y="568" on="0"/>
        <pt x="198" y="488" on="1"/>
        <pt x="349" y="488" on="1"/>
        <pt x="349" y="462" on="1"/>
        <pt x="198" y="462" on="1"/>
        <pt x="198" y="29" on="1"/>
        <pt x="310" y="24" on="1"/>
        <pt x="311" y="0" on="1"/>
        <pt x="33" y="0" on="1"/>
        <pt x="32" y="24" on="1"/>
        <pt x="100" y="28" on="1"/>
      </contour>
    </TTGlyph>
    <TTGlyph name="fi" xMin="30" yMin="0" xMax="592" yMax="772">
      <contour>
        <pt x="100" y="462" on="1"/>
        <pt x="30" y="462" on="1"/>
        <pt x="30" y="488" on="1"/>
        <pt x="100" y="488" on="1"/>
        <pt x="100" y="772" on="0"/>
        <pt x="345" y="772" on="1"/>
        <pt x="410" y="772" on="0"/>
        <pt x="495" y="725" on="0"/>
        <pt x="495" y="647" on="0"/>
        <pt x="465" y="628" on="1"/>
        <pt x="448" y="617" on="0"/>
        <pt x="414" y="617" on="0"/>
        <pt x="399" y="623" on="1"/>
        <pt x="406" y="650" on="0"/>
        <pt x="406" y="702" on="0"/>
        <pt x="366" y="743" on="0"/>
        <pt x="328" y="743" on="1"/>
        <pt x="198" y="743" on="0"/>
        <pt x="198" y="488" on="1"/>
        <pt x="359" y="488" on="1"/>
        <pt x="526" y="497" on="1"/>
        <pt x="526" y="29" on="1"/>
        <pt x="592" y="24" on="1"/>
        <pt x="592" y="0" on="1"/>
        <pt x="362" y="0" on="1"/>
        <pt x="362" y="24" on="1"/>
        <pt x="428" y="29" on="1"/>
        <pt x="428" y="462" on="1"/>
        <pt x="198" y="462" on="1"/>
        <pt x="198" y="29" on="1"/>
        <pt x="272" y="24" on="1"/>
        <pt x="272" y="0" on="1"/>
        <pt x="33" y="0" on="1"/>
        <pt x="33" y="24" on="1"/>
        <pt x="100" y="28" on="1"/>
      </contour>
    </TTGlyph>
    <TTGlyph name="five" xMin="37" yMin="-191" xMax="480" yMax="488">
      <contour>
        <pt x="190" y="189" on="1"/>
        <pt x="139" y="189" on="0"/>
        <pt x="94" y="175" on="1"/>
        <pt x="125" y="488" on="1"/>
        <pt x="472" y="488" on="1"/>
        <pt x="466" y="410" on="1"/>
        <pt x="161" y="410" on="1"/>
        <pt x="142" y="228" on="1"/>
        <pt x="195" y="238" on="0"/>
        <pt x="292" y="238" on="0"/>
        <pt x="371" y="217" on="0"/>
        <pt x="440" y="172" on="0"/>
        <pt x="480" y="86" on="0"/>
        <pt x="480" y="27" on="1"/>
        <pt x="480" y="-67" on="0"/>
        <pt x="346" y="-191" on="0"/>
        <pt x="141" y="-191" on="0"/>
        <pt x="37" y="-117" on="0"/>
        <pt x="37" y="-62" on="1"/>
        <pt x="37" y="-26" on="0"/>
        <pt x="60" y="-8" on="1"/>
        <pt x="73" y="1" on="0"/>
        <pt x="105" y="1" on="0"/>
        <pt x="122" y="-5" on="1"/>
        <pt x="119" y="-21" on="0"/>
        <pt x="119" y="-37" on="1"/>
        <pt x="119" y="-80" on="0"/>
        <pt x="144" y="-114" on="1"/>
        <pt x="177" y="-162" on="0"/>
        <pt x="308" y="-162" on="0"/>
        <pt x="375" y="-64" on="0"/>
        <pt x="376" y="10" on="1"/>
        <pt x="376" y="189" on="0"/>
      </contour>
    </TTGlyph>
    <TTGlyph name="fl" xMin="30" yMin="0" xMax="600" yMax="772">
      <contour>
        <pt x="339" y="743" on="1"/>
        <pt x="302" y="743" on="0"/>
        <pt x="247" y="708" on="0"/>
        <pt x="219" y="659" on="0"/>
        <pt x="210" y="622" on="1"/>
        <pt x="198" y="566" on="0"/>
        <pt x="198" y="488" on="1"/>
        <pt x="347" y="488" on="1"/>
        <pt x="347" y="462" on="1"/>
        <pt x="198" y="462" on="1"/>
        <pt x="198" y="29" on="1"/>
        <pt x="272" y="24" on="1"/>
        <pt x="272" y="0" on="1"/>
        <pt x="33" y="0" on="1"/>
        <pt x="33" y="24" on="1"/>
        <pt x="100" y="28" on="1"/>
        <pt x="100" y="462" on="1"/>
        <pt x="30" y="462" on="1"/>
        <pt x="30" y="488" on="1"/>
        <pt x="100" y="488" on="1"/>
        <pt x="100" y="772" on="0"/>
        <pt x="345" y="772" on="1"/>
        <pt x="395" y="772" on="0"/>
        <pt x="438" y="754" on="1"/>
        <pt x="531" y="769" on="1"/>
        <pt x="531" y="31" on="1"/>
        <pt x="600" y="24" on="1"/>
        <pt x="600" y="0" on="1"/>
        <pt x="368" y="0" on="1"/>
        <pt x="368" y="24" on="1"/>
        <pt x="433" y="29" on="1"/>
        <pt x="434" y="621" on="1"/>
        <pt x="434" y="688" on="0"/>
        <pt x="396" y="743" on="0"/>
      </contour>
    </TTGlyph>
    <TTGlyph name="florin" xMin="29" yMin="-275" xMax="744" yMax="732">
      <contour>
        <pt x="660" y="640" on="1"/>
        <pt x="660" y="703" on="0"/>
        <pt x="599" y="703" on="1"/>
        <pt x="567" y="703" on="0"/>
        <pt x="518" y="666" on="0"/>
        <pt x="491" y="618" on="0"/>
        <pt x="481" y="576" on="1"/>
        <pt x="469" y="526" on="0"/>
        <pt x="459" y="443" on="1"/>
        <pt x="458" y="440" on="1"/>
        <pt x="580" y="440" on="1"/>
        <pt x="580" y="414" on="1"/>
        <pt x="456" y="414" on="1"/>
        <pt x="410" y="-8" on="1"/>
        <pt x="395" y="-141" on="0"/>
        <pt x="269" y="-275" on="0"/>
        <pt x="165" y="-275" on="1"/>
        <pt x="102" y="-275" on="0"/>
        <pt x="29" y="-231" on="0"/>
        <pt x="29" y="-195" on="1"/>
        <pt x="29" y="-152" on="0"/>
        <pt x="64" y="-130" on="1"/>
        <pt x="80" y="-120" on="0"/>
        <pt x="111" y="-120" on="0"/>
        <pt x="124" y="-126" on="1"/>
        <pt x="113" y="-155" on="0"/>
        <pt x="113" y="-183" on="1"/>
        <pt x="113" y="-246" on="0"/>
        <pt x="174" y="-246" on="1"/>
        <pt x="206" y="-246" on="0"/>
        <pt x="255" y="-209" on="0"/>
        <pt x="282" y="-162" on="0"/>
        <pt x="292" y="-120" on="1"/>
        <pt x="304" y="-70" on="0"/>
        <pt x="314" y="13" on="1"/>
        <pt x="357" y="414" on="1"/>
        <pt x="261" y="414" on="1"/>
        <pt x="261" y="440" on="1"/>
        <pt x="360" y="440" on="1"/>
        <pt x="363" y="465" on="1"/>
        <pt x="378" y="598" on="0"/>
        <pt x="504" y="732" on="0"/>
        <pt x="608" y="732" on="1"/>
        <pt x="671" y="732" on="0"/>
        <pt x="744" y="688" on="0"/>
        <pt x="744" y="652" on="1"/>
        <pt x="744" y="609" on="0"/>
        <pt x="710" y="588" on="1"/>
        <pt x="693" y="577" on="0"/>
        <pt x="662" y="577" on="0"/>
        <pt x="649" y="583" on="1"/>
        <pt x="660" y="612" on="0"/>
      </contour>
    </TTGlyph>
    <TTGlyph name="four" xMin="19" yMin="-180" xMax="564" yMax="488">
      <contour>
        <pt x="564" y="74" on="1"/>
        <pt x="564" y="22" on="1"/>
        <pt x="429" y="22" on="1"/>
        <pt x="429" y="-180" on="1"/>
        <pt x="334" y="-180" on="1"/>
        <pt x="334" y="22" on="1"/>
        <pt x="33" y="22" on="1"/>
        <pt x="19" y="55" on="1"/>
        <pt x="348" y="488" on="1"/>
        <pt x="429" y="488" on="1"/>
        <pt x="429" y="74" on="1"/>
      </contour>
      <contour>
        <pt x="334" y="73" on="1"/>
        <pt x="334" y="402" on="1"/>
        <pt x="90" y="73" on="1"/>
      </contour>
    </TTGlyph>
    <TTGlyph name="fraction" xMin="5" yMin="-10" xMax="462" yMax="667">
      <contour>
        <pt x="462" y="667" on="1"/>
        <pt x="56" y="-10" on="1"/>
        <pt x="5" y="-10" on="1"/>
        <pt x="412" y="667" on="1"/>
      </contour>
    </TTGlyph>
    <TTGlyph name="g" xMin="36" yMin="-260" xMax="527" yMax="629">
      <contour>
        <pt x="166" y="100" on="1"/>
        <pt x="166" y="77" on="0"/>
        <pt x="231" y="62" on="0"/>
        <pt x="437" y="44" on="0"/>
        <pt x="527" y="-11" on="0"/>
        <pt x="527" y="-72" on="1"/>
        <pt x="527" y="-150" on="0"/>
        <pt x="380" y="-260" on="0"/>
        <pt x="146" y="-260" on="0"/>
        <pt x="36" y="-185" on="0"/>
        <pt x="36" y="-123" on="1"/>
        <pt x="36" y="-82" on="0"/>
        <pt x="90" y="-9" on="0"/>
        <pt x="142" y="6" on="1"/>
        <pt x="81" y="28" on="0"/>
        <pt x="81" y="79" on="1"/>
        <pt x="81" y="109" on="0"/>
        <pt x="143" y="150" on="0"/>
        <pt x="182" y="155" on="1"/>
        <pt x="119" y="173" on="0"/>
        <pt x="51" y="262" on="0"/>
        <pt x="51" y="322" on="1"/>
        <pt x="51" y="399" on="0"/>
        <pt x="166" y="499" on="0"/>
        <pt x="264" y="499" on="1"/>
        <pt x="292" y="499" on="0"/>
        <pt x="325" y="492" on="1"/>
        <pt x="354" y="499" on="0"/>
        <pt x="371" y="522" on="1"/>
        <pt x="389" y="547" on="0"/>
        <pt x="389" y="603" on="0"/>
        <pt x="386" y="623" on="1"/>
        <pt x="400" y="629" on="0"/>
        <pt x="428" y="629" on="0"/>
        <pt x="442" y="622" on="1"/>
        <pt x="469" y="608" on="0"/>
        <pt x="469" y="539" on="0"/>
        <pt x="403" y="487" on="0"/>
        <pt x="357" y="483" on="1"/>
        <pt x="411" y="463" on="0"/>
        <pt x="469" y="378" on="0"/>
        <pt x="469" y="322" on="1"/>
        <pt x="469" y="238" on="0"/>
        <pt x="340" y="146" on="0"/>
        <pt x="246" y="146" on="1"/>
        <pt x="211" y="145" on="0"/>
        <pt x="166" y="116" on="0"/>
      </contour>
      <contour>
        <pt x="113" y="-112" on="1"/>
        <pt x="113" y="-165" on="0"/>
        <pt x="200" y="-228" on="0"/>
        <pt x="339" y="-228" on="0"/>
        <pt x="449" y="-158" on="0"/>
        <pt x="450" y="-105" on="1"/>
        <pt x="450" y="-71" on="0"/>
        <pt x="428" y="-54" on="1"/>
        <pt x="409" y="-39" on="0"/>
        <pt x="341" y="-29" on="0"/>
        <pt x="220" y="-16" on="0"/>
        <pt x="177" y="-7" on="1"/>
        <pt x="150" y="-21" on="0"/>
        <pt x="113" y="-80" on="0"/>
      </contour>
      <contour>
        <pt x="257" y="167" on="1"/>
        <pt x="313" y="167" on="0"/>
        <pt x="367" y="253" on="0"/>
        <pt x="367" y="322" on="1"/>
        <pt x="367" y="477" on="0"/>
        <pt x="264" y="477" on="1"/>
        <pt x="208" y="477" on="0"/>
        <pt x="153" y="394" on="0"/>
        <pt x="153" y="322" on="1"/>
        <pt x="153" y="167" on="0"/>
      </contour>
    </TTGlyph>
    <TTGlyph name="germandbls" xMin="30" yMin="-10" xMax="594" yMax="780">
      <contour>
        <pt x="479" y="526" on="1"/>
        <pt x="450" y="508" on="0"/>
        <pt x="421" y="490" on="1"/>
        <pt x="352" y="447" on="0"/>
        <pt x="352" y="386" on="1"/>
        <pt x="355" y="345" on="0"/>
        <pt x="403" y="302" on="0"/>
        <pt x="489" y="271" on="0"/>
        <pt x="524" y="255" on="0"/>
        <pt x="548" y="238" on="1"/>
        <pt x="594" y="205" on="0"/>
        <pt x="594" y="71" on="0"/>
        <pt x="499" y="-10" on="0"/>
        <pt x="360" y="-10" on="0"/>
        <pt x="256" y="36" on="0"/>
        <pt x="256" y="122" on="0"/>
        <pt x="312" y="135" on="1"/>
        <pt x="329" y="15" on="0"/>
        <pt x="430" y="15" on="1"/>
        <pt x="466" y="15" on="0"/>
        <pt x="521" y="60" on="0"/>
        <pt x="521" y="111" on="1"/>
        <pt x="521" y="146" on="0"/>
        <pt x="463" y="193" on="0"/>
        <pt x="379" y="229" on="0"/>
        <pt x="345" y="247" on="0"/>
        <pt x="322" y="264" on="1"/>
        <pt x="277" y="299" on="0"/>
        <pt x="277" y="365" on="1"/>
        <pt x="277" y="422" on="0"/>
        <pt x="336" y="466" on="1"/>
        <pt x="360" y="485" on="0"/>
        <pt x="385" y="506" on="1"/>
        <pt x="444" y="554" on="0"/>
        <pt x="444" y="632" on="1"/>
        <pt x="444" y="689" on="0"/>
        <pt x="382" y="751" on="0"/>
        <pt x="335" y="751" on="1"/>
        <pt x="285" y="751" on="0"/>
        <pt x="251" y="714" on="1"/>
        <pt x="201" y="658" on="0"/>
        <pt x="201" y="470" on="1"/>
        <pt x="201" y="0" on="1"/>
        <pt x="34" y="0" on="1"/>
        <pt x="34" y="24" on="1"/>
        <pt x="103" y="29" on="1"/>
        <pt x="103" y="456" on="1"/>
        <pt x="30" y="456" on="1"/>
        <pt x="30" y="488" on="1"/>
        <pt x="103" y="488" on="1"/>
        <pt x="103" y="499" on="1"/>
        <pt x="103" y="780" on="0"/>
        <pt x="341" y="780" on="1"/>
        <pt x="443" y="780" on="0"/>
        <pt x="548" y="698" on="0"/>
        <pt x="548" y="569" on="0"/>
      </contour>
    </TTGlyph>
    <TTGlyph name="grave" xMin="95" yMin="550" xMax="277" yMax="759">
      <contour>
        <pt x="109" y="675" on="1"/>
        <pt x="95" y="690" on="0"/>
        <pt x="95" y="700" on="1"/>
        <pt x="95" y="725" on="0"/>
        <pt x="148" y="759" on="1"/>
        <pt x="160" y="742" on="0"/>
        <pt x="277" y="571" on="1"/>
        <pt x="273" y="566" on="0"/>
        <pt x="255" y="550" on="1"/>
        <pt x="188" y="602" on="0"/>
      </contour>
    </TTGlyph>
    <TTGlyph name="gravemayuscula" xMin="95" yMin="718" xMax="298" yMax="904">
      <contour>
        <pt x="114" y="815" on="1"/>
        <pt x="96" y="829" on="0"/>
        <pt x="96" y="839" on="1"/>
        <pt x="96" y="866" on="0"/>
        <pt x="137" y="904" on="1"/>
        <pt x="180" y="863" on="0"/>
        <pt x="298" y="743" on="1"/>
        <pt x="281" y="718" on="1"/>
        <pt x="209" y="755" on="0"/>
      </contour>
    </TTGlyph>
    <TTGlyph name="greater" xMin="60" yMin="2" xMax="498" yMax="459">
      <contour>
        <pt x="423" y="235" on="1"/>
        <pt x="60" y="406" on="1"/>
        <pt x="85" y="459" on="1"/>
        <pt x="498" y="255" on="1"/>
        <pt x="498" y="208" on="1"/>
        <pt x="87" y="2" on="1"/>
        <pt x="60" y="57" on="1"/>
      </contour>
    </TTGlyph>
    <TTGlyph name="guillemotleft" xMin="36" yMin="43" xMax="421" yMax="421">
      <contour>
        <pt x="223" y="421" on="1"/>
        <pt x="244" y="406" on="0"/>
        <pt x="244" y="362" on="0"/>
        <pt x="208" y="307" on="0"/>
        <pt x="165" y="267" on="0"/>
        <pt x="125" y="232" on="0"/>
        <pt x="124" y="231" on="1"/>
        <pt x="164" y="205" on="0"/>
        <pt x="240" y="110" on="0"/>
        <pt x="240" y="57" on="0"/>
        <pt x="211" y="43" on="1"/>
        <pt x="191" y="85" on="0"/>
        <pt x="135" y="144" on="1"/>
        <pt x="100" y="181" on="0"/>
        <pt x="52" y="218" on="1"/>
        <pt x="36" y="231" on="1"/>
        <pt x="118" y="298" on="0"/>
        <pt x="146" y="328" on="1"/>
        <pt x="193" y="379" on="0"/>
        <pt x="215" y="410" on="1"/>
      </contour>
      <contour>
        <pt x="400" y="421" on="1"/>
        <pt x="421" y="406" on="0"/>
        <pt x="421" y="362" on="0"/>
        <pt x="385" y="307" on="0"/>
        <pt x="342" y="267" on="0"/>
        <pt x="302" y="232" on="0"/>
        <pt x="301" y="231" on="1"/>
        <pt x="341" y="205" on="0"/>
        <pt x="417" y="110" on="0"/>
        <pt x="417" y="57" on="0"/>
        <pt x="388" y="43" on="1"/>
        <pt x="368" y="85" on="0"/>
        <pt x="312" y="144" on="1"/>
        <pt x="277" y="181" on="0"/>
        <pt x="229" y="218" on="1"/>
        <pt x="213" y="231" on="1"/>
        <pt x="295" y="298" on="0"/>
        <pt x="323" y="328" on="1"/>
        <pt x="370" y="379" on="0"/>
        <pt x="392" y="410" on="1"/>
      </contour>
    </TTGlyph>
    <TTGlyph name="guillemotright" xMin="68" yMin="43" xMax="453" yMax="421">
      <contour>
        <pt x="278" y="43" on="1"/>
        <pt x="249" y="57" on="0"/>
        <pt x="249" y="110" on="0"/>
        <pt x="278" y="146" on="1"/>
        <pt x="325" y="205" on="0"/>
        <pt x="365" y="231" on="1"/>
        <pt x="364" y="232" on="0"/>
        <pt x="324" y="267" on="0"/>
        <pt x="281" y="307" on="0"/>
        <pt x="245" y="362" on="0"/>
        <pt x="245" y="406" on="0"/>
        <pt x="266" y="421" on="1"/>
        <pt x="318" y="348" on="0"/>
        <pt x="380" y="294" on="1"/>
        <pt x="410" y="267" on="0"/>
        <pt x="432" y="249" on="1"/>
        <pt x="453" y="231" on="1"/>
        <pt x="361" y="161" on="0"/>
        <pt x="310" y="92" on="1"/>
        <pt x="291" y="67" on="0"/>
        <pt x="284" y="55" on="1"/>
      </contour>
      <contour>
        <pt x="101" y="43" on="1"/>
        <pt x="72" y="57" on="0"/>
        <pt x="72" y="110" on="0"/>
        <pt x="101" y="146" on="1"/>
        <pt x="148" y="205" on="0"/>
        <pt x="188" y="231" on="1"/>
        <pt x="187" y="232" on="0"/>
        <pt x="147" y="267" on="0"/>
        <pt x="104" y="307" on="0"/>
        <pt x="68" y="362" on="0"/>
        <pt x="68" y="406" on="0"/>
        <pt x="89" y="421" on="1"/>
        <pt x="141" y="348" on="0"/>
        <pt x="202" y="294" on="1"/>
        <pt x="233" y="267" on="0"/>
        <pt x="254" y="249" on="1"/>
        <pt x="276" y="231" on="1"/>
        <pt x="184" y="161" on="0"/>
        <pt x="133" y="92" on="1"/>
        <pt x="114" y="67" on="0"/>
        <pt x="108" y="55" on="1"/>
      </contour>
    </TTGlyph>
    <TTGlyph name="guilsinglleft" xMin="36" yMin="43" xMax="244" yMax="421">
      <contour>
        <pt x="223" y="421" on="1"/>
        <pt x="244" y="406" on="0"/>
        <pt x="244" y="362" on="0"/>
        <pt x="208" y="307" on="0"/>
        <pt x="165" y="267" on="0"/>
        <pt x="125" y="232" on="0"/>
        <pt x="124" y="231" on="1"/>
        <pt x="164" y="205" on="0"/>
        <pt x="240" y="110" on="0"/>
        <pt x="240" y="57" on="0"/>
        <pt x="211" y="43" on="1"/>
        <pt x="191" y="85" on="0"/>
        <pt x="135" y="144" on="1"/>
        <pt x="100" y="181" on="0"/>
        <pt x="52" y="218" on="1"/>
        <pt x="36" y="231" on="1"/>
        <pt x="118" y="298" on="0"/>
        <pt x="146" y="328" on="1"/>
        <pt x="193" y="379" on="0"/>
        <pt x="215" y="410" on="1"/>
      </contour>
    </TTGlyph>
    <TTGlyph name="guilsinglright" xMin="68" yMin="43" xMax="276" yMax="421">
      <contour>
        <pt x="101" y="43" on="1"/>
        <pt x="72" y="57" on="0"/>
        <pt x="72" y="110" on="0"/>
        <pt x="101" y="146" on="1"/>
        <pt x="148" y="205" on="0"/>
        <pt x="188" y="231" on="1"/>
        <pt x="187" y="232" on="0"/>
        <pt x="147" y="267" on="0"/>
        <pt x="104" y="307" on="0"/>
        <pt x="68" y="362" on="0"/>
        <pt x="68" y="406" on="0"/>
        <pt x="89" y="421" on="1"/>
        <pt x="141" y="348" on="0"/>
        <pt x="202" y="294" on="1"/>
        <pt x="233" y="267" on="0"/>
        <pt x="254" y="249" on="1"/>
        <pt x="276" y="231" on="1"/>
        <pt x="184" y="161" on="0"/>
        <pt x="133" y="92" on="1"/>
        <pt x="114" y="67" on="0"/>
        <pt x="108" y="55" on="1"/>
      </contour>
    </TTGlyph>
    <TTGlyph name="h" xMin="2" yMin="0" xMax="586" yMax="766">
      <contour>
        <pt x="362" y="495" on="1"/>
        <pt x="522" y="495" on="0"/>
        <pt x="522" y="341" on="1"/>
        <pt x="522" y="230" on="0"/>
        <pt x="515" y="29" on="1"/>
        <pt x="586" y="24" on="1"/>
        <pt x="586" y="0" on="1"/>
        <pt x="363" y="0" on="1"/>
        <pt x="363" y="24" on="1"/>
        <pt x="417" y="28" on="1"/>
        <pt x="424" y="292" on="0"/>
        <pt x="424" y="405" on="0"/>
        <pt x="382" y="461" on="0"/>
        <pt x="279" y="461" on="0"/>
        <pt x="189" y="363" on="0"/>
        <pt x="189" y="322" on="1"/>
        <pt x="189" y="29" on="1"/>
        <pt x="255" y="24" on="1"/>
        <pt x="255" y="0" on="1"/>
        <pt x="25" y="0" on="1"/>
        <pt x="25" y="24" on="1"/>
        <pt x="91" y="29" on="1"/>
        <pt x="91" y="718" on="1"/>
        <pt x="3" y="722" on="1"/>
        <pt x="2" y="745" on="1"/>
        <pt x="189" y="766" on="1"/>
        <pt x="183" y="423" on="0"/>
        <pt x="182" y="400" on="1"/>
        <pt x="190" y="400" on="1"/>
        <pt x="217" y="446" on="0"/>
        <pt x="308" y="495" on="0"/>
      </contour>
    </TTGlyph>
    <TTGlyph name="hungarumlaut" xMin="32" yMin="491" xMax="374" yMax="700">
      <contour>
        <pt x="32" y="512" on="1"/>
        <pt x="149" y="683" on="0"/>
        <pt x="161" y="700" on="1"/>
        <pt x="219" y="663" on="0"/>
        <pt x="214" y="638" on="1"/>
        <pt x="211" y="628" on="0"/>
        <pt x="200" y="616" on="1"/>
        <pt x="121" y="543" on="0"/>
        <pt x="54" y="491" on="1"/>
        <pt x="36" y="507" on="0"/>
      </contour>
      <contour>
        <pt x="321" y="700" on="1"/>
        <pt x="374" y="666" on="0"/>
        <pt x="374" y="642" on="1"/>
        <pt x="374" y="631" on="0"/>
        <pt x="360" y="616" on="1"/>
        <pt x="281" y="543" on="0"/>
        <pt x="214" y="491" on="1"/>
        <pt x="196" y="507" on="0"/>
        <pt x="192" y="512" on="1"/>
        <pt x="309" y="683" on="0"/>
      </contour>
    </TTGlyph>
    <TTGlyph name="hyphen" xMin="68" yMin="235" xMax="358" yMax="301">
      <contour>
        <pt x="358" y="301" on="1"/>
        <pt x="358" y="235" on="1"/>
        <pt x="68" y="235" on="1"/>
        <pt x="68" y="301" on="1"/>
      </contour>
    </TTGlyph>
    <TTGlyph name="i" xMin="18" yMin="0" xMax="270" yMax="712">
      <contour>
        <pt x="210" y="627" on="0"/>
        <pt x="176" y="592" on="0"/>
        <pt x="125" y="592" on="0"/>
        <pt x="91" y="626" on="0"/>
        <pt x="91" y="677" on="0"/>
        <pt x="125" y="712" on="0"/>
        <pt x="175" y="712" on="0"/>
        <pt x="210" y="676" on="0"/>
      </contour>
      <contour>
        <pt x="40" y="0" on="1"/>
        <pt x="40" y="24" on="1"/>
        <pt x="106" y="29" on="1"/>
        <pt x="106" y="454" on="1"/>
        <pt x="18" y="457" on="1"/>
        <pt x="18" y="480" on="1"/>
        <pt x="204" y="493" on="1"/>
        <pt x="204" y="29" on="1"/>
        <pt x="270" y="24" on="1"/>
        <pt x="270" y="0" on="1"/>
      </contour>
    </TTGlyph>
    <TTGlyph name="iacute" xMin="18" yMin="0" xMax="296" yMax="759">
      <contour>
        <pt x="243" y="759" on="1"/>
        <pt x="296" y="725" on="0"/>
        <pt x="296" y="701" on="1"/>
        <pt x="296" y="690" on="0"/>
        <pt x="282" y="675" on="1"/>
        <pt x="203" y="602" on="0"/>
        <pt x="136" y="550" on="1"/>
        <pt x="118" y="566" on="0"/>
        <pt x="114" y="571" on="1"/>
        <pt x="231" y="742" on="0"/>
      </contour>
      <contour>
        <pt x="40" y="0" on="1"/>
        <pt x="40" y="24" on="1"/>
        <pt x="106" y="29" on="1"/>
        <pt x="106" y="454" on="1"/>
        <pt x="18" y="457" on="1"/>
        <pt x="18" y="480" on="1"/>
        <pt x="204" y="493" on="1"/>
        <pt x="204" y="29" on="1"/>
        <pt x="270" y="24" on="1"/>
        <pt x="270" y="0" on="1"/>
      </contour>
    </TTGlyph>
    <TTGlyph name="icircumflex" xMin="-18" yMin="0" xMax="305" yMax="741">
      <contour>
        <pt x="-18" y="555" on="1"/>
        <pt x="119" y="741" on="1"/>
        <pt x="169" y="741" on="1"/>
        <pt x="305" y="555" on="1"/>
        <pt x="274" y="536" on="1"/>
        <pt x="144" y="662" on="1"/>
        <pt x="13" y="536" on="1"/>
      </contour>
      <contour>
        <pt x="40" y="0" on="1"/>
        <pt x="40" y="24" on="1"/>
        <pt x="106" y="29" on="1"/>
        <pt x="106" y="454" on="1"/>
        <pt x="18" y="457" on="1"/>
        <pt x="18" y="480" on="1"/>
        <pt x="204" y="493" on="1"/>
        <pt x="204" y="29" on="1"/>
        <pt x="270" y="24" on="1"/>
        <pt x="270" y="0" on="1"/>
      </contour>
    </TTGlyph>
    <TTGlyph name="idieresis" xMin="-7" yMin="0" xMax="294" yMax="678">
      <contour>
        <pt x="108" y="596" on="0"/>
        <pt x="75" y="562" on="0"/>
        <pt x="26" y="562" on="0"/>
        <pt x="-7" y="595" on="0"/>
        <pt x="-7" y="644" on="0"/>
        <pt x="26" y="678" on="0"/>
        <pt x="75" y="678" on="0"/>
        <pt x="108" y="644" on="0"/>
      </contour>
      <contour>
        <pt x="294" y="596" on="0"/>
        <pt x="261" y="562" on="0"/>
        <pt x="212" y="562" on="0"/>
        <pt x="179" y="595" on="0"/>
        <pt x="179" y="644" on="0"/>
        <pt x="212" y="678" on="0"/>
        <pt x="261" y="678" on="0"/>
        <pt x="294" y="644" on="0"/>
      </contour>
      <contour>
        <pt x="40" y="0" on="1"/>
        <pt x="40" y="24" on="1"/>
        <pt x="106" y="29" on="1"/>
        <pt x="106" y="454" on="1"/>
        <pt x="18" y="457" on="1"/>
        <pt x="18" y="480" on="1"/>
        <pt x="204" y="493" on="1"/>
        <pt x="204" y="29" on="1"/>
        <pt x="270" y="24" on="1"/>
        <pt x="270" y="0" on="1"/>
      </contour>
    </TTGlyph>
    <TTGlyph name="igrave" xMin="3" yMin="0" xMax="270" yMax="759">
      <contour>
        <pt x="17" y="675" on="1"/>
        <pt x="3" y="690" on="0"/>
        <pt x="3" y="700" on="1"/>
        <pt x="3" y="725" on="0"/>
        <pt x="56" y="759" on="1"/>
        <pt x="68" y="742" on="0"/>
        <pt x="185" y="571" on="1"/>
        <pt x="181" y="566" on="0"/>
        <pt x="163" y="550" on="1"/>
        <pt x="96" y="602" on="0"/>
      </contour>
      <contour>
        <pt x="40" y="0" on="1"/>
        <pt x="40" y="24" on="1"/>
        <pt x="106" y="29" on="1"/>
        <pt x="106" y="454" on="1"/>
        <pt x="18" y="457" on="1"/>
        <pt x="18" y="480" on="1"/>
        <pt x="204" y="493" on="1"/>
        <pt x="204" y="29" on="1"/>
        <pt x="270" y="24" on="1"/>
        <pt x="270" y="0" on="1"/>
      </contour>
    </TTGlyph>
    <TTGlyph name="j" xMin="-166" yMin="-263" xMax="199" yMax="712">
      <contour>
        <pt x="97" y="19" on="1"/>
        <pt x="97" y="455" on="1"/>
        <pt x="9" y="459" on="1"/>
        <pt x="9" y="482" on="1"/>
        <pt x="195" y="493" on="1"/>
        <pt x="195" y="4" on="1"/>
        <pt x="195" y="-129" on="0"/>
        <pt x="83" y="-263" on="0"/>
        <pt x="-21" y="-263" on="1"/>
        <pt x="-83" y="-263" on="0"/>
        <pt x="-166" y="-216" on="0"/>
        <pt x="-166" y="-137" on="0"/>
        <pt x="-138" y="-118" on="1"/>
        <pt x="-123" y="-108" on="0"/>
        <pt x="-92" y="-108" on="0"/>
        <pt x="-78" y="-114" on="1"/>
        <pt x="-84" y="-142" on="0"/>
        <pt x="-84" y="-194" on="0"/>
        <pt x="-48" y="-234" on="0"/>
        <pt x="16" y="-234" on="0"/>
        <pt x="61" y="-199" on="0"/>
        <pt x="72" y="-176" on="1"/>
        <pt x="97" y="-122" on="0"/>
      </contour>
      <contour>
        <pt x="199" y="627" on="0"/>
        <pt x="165" y="592" on="0"/>
        <pt x="114" y="592" on="0"/>
        <pt x="80" y="626" on="0"/>
        <pt x="80" y="677" on="0"/>
        <pt x="114" y="712" on="0"/>
        <pt x="164" y="712" on="0"/>
        <pt x="199" y="676" on="0"/>
      </contour>
    </TTGlyph>
    <TTGlyph name="k" xMin="1" yMin="0" xMax="555" yMax="766">
      <contour>
        <pt x="335" y="488" on="1"/>
        <pt x="531" y="488" on="1"/>
        <pt x="531" y="465" on="1"/>
        <pt x="457" y="446" on="1"/>
        <pt x="266" y="282" on="1"/>
        <pt x="488" y="31" on="1"/>
        <pt x="555" y="24" on="1"/>
        <pt x="555" y="0" on="1"/>
        <pt x="318" y="0" on="1"/>
        <pt x="318" y="24" on="1"/>
        <pt x="374" y="29" on="1"/>
        <pt x="188" y="248" on="1"/>
        <pt x="188" y="29" on="1"/>
        <pt x="250" y="24" on="1"/>
        <pt x="250" y="0" on="1"/>
        <pt x="25" y="0" on="1"/>
        <pt x="25" y="24" on="1"/>
        <pt x="90" y="29" on="1"/>
        <pt x="90" y="718" on="1"/>
        <pt x="2" y="722" on="1"/>
        <pt x="1" y="745" on="1"/>
        <pt x="188" y="766" on="1"/>
        <pt x="188" y="260" on="1"/>
        <pt x="400" y="446" on="1"/>
        <pt x="335" y="465" on="1"/>
      </contour>
    </TTGlyph>
    <TTGlyph name="l" xMin="4" yMin="0" xMax="257" yMax="766">
      <contour>
        <pt x="257" y="0" on="1"/>
        <pt x="27" y="0" on="1"/>
        <pt x="27" y="24" on="1"/>
        <pt x="93" y="29" on="1"/>
        <pt x="93" y="718" on="1"/>
        <pt x="4" y="722" on="1"/>
        <pt x="4" y="745" on="1"/>
        <pt x="191" y="766" on="1"/>
        <pt x="191" y="29" on="1"/>
        <pt x="257" y="24" on="1"/>
      </contour>
    </TTGlyph>
    <TTGlyph name="less" xMin="41" yMin="2" xMax="479" yMax="459">
      <contour>
        <pt x="479" y="406" on="1"/>
        <pt x="116" y="235" on="1"/>
        <pt x="479" y="57" on="1"/>
        <pt x="452" y="2" on="1"/>
        <pt x="41" y="208" on="1"/>
        <pt x="41" y="255" on="1"/>
        <pt x="454" y="459" on="1"/>
      </contour>
    </TTGlyph>
    <TTGlyph name="logicalnot" xMin="76" yMin="136" xMax="527" yMax="330">
      <contour>
        <pt x="456" y="136" on="1"/>
        <pt x="456" y="265" on="1"/>
        <pt x="76" y="265" on="1"/>
        <pt x="76" y="330" on="1"/>
        <pt x="526" y="330" on="1"/>
        <pt x="527" y="136" on="1"/>
      </contour>
    </TTGlyph>
    <TTGlyph name="m" xMin="21" yMin="0" xMax="929" yMax="495">
      <contour>
        <pt x="705" y="495" on="1"/>
        <pt x="865" y="495" on="0"/>
        <pt x="865" y="341" on="1"/>
        <pt x="865" y="230" on="0"/>
        <pt x="858" y="29" on="1"/>
        <pt x="929" y="24" on="1"/>
        <pt x="929" y="0" on="1"/>
        <pt x="706" y="0" on="1"/>
        <pt x="706" y="24" on="1"/>
        <pt x="760" y="28" on="1"/>
        <pt x="767" y="292" on="0"/>
        <pt x="767" y="405" on="0"/>
        <pt x="725" y="461" on="0"/>
        <pt x="631" y="461" on="0"/>
        <pt x="551" y="382" on="0"/>
        <pt x="537" y="337" on="1"/>
        <pt x="537" y="229" on="0"/>
        <pt x="530" y="29" on="1"/>
        <pt x="601" y="24" on="1"/>
        <pt x="601" y="0" on="1"/>
        <pt x="378" y="0" on="1"/>
        <pt x="378" y="24" on="1"/>
        <pt x="432" y="28" on="1"/>
        <pt x="439" y="292" on="0"/>
        <pt x="439" y="405" on="0"/>
        <pt x="397" y="461" on="0"/>
        <pt x="294" y="461" on="0"/>
        <pt x="204" y="352" on="0"/>
        <pt x="204" y="310" on="1"/>
        <pt x="204" y="29" on="1"/>
        <pt x="279" y="24" on="1"/>
        <pt x="279" y="0" on="1"/>
        <pt x="41" y="0" on="1"/>
        <pt x="41" y="24" on="1"/>
        <pt x="106" y="28" on="1"/>
        <pt x="106" y="452" on="1"/>
        <pt x="21" y="456" on="1"/>
        <pt x="21" y="479" on="1"/>
        <pt x="200" y="491" on="1"/>
        <pt x="195" y="388" on="1"/>
        <pt x="205" y="388" on="1"/>
        <pt x="232" y="441" on="0"/>
        <pt x="323" y="495" on="0"/>
        <pt x="377" y="495" on="1"/>
        <pt x="512" y="495" on="0"/>
        <pt x="533" y="387" on="1"/>
        <pt x="533" y="388" on="1"/>
        <pt x="560" y="441" on="0"/>
        <pt x="651" y="495" on="0"/>
      </contour>
    </TTGlyph>
    <TTGlyph name="macron" xMin="109" yMin="608" xMax="448" yMax="666">
      <contour>
        <pt x="448" y="666" on="1"/>
        <pt x="448" y="608" on="1"/>
        <pt x="109" y="608" on="1"/>
        <pt x="109" y="666" on="1"/>
      </contour>
    </TTGlyph>
    <TTGlyph name="minus" xMin="76" yMin="235" xMax="366" yMax="301">
      <contour>
        <pt x="366" y="301" on="1"/>
        <pt x="366" y="235" on="1"/>
        <pt x="76" y="235" on="1"/>
        <pt x="76" y="301" on="1"/>
      </contour>
    </TTGlyph>
    <TTGlyph name="mu" xMin="45" yMin="-243" xMax="629" yMax="494">
      <contour>
        <pt x="152" y="-13" on="1"/>
        <pt x="152" y="-47" on="0"/>
        <pt x="186" y="-153" on="0"/>
        <pt x="186" y="-208" on="0"/>
        <pt x="157" y="-243" on="0"/>
        <pt x="134" y="-243" on="1"/>
        <pt x="87" y="-243" on="0"/>
        <pt x="87" y="-170" on="1"/>
        <pt x="87" y="-152" on="0"/>
        <pt x="116" y="-47" on="0"/>
        <pt x="116" y="-13" on="1"/>
        <pt x="116" y="197" on="0"/>
        <pt x="125" y="456" on="1"/>
        <pt x="45" y="460" on="1"/>
        <pt x="45" y="483" on="1"/>
        <pt x="223" y="494" on="1"/>
        <pt x="216" y="230" on="0"/>
        <pt x="216" y="135" on="1"/>
        <pt x="216" y="78" on="0"/>
        <pt x="258" y="22" on="0"/>
        <pt x="357" y="22" on="0"/>
        <pt x="445" y="133" on="0"/>
        <pt x="445" y="175" on="1"/>
        <pt x="445" y="456" on="1"/>
        <pt x="362" y="460" on="1"/>
        <pt x="362" y="483" on="1"/>
        <pt x="543" y="494" on="1"/>
        <pt x="543" y="31" on="1"/>
        <pt x="628" y="27" on="1"/>
        <pt x="629" y="4" on="1"/>
        <pt x="449" y="-8" on="1"/>
        <pt x="456" y="100" on="1"/>
        <pt x="444" y="100" on="1"/>
        <pt x="392" y="-12" on="0"/>
        <pt x="278" y="-12" on="1"/>
        <pt x="192" y="-12" on="0"/>
        <pt x="152" y="32" on="1"/>
      </contour>
    </TTGlyph>
    <TTGlyph name="multiply" xMin="54" yMin="21" xMax="506" yMax="469">
      <contour>
        <pt x="454" y="468" on="1"/>
        <pt x="498" y="423" on="1"/>
        <pt x="327" y="249" on="1"/>
        <pt x="506" y="69" on="1"/>
        <pt x="458" y="21" on="1"/>
        <pt x="279" y="200" on="1"/>
        <pt x="99" y="23" on="1"/>
        <pt x="54" y="68" on="1"/>
        <pt x="234" y="245" on="1"/>
        <pt x="58" y="421" on="1"/>
        <pt x="106" y="469" on="1"/>
        <pt x="282" y="293" on="1"/>
      </contour>
    </TTGlyph>
    <TTGlyph name="n" xMin="21" yMin="0" xMax="598" yMax="498">
      <contour>
        <pt x="204" y="382" on="1"/>
        <pt x="249" y="498" on="0"/>
        <pt x="385" y="498" on="1"/>
        <pt x="453" y="498" on="0"/>
        <pt x="537" y="417" on="0"/>
        <pt x="537" y="342" on="1"/>
        <pt x="537" y="213" on="0"/>
        <pt x="529" y="29" on="1"/>
        <pt x="598" y="24" on="1"/>
        <pt x="598" y="0" on="1"/>
        <pt x="377" y="0" on="1"/>
        <pt x="377" y="24" on="1"/>
        <pt x="431" y="28" on="1"/>
        <pt x="439" y="254" on="0"/>
        <pt x="439" y="320" on="0"/>
        <pt x="437" y="355" on="0"/>
        <pt x="428" y="406" on="0"/>
        <pt x="419" y="421" on="1"/>
        <pt x="397" y="458" on="0"/>
        <pt x="350" y="458" on="1"/>
        <pt x="286" y="458" on="0"/>
        <pt x="204" y="352" on="0"/>
        <pt x="204" y="290" on="1"/>
        <pt x="204" y="29" on="1"/>
        <pt x="279" y="24" on="1"/>
        <pt x="279" y="0" on="1"/>
        <pt x="40" y="0" on="1"/>
        <pt x="40" y="24" on="1"/>
        <pt x="106" y="29" on="1"/>
        <pt x="106" y="452" on="1"/>
        <pt x="21" y="456" on="1"/>
        <pt x="21" y="479" on="1"/>
        <pt x="200" y="491" on="1"/>
        <pt x="195" y="383" on="1"/>
      </contour>
    </TTGlyph>
    <TTGlyph name="nine" xMin="53" yMin="-192" xMax="511" yMax="502">
      <contour>
        <pt x="146" y="-55" on="1"/>
        <pt x="146" y="-99" on="0"/>
        <pt x="203" y="-164" on="0"/>
        <pt x="290" y="-164" on="0"/>
        <pt x="345" y="-128" on="0"/>
        <pt x="378" y="-62" on="0"/>
        <pt x="398" y="5" on="0"/>
        <pt x="402" y="52" on="1"/>
        <pt x="409" y="120" on="0"/>
        <pt x="409" y="200" on="1"/>
        <pt x="409" y="473" on="0"/>
        <pt x="277" y="473" on="1"/>
        <pt x="221" y="473" on="0"/>
        <pt x="158" y="381" on="0"/>
        <pt x="158" y="302" on="1"/>
        <pt x="158" y="145" on="0"/>
        <pt x="276" y="145" on="1"/>
        <pt x="316" y="145" on="0"/>
        <pt x="361" y="161" on="1"/>
        <pt x="371" y="133" on="1"/>
        <pt x="312" y="97" on="0"/>
        <pt x="160" y="97" on="0"/>
        <pt x="53" y="194" on="0"/>
        <pt x="53" y="379" on="0"/>
        <pt x="177" y="502" on="0"/>
        <pt x="397" y="502" on="0"/>
        <pt x="511" y="338" on="0"/>
        <pt x="511" y="193" on="1"/>
        <pt x="511" y="11" on="0"/>
        <pt x="370" y="-192" on="0"/>
        <pt x="253" y="-192" on="1"/>
        <pt x="173" y="-192" on="0"/>
        <pt x="63" y="-124" on="0"/>
        <pt x="63" y="-67" on="1"/>
        <pt x="63" y="-31" on="0"/>
        <pt x="88" y="-18" on="1"/>
        <pt x="99" y="-11" on="0"/>
        <pt x="129" y="-11" on="0"/>
        <pt x="149" y="-20" on="1"/>
        <pt x="146" y="-38" on="0"/>
      </contour>
    </TTGlyph>
    <TTGlyph name="ntilde" xMin="21" yMin="0" xMax="598" yMax="679">
      <contour>
        <pt x="40" y="0" on="1"/>
        <pt x="40" y="24" on="1"/>
        <pt x="106" y="29" on="1"/>
        <pt x="106" y="452" on="1"/>
        <pt x="21" y="456" on="1"/>
        <pt x="21" y="479" on="1"/>
        <pt x="200" y="491" on="1"/>
        <pt x="195" y="383" on="1"/>
        <pt x="204" y="382" on="1"/>
        <pt x="249" y="498" on="0"/>
        <pt x="385" y="498" on="1"/>
        <pt x="453" y="498" on="0"/>
        <pt x="537" y="417" on="0"/>
        <pt x="537" y="342" on="1"/>
        <pt x="537" y="213" on="0"/>
        <pt x="529" y="29" on="1"/>
        <pt x="598" y="24" on="1"/>
        <pt x="598" y="0" on="1"/>
        <pt x="377" y="0" on="1"/>
        <pt x="377" y="24" on="1"/>
        <pt x="431" y="28" on="1"/>
        <pt x="439" y="254" on="0"/>
        <pt x="439" y="344" on="0"/>
        <pt x="432" y="380" on="1"/>
        <pt x="419" y="458" on="0"/>
        <pt x="350" y="458" on="1"/>
        <pt x="286" y="458" on="0"/>
        <pt x="204" y="352" on="0"/>
        <pt x="204" y="290" on="1"/>
        <pt x="204" y="29" on="1"/>
        <pt x="279" y="24" on="1"/>
        <pt x="279" y="0" on="1"/>
      </contour>
      <contour>
        <pt x="477" y="620" on="0"/>
        <pt x="420" y="560" on="0"/>
        <pt x="345" y="560" on="0"/>
        <pt x="297" y="589" on="1"/>
        <pt x="252" y="621" on="0"/>
        <pt x="205" y="621" on="0"/>
        <pt x="172" y="593" on="0"/>
        <pt x="167" y="575" on="1"/>
        <pt x="140" y="575" on="1"/>
        <pt x="146" y="620" on="0"/>
        <pt x="203" y="679" on="0"/>
        <pt x="283" y="679" on="0"/>
        <pt x="330" y="649" on="1"/>
        <pt x="375" y="618" on="0"/>
        <pt x="419" y="618" on="0"/>
        <pt x="451" y="647" on="0"/>
        <pt x="456" y="665" on="1"/>
        <pt x="483" y="665" on="1"/>
      </contour>
    </TTGlyph>
    <TTGlyph name="numbersign" xMin="41" yMin="0" xMax="667" yMax="668">
      <contour>
        <pt x="667" y="466" on="1"/>
        <pt x="657" y="410" on="1"/>
        <pt x="509" y="410" on="1"/>
        <pt x="481" y="256" on="1"/>
        <pt x="629" y="256" on="1"/>
        <pt x="620" y="200" on="1"/>
        <pt x="472" y="200" on="1"/>
        <pt x="435" y="0" on="1"/>
        <pt x="378" y="0" on="1"/>
        <pt x="413" y="200" on="1"/>
        <pt x="262" y="200" on="1"/>
        <pt x="225" y="0" on="1"/>
        <pt x="168" y="0" on="1"/>
        <pt x="203" y="200" on="1"/>
        <pt x="41" y="200" on="1"/>
        <pt x="51" y="256" on="1"/>
        <pt x="212" y="256" on="1"/>
        <pt x="240" y="410" on="1"/>
        <pt x="79" y="410" on="1"/>
        <pt x="89" y="466" on="1"/>
        <pt x="248" y="466" on="1"/>
        <pt x="285" y="668" on="1"/>
        <pt x="341" y="668" on="1"/>
        <pt x="307" y="466" on="1"/>
        <pt x="458" y="466" on="1"/>
        <pt x="495" y="668" on="1"/>
        <pt x="551" y="668" on="1"/>
        <pt x="517" y="466" on="1"/>
      </contour>
      <contour>
        <pt x="450" y="410" on="1"/>
        <pt x="299" y="410" on="1"/>
        <pt x="271" y="256" on="1"/>
        <pt x="422" y="256" on="1"/>
      </contour>
    </TTGlyph>
    <TTGlyph name="o" xMin="45" yMin="-11" xMax="544" yMax="499">
      <contour>
        <pt x="544" y="133" on="0"/>
        <pt x="410" y="-11" on="0"/>
        <pt x="179" y="-11" on="0"/>
        <pt x="45" y="133" on="0"/>
        <pt x="45" y="355" on="0"/>
        <pt x="179" y="499" on="0"/>
        <pt x="410" y="499" on="0"/>
        <pt x="544" y="355" on="0"/>
      </contour>
      <contour>
        <pt x="154" y="244" on="1"/>
        <pt x="154" y="13" on="0"/>
        <pt x="435" y="13" on="0"/>
        <pt x="435" y="244" on="1"/>
        <pt x="435" y="356" on="0"/>
        <pt x="371" y="474" on="0"/>
        <pt x="219" y="474" on="0"/>
        <pt x="154" y="356" on="0"/>
      </contour>
    </TTGlyph>
    <TTGlyph name="oacute" xMin="45" yMin="-11" xMax="544" yMax="759">
      <contour>
        <pt x="544" y="133" on="0"/>
        <pt x="410" y="-11" on="0"/>
        <pt x="179" y="-11" on="0"/>
        <pt x="45" y="133" on="0"/>
        <pt x="45" y="355" on="0"/>
        <pt x="179" y="499" on="0"/>
        <pt x="410" y="499" on="0"/>
        <pt x="544" y="355" on="0"/>
      </contour>
      <contour>
        <pt x="154" y="244" on="1"/>
        <pt x="154" y="13" on="0"/>
        <pt x="435" y="13" on="0"/>
        <pt x="435" y="244" on="1"/>
        <pt x="435" y="356" on="0"/>
        <pt x="371" y="474" on="0"/>
        <pt x="219" y="474" on="0"/>
        <pt x="154" y="356" on="0"/>
      </contour>
      <contour>
        <pt x="358" y="759" on="1"/>
        <pt x="411" y="725" on="0"/>
        <pt x="411" y="701" on="1"/>
        <pt x="411" y="690" on="0"/>
        <pt x="397" y="675" on="1"/>
        <pt x="318" y="602" on="0"/>
        <pt x="251" y="550" on="1"/>
        <pt x="233" y="566" on="0"/>
        <pt x="229" y="571" on="1"/>
        <pt x="346" y="742" on="0"/>
      </contour>
    </TTGlyph>
    <TTGlyph name="ocircumflex" xMin="45" yMin="-11" xMax="544" yMax="741">
      <contour>
        <pt x="544" y="133" on="0"/>
        <pt x="410" y="-11" on="0"/>
        <pt x="179" y="-11" on="0"/>
        <pt x="45" y="133" on="0"/>
        <pt x="45" y="355" on="0"/>
        <pt x="179" y="499" on="0"/>
        <pt x="410" y="499" on="0"/>
        <pt x="544" y="355" on="0"/>
      </contour>
      <contour>
        <pt x="154" y="244" on="1"/>
        <pt x="154" y="13" on="0"/>
        <pt x="435" y="13" on="0"/>
        <pt x="435" y="244" on="1"/>
        <pt x="435" y="356" on="0"/>
        <pt x="371" y="474" on="0"/>
        <pt x="219" y="474" on="0"/>
        <pt x="154" y="356" on="0"/>
      </contour>
      <contour>
        <pt x="133" y="555" on="1"/>
        <pt x="270" y="741" on="1"/>
        <pt x="320" y="741" on="1"/>
        <pt x="456" y="555" on="1"/>
        <pt x="425" y="536" on="1"/>
        <pt x="295" y="662" on="1"/>
        <pt x="164" y="536" on="1"/>
      </contour>
    </TTGlyph>
    <TTGlyph name="odieresis" xMin="45" yMin="-11" xMax="544" yMax="677">
      <contour>
        <pt x="544" y="133" on="0"/>
        <pt x="410" y="-11" on="0"/>
        <pt x="179" y="-11" on="0"/>
        <pt x="45" y="133" on="0"/>
        <pt x="45" y="355" on="0"/>
        <pt x="179" y="499" on="0"/>
        <pt x="410" y="499" on="0"/>
        <pt x="544" y="355" on="0"/>
      </contour>
      <contour>
        <pt x="154" y="244" on="1"/>
        <pt x="154" y="13" on="0"/>
        <pt x="435" y="13" on="0"/>
        <pt x="435" y="244" on="1"/>
        <pt x="435" y="356" on="0"/>
        <pt x="371" y="474" on="0"/>
        <pt x="219" y="474" on="0"/>
        <pt x="154" y="356" on="0"/>
      </contour>
      <contour>
        <pt x="261" y="595" on="0"/>
        <pt x="228" y="561" on="0"/>
        <pt x="179" y="561" on="0"/>
        <pt x="146" y="594" on="0"/>
        <pt x="146" y="643" on="0"/>
        <pt x="179" y="677" on="0"/>
        <pt x="228" y="677" on="0"/>
        <pt x="261" y="643" on="0"/>
      </contour>
      <contour>
        <pt x="447" y="595" on="0"/>
        <pt x="414" y="561" on="0"/>
        <pt x="365" y="561" on="0"/>
        <pt x="332" y="594" on="0"/>
        <pt x="332" y="643" on="0"/>
        <pt x="365" y="677" on="0"/>
        <pt x="414" y="677" on="0"/>
        <pt x="447" y="643" on="0"/>
      </contour>
    </TTGlyph>
    <TTGlyph name="oe" xMin="45" yMin="-11" xMax="863" yMax="499">
      <contour>
        <pt x="484" y="81" on="1"/>
        <pt x="418" y="-11" on="0"/>
        <pt x="179" y="-11" on="0"/>
        <pt x="45" y="133" on="0"/>
        <pt x="45" y="355" on="0"/>
        <pt x="179" y="499" on="0"/>
        <pt x="420" y="499" on="0"/>
        <pt x="485" y="405" on="1"/>
        <pt x="550" y="499" on="0"/>
        <pt x="666" y="499" on="1"/>
        <pt x="763" y="499" on="0"/>
        <pt x="863" y="408" on="0"/>
        <pt x="863" y="327" on="1"/>
        <pt x="863" y="303" on="0"/>
        <pt x="859" y="279" on="1"/>
        <pt x="536" y="279" on="1"/>
        <pt x="536" y="244" on="1"/>
        <pt x="536" y="132" on="0"/>
        <pt x="600" y="17" on="0"/>
        <pt x="673" y="17" on="1"/>
        <pt x="776" y="17" on="0"/>
        <pt x="832" y="107" on="1"/>
        <pt x="854" y="100" on="0"/>
        <pt x="854" y="86" on="1"/>
        <pt x="854" y="61" on="0"/>
        <pt x="808" y="28" on="1"/>
        <pt x="786" y="12" on="0"/>
        <pt x="706" y="-11" on="0"/>
        <pt x="657" y="-11" on="1"/>
        <pt x="544" y="-11" on="0"/>
      </contour>
      <contour>
        <pt x="154" y="244" on="1"/>
        <pt x="154" y="13" on="0"/>
        <pt x="435" y="13" on="0"/>
        <pt x="435" y="244" on="1"/>
        <pt x="435" y="356" on="0"/>
        <pt x="371" y="474" on="0"/>
        <pt x="219" y="474" on="0"/>
        <pt x="154" y="356" on="0"/>
      </contour>
      <contour>
        <pt x="768" y="348" on="1"/>
        <pt x="768" y="394" on="0"/>
        <pt x="749" y="427" on="1"/>
        <pt x="723" y="471" on="0"/>
        <pt x="665" y="471" on="1"/>
        <pt x="557" y="471" on="0"/>
        <pt x="539" y="315" on="1"/>
        <pt x="766" y="315" on="1"/>
        <pt x="768" y="332" on="0"/>
      </contour>
    </TTGlyph>
    <TTGlyph name="ogonek" xMin="52" yMin="-218" xMax="238" yMax="6">
      <contour>
        <pt x="225" y="-191" on="0"/>
        <pt x="163" y="-218" on="0"/>
        <pt x="96" y="-218" on="0"/>
        <pt x="52" y="-183" on="0"/>
        <pt x="52" y="-146" on="1"/>
        <pt x="52" y="-91" on="0"/>
        <pt x="152" y="-6" on="0"/>
        <pt x="195" y="6" on="1"/>
        <pt x="213" y="6" on="1"/>
        <pt x="122" y="-67" on="0"/>
        <pt x="122" y="-136" on="1"/>
        <pt x="122" y="-182" on="0"/>
        <pt x="171" y="-182" on="1"/>
        <pt x="209" y="-182" on="0"/>
        <pt x="231" y="-157" on="1"/>
        <pt x="238" y="-172" on="1"/>
      </contour>
    </TTGlyph>
    <TTGlyph name="ograve" xMin="45" yMin="-11" xMax="544" yMax="759">
      <contour>
        <pt x="544" y="133" on="0"/>
        <pt x="410" y="-11" on="0"/>
        <pt x="179" y="-11" on="0"/>
        <pt x="45" y="133" on="0"/>
        <pt x="45" y="355" on="0"/>
        <pt x="179" y="499" on="0"/>
        <pt x="410" y="499" on="0"/>
        <pt x="544" y="355" on="0"/>
      </contour>
      <contour>
        <pt x="154" y="244" on="1"/>
        <pt x="154" y="13" on="0"/>
        <pt x="435" y="13" on="0"/>
        <pt x="435" y="244" on="1"/>
        <pt x="435" y="356" on="0"/>
        <pt x="371" y="474" on="0"/>
        <pt x="219" y="474" on="0"/>
        <pt x="154" y="356" on="0"/>
      </contour>
      <contour>
        <pt x="191" y="675" on="1"/>
        <pt x="177" y="690" on="0"/>
        <pt x="177" y="700" on="1"/>
        <pt x="177" y="725" on="0"/>
        <pt x="230" y="759" on="1"/>
        <pt x="242" y="742" on="0"/>
        <pt x="359" y="571" on="1"/>
        <pt x="355" y="566" on="0"/>
        <pt x="337" y="550" on="1"/>
        <pt x="270" y="602" on="0"/>
      </contour>
    </TTGlyph>
    <TTGlyph name="one" xMin="54" yMin="0" xMax="288" yMax="487">
      <contour>
        <pt x="54" y="487" on="1"/>
        <pt x="288" y="487" on="1"/>
        <pt x="288" y="463" on="1"/>
        <pt x="219" y="458" on="1"/>
        <pt x="219" y="29" on="1"/>
        <pt x="288" y="24" on="1"/>
        <pt x="288" y="0" on="1"/>
        <pt x="54" y="0" on="1"/>
        <pt x="54" y="24" on="1"/>
        <pt x="123" y="29" on="1"/>
        <pt x="123" y="459" on="1"/>
        <pt x="54" y="463" on="1"/>
      </contour>
    </TTGlyph>
    <TTGlyph name="onehalf" xMin="38" yMin="-9" xMax="750" yMax="687">
      <contour>
        <pt x="458" y="0" on="1"/>
        <pt x="458" y="39" on="1"/>
        <pt x="527" y="79" on="0"/>
        <pt x="643" y="215" on="0"/>
        <pt x="643" y="378" on="0"/>
        <pt x="591" y="378" on="1"/>
        <pt x="563" y="378" on="0"/>
        <pt x="533" y="327" on="0"/>
        <pt x="533" y="279" on="0"/>
        <pt x="535" y="261" on="1"/>
        <pt x="517" y="252" on="0"/>
        <pt x="491" y="252" on="0"/>
        <pt x="482" y="257" on="1"/>
        <pt x="462" y="268" on="0"/>
        <pt x="462" y="298" on="1"/>
        <pt x="462" y="343" on="0"/>
        <pt x="538" y="398" on="0"/>
        <pt x="647" y="398" on="0"/>
        <pt x="728" y="341" on="0"/>
        <pt x="728" y="233" on="0"/>
        <pt x="656" y="134" on="0"/>
        <pt x="579" y="76" on="0"/>
        <pt x="540" y="55" on="1"/>
        <pt x="712" y="55" on="1"/>
        <pt x="732" y="110" on="1"/>
        <pt x="750" y="110" on="1"/>
        <pt x="744" y="0" on="1"/>
      </contour>
      <contour>
        <pt x="199" y="687" on="1"/>
        <pt x="199" y="326" on="1"/>
        <pt x="256" y="320" on="1"/>
        <pt x="256" y="301" on="1"/>
        <pt x="70" y="301" on="1"/>
        <pt x="70" y="320" on="1"/>
        <pt x="126" y="326" on="1"/>
        <pt x="126" y="617" on="1"/>
        <pt x="51" y="583" on="1"/>
        <pt x="38" y="611" on="1"/>
        <pt x="160" y="687" on="1"/>
      </contour>
      <contour>
        <pt x="573" y="668" on="1"/>
        <pt x="167" y="-9" on="1"/>
        <pt x="116" y="-9" on="1"/>
        <pt x="523" y="668" on="1"/>
      </contour>
    </TTGlyph>
    <TTGlyph name="onequarter" xMin="37" yMin="-9" xMax="706" yMax="687">
      <contour>
        <pt x="551" y="128" on="1"/>
        <pt x="388" y="128" on="1"/>
        <pt x="383" y="147" on="1"/>
        <pt x="573" y="387" on="1"/>
        <pt x="624" y="387" on="1"/>
        <pt x="624" y="165" on="1"/>
        <pt x="706" y="165" on="1"/>
        <pt x="706" y="128" on="1"/>
        <pt x="624" y="128" on="1"/>
        <pt x="624" y="25" on="1"/>
        <pt x="681" y="19" on="1"/>
        <pt x="681" y="0" on="1"/>
        <pt x="495" y="0" on="1"/>
        <pt x="495" y="19" on="1"/>
        <pt x="551" y="25" on="1"/>
      </contour>
      <contour>
        <pt x="198" y="687" on="1"/>
        <pt x="198" y="326" on="1"/>
        <pt x="255" y="320" on="1"/>
        <pt x="255" y="301" on="1"/>
        <pt x="69" y="301" on="1"/>
        <pt x="69" y="320" on="1"/>
        <pt x="125" y="326" on="1"/>
        <pt x="125" y="617" on="1"/>
        <pt x="50" y="583" on="1"/>
        <pt x="37" y="611" on="1"/>
        <pt x="159" y="687" on="1"/>
      </contour>
      <contour>
        <pt x="551" y="164" on="1"/>
        <pt x="551" y="306" on="1"/>
        <pt x="439" y="164" on="1"/>
      </contour>
      <contour>
        <pt x="595" y="668" on="1"/>
        <pt x="189" y="-9" on="1"/>
        <pt x="138" y="-9" on="1"/>
        <pt x="545" y="668" on="1"/>
      </contour>
    </TTGlyph>
    <TTGlyph name="onesuperior" xMin="44" yMin="301" xMax="262" yMax="687">
      <contour>
        <pt x="205" y="687" on="1"/>
        <pt x="205" y="326" on="1"/>
        <pt x="262" y="320" on="1"/>
        <pt x="262" y="301" on="1"/>
        <pt x="76" y="301" on="1"/>
        <pt x="76" y="320" on="1"/>
        <pt x="132" y="326" on="1"/>
        <pt x="132" y="617" on="1"/>
        <pt x="57" y="583" on="1"/>
        <pt x="44" y="611" on="1"/>
        <pt x="166" y="687" on="1"/>
      </contour>
    </TTGlyph>
    <TTGlyph name="ordfeminine" xMin="54" yMin="373" xMax="342" yMax="690">
      <contour>
        <pt x="121" y="449" on="1"/>
        <pt x="121" y="393" on="0"/>
        <pt x="162" y="393" on="1"/>
        <pt x="189" y="393" on="0"/>
        <pt x="232" y="434" on="0"/>
        <pt x="233" y="468" on="1"/>
        <pt x="233" y="529" on="1"/>
        <pt x="121" y="527" on="0"/>
      </contour>
      <contour>
        <pt x="143" y="374" on="1"/>
        <pt x="54" y="374" on="0"/>
        <pt x="54" y="449" on="1"/>
        <pt x="54" y="493" on="0"/>
        <pt x="148" y="541" on="0"/>
        <pt x="233" y="542" on="1"/>
        <pt x="233" y="598" on="1"/>
        <pt x="233" y="674" on="0"/>
        <pt x="182" y="674" on="1"/>
        <pt x="155" y="674" on="0"/>
        <pt x="130" y="634" on="0"/>
        <pt x="130" y="596" on="0"/>
        <pt x="132" y="582" on="1"/>
        <pt x="122" y="575" on="0"/>
        <pt x="101" y="575" on="0"/>
        <pt x="91" y="579" on="1"/>
        <pt x="68" y="588" on="0"/>
        <pt x="68" y="610" on="1"/>
        <pt x="68" y="652" on="0"/>
        <pt x="140" y="690" on="0"/>
        <pt x="179" y="690" on="1"/>
        <pt x="243" y="690" on="0"/>
        <pt x="296" y="639" on="0"/>
        <pt x="296" y="584" on="1"/>
        <pt x="296" y="394" on="1"/>
        <pt x="342" y="392" on="1"/>
        <pt x="342" y="379" on="1"/>
        <pt x="237" y="373" on="1"/>
        <pt x="233" y="423" on="1"/>
        <pt x="202" y="374" on="0"/>
      </contour>
    </TTGlyph>
    <TTGlyph name="ordmasculine" xMin="49" yMin="374" xMax="349" yMax="690">
      <contour>
        <pt x="349" y="463" on="0"/>
        <pt x="268" y="374" on="0"/>
        <pt x="129" y="374" on="0"/>
        <pt x="49" y="463" on="0"/>
        <pt x="49" y="601" on="0"/>
        <pt x="129" y="690" on="0"/>
        <pt x="268" y="690" on="0"/>
        <pt x="349" y="601" on="0"/>
      </contour>
      <contour>
        <pt x="198" y="391" on="1"/>
        <pt x="241" y="391" on="0"/>
        <pt x="277" y="463" on="0"/>
        <pt x="277" y="604" on="0"/>
        <pt x="242" y="673" on="0"/>
        <pt x="156" y="673" on="0"/>
        <pt x="121" y="603" on="0"/>
        <pt x="121" y="532" on="1"/>
        <pt x="121" y="391" on="0"/>
      </contour>
    </TTGlyph>
</ttFont>
